<svg id="Layer_1" data-name="Layer 1" xmlns="http://www.w3.org/2000/svg" viewBox="0 0 1200 630"><defs><style>.cls-1,.cls-5{fill:#fff;}.cls-2{fill:#010101;}.cls-3{fill:#ed2224;}.cls-4,.cls-6,.cls-8{isolation:isolate;}.cls-5{font-size:128px;}.cls-5,.cls-6,.cls-8{font-family:Verdana;}.cls-6{font-size:111px;}.cls-7{letter-spacing:-0.01em;}.cls-8{font-size:70px;fill:#58595b;}</style></defs><rect class="cls-1" width="1200" height="630"/><rect class="cls-2" x="47.55" y="172.45" width="285" height="285"/><path class="cls-3" d="M323.65,181.35v267.2H56.45V181.35h267.2m17.8-17.7H38.75v302.7h302.7V163.65Z"/><g class="cls-4"><path class="cls-1" d="M154.25,311.35l-49.1-27.1a15.6,15.6,0,0,1-4.9-3.7,6.86,6.86,0,0,1-1.2-4.1,7.25,7.25,0,0,1,2.3-5.4,7.41,7.41,0,0,1,5.4-2.3c1.3,0,3.3.7,5.9,2.1l73.1,40.7-73.1,40.7c-2.7,1.5-4.6,2.2-5.9,2.2a7.58,7.58,0,0,1-5.4-2.3,7.7,7.7,0,0,1-2.3-5.6,6.45,6.45,0,0,1,1.2-4.1,15.6,15.6,0,0,1,4.9-3.7Z"/></g><text class="cls-5" transform="translate(218.07 357.45)">?</text><text class="cls-6" transform="translate(387.59 358.85)">Container<tspan class="cls-7" x="539.72" y="0">S</tspan><tspan x="614.4" y="0">SH</tspan></text><text class="cls-8" transform="translate(393.81 236.31) scale(1.01 1)">Where is </text><text class="cls-8" transform="translate(396.99 448.55) scale(1.01 1)">0.4.0?</text></svg>