<?xml version="1.0" encoding="UTF-8" standalone="no"?>
<!DOCTYPE svg PUBLIC "-//W3C//DTD SVG 1.1//EN"
 "http://www.w3.org/Graphics/SVG/1.1/DTD/svg11.dtd">
<!-- Generated by graphviz version 2.46.1 (20210213.1702)
 -->
<!-- Title: layers Pages: 1 -->
<svg width="238pt" height="404pt"
 viewBox="0.00 0.00 237.50 404.00" xmlns="http://www.w3.org/2000/svg" xmlns:xlink="http://www.w3.org/1999/xlink">
<g id="graph0" class="graph" transform="scale(1 1) rotate(0) translate(4 400)">
<title>layers</title>
<polygon fill="white" stroke="transparent" points="-4,4 -4,-400 233.5,-400 233.5,4 -4,4"/>
<!-- SSH -->
<g id="node1" class="node">
<title>SSH</title>
<polygon fill="black" stroke="red" stroke-width="3" points="161.5,-396 107.5,-396 107.5,-360 161.5,-360 161.5,-396"/>
<text text-anchor="middle" x="134.5" y="-375.5" font-family="Arial" font-size="10.00" fill="white">SSH</text>
</g>
<!-- auditlogintegration -->
<g id="node2" class="node">
<title>auditlogintegration</title>
<polygon fill="black" stroke="red" stroke-width="3" points="113,-324 18,-324 18,-288 113,-288 113,-324"/>
<text text-anchor="middle" x="65.5" y="-303.5" font-family="Arial" font-size="10.00" fill="white">auditlogintegration</text>
</g>
<!-- SSH&#45;&gt;auditlogintegration -->
<g id="edge1" class="edge">
<title>SSH&#45;&gt;auditlogintegration</title>
<path fill="none" stroke="#00c900" stroke-width="2" d="M116.75,-359.97C116.75,-340.42 116.75,-312 116.75,-312 116.75,-312 116.38,-312 116.38,-312"/>
<polygon fill="#00c900" stroke="#00c900" stroke-width="2" points="118.06,-310.25 113.06,-312 118.06,-313.75 118.06,-310.25"/>
</g>
<!-- auditlog -->
<g id="node3" class="node">
<title>auditlog</title>
<polygon fill="black" stroke="red" stroke-width="3" points="181.5,-324 127.5,-324 127.5,-288 181.5,-288 181.5,-324"/>
<text text-anchor="middle" x="154.5" y="-303.5" font-family="Arial" font-size="10.00" fill="white">auditlog</text>
</g>
<!-- auditlogintegration&#45;&gt;auditlog -->
<g id="edge2" class="edge">
<title>auditlogintegration&#45;&gt;auditlog</title>
<path fill="none" stroke="#00c900" stroke-width="2" d="M113.13,-300C113.13,-300 122.14,-300 122.14,-300"/>
<polygon fill="#00c900" stroke="#00c900" stroke-width="2" points="122.14,-301.75 127.14,-300 122.14,-298.25 122.14,-301.75"/>
</g>
<!-- authintegration -->
<g id="node4" class="node">
<title>authintegration</title>
<polygon fill="black" stroke="red" stroke-width="3" points="106.5,-252 26.5,-252 26.5,-216 106.5,-216 106.5,-252"/>
<text text-anchor="middle" x="66.5" y="-231.5" font-family="Arial" font-size="10.00" fill="white">authintegration</text>
</g>
<!-- auditlogintegration&#45;&gt;authintegration -->
<g id="edge3" class="edge">
<title>auditlogintegration&#45;&gt;authintegration</title>
<path fill="none" stroke="#00c900" stroke-width="2" d="M66.5,-287.83C66.5,-287.83 66.5,-257.41 66.5,-257.41"/>
<polygon fill="#00c900" stroke="#00c900" stroke-width="2" points="68.25,-257.41 66.5,-252.41 64.75,-257.41 68.25,-257.41"/>
</g>
<!-- auth -->
<g id="node5" class="node">
<title>auth</title>
<polygon fill="black" stroke="red" stroke-width="3" points="174.5,-252 120.5,-252 120.5,-216 174.5,-216 174.5,-252"/>
<text text-anchor="middle" x="147.5" y="-231.5" font-family="Arial" font-size="10.00" fill="white">auth</text>
</g>
<!-- authintegration&#45;&gt;auth -->
<g id="edge4" class="edge">
<title>authintegration&#45;&gt;auth</title>
<path fill="none" stroke="#00c900" stroke-width="2" d="M106.53,-234C106.53,-234 115.18,-234 115.18,-234"/>
<polygon fill="#00c900" stroke="#00c900" stroke-width="2" points="115.18,-235.75 120.18,-234 115.18,-232.25 115.18,-235.75"/>
</g>
<!-- backend -->
<g id="node6" class="node">
<title>backend</title>
<polygon fill="black" stroke="red" stroke-width="3" points="94.5,-180 40.5,-180 40.5,-144 94.5,-144 94.5,-180"/>
<text text-anchor="middle" x="67.5" y="-159.5" font-family="Arial" font-size="10.00" fill="white">backend</text>
</g>
<!-- authintegration&#45;&gt;backend -->
<g id="edge5" class="edge">
<title>authintegration&#45;&gt;backend</title>
<path fill="none" stroke="#00c900" stroke-width="2" d="M67.5,-215.83C67.5,-215.83 67.5,-185.41 67.5,-185.41"/>
<polygon fill="#00c900" stroke="#00c900" stroke-width="2" points="69.25,-185.41 67.5,-180.41 65.75,-185.41 69.25,-185.41"/>
</g>
<!-- configuration -->
<g id="node7" class="node">
<title>configuration</title>
<polygon fill="black" stroke="red" stroke-width="3" points="180,-180 109,-180 109,-144 180,-144 180,-180"/>
<text text-anchor="middle" x="144.5" y="-159.5" font-family="Arial" font-size="10.00" fill="white">configuration</text>
</g>
<!-- backend&#45;&gt;configuration -->
<g id="edge6" class="edge">
<title>backend&#45;&gt;configuration</title>
<path fill="none" stroke="#00c900" stroke-width="2" d="M94.86,-162C94.86,-162 103.74,-162 103.74,-162"/>
<polygon fill="#00c900" stroke="#00c900" stroke-width="2" points="103.74,-163.75 108.74,-162 103.74,-160.25 103.74,-163.75"/>
</g>
<!-- security -->
<g id="node8" class="node">
<title>security</title>
<polygon fill="black" stroke="red" stroke-width="3" points="161.5,-108 107.5,-108 107.5,-72 161.5,-72 161.5,-108"/>
<text text-anchor="middle" x="134.5" y="-87.5" font-family="Arial" font-size="10.00" fill="white">security</text>
</g>
<!-- backend&#45;&gt;security -->
<g id="edge7" class="edge">
<title>backend&#45;&gt;security</title>
<path fill="none" stroke="#00c900" stroke-width="2" d="M82.5,-143.97C82.5,-124.42 82.5,-96 82.5,-96 82.5,-96 102.28,-96 102.28,-96"/>
<polygon fill="#00c900" stroke="#00c900" stroke-width="2" points="102.28,-97.75 107.28,-96 102.28,-94.25 102.28,-97.75"/>
</g>
<!-- security&#45;&gt;SSH -->
<g id="edge10" class="edge">
<title>security&#45;&gt;SSH</title>
<path fill="none" stroke="#00c900" stroke-width="2" d="M107.28,-84C67.98,-84 0,-84 0,-84 0,-84 0,-378 0,-378 0,-378 102.28,-378 102.28,-378"/>
<polygon fill="#00c900" stroke="#00c900" stroke-width="2" points="102.28,-379.75 107.28,-378 102.28,-376.25 102.28,-379.75"/>
</g>
<!-- Docker -->
<g id="node9" class="node">
<title>Docker</title>
<polygon fill="black" stroke="red" stroke-width="3" points="124.5,-36 70.5,-36 70.5,0 124.5,0 124.5,-36"/>
<text text-anchor="middle" x="97.5" y="-15.5" font-family="Arial" font-size="10.00" fill="white">Docker</text>
</g>
<!-- security&#45;&gt;Docker -->
<g id="edge8" class="edge">
<title>security&#45;&gt;Docker</title>
<path fill="none" stroke="#00c900" stroke-width="2" d="M116,-71.83C116,-71.83 116,-41.41 116,-41.41"/>
<polygon fill="#00c900" stroke="#00c900" stroke-width="2" points="117.75,-41.41 116,-36.41 114.25,-41.41 117.75,-41.41"/>
</g>
<!-- Kubernetes -->
<g id="node10" class="node">
<title>Kubernetes</title>
<polygon fill="black" stroke="red" stroke-width="3" points="204.5,-36 138.5,-36 138.5,0 204.5,0 204.5,-36"/>
<text text-anchor="middle" x="171.5" y="-15.5" font-family="Arial" font-size="10.00" fill="white">Kubernetes</text>
</g>
<!-- security&#45;&gt;Kubernetes -->
<g id="edge9" class="edge">
<title>security&#45;&gt;Kubernetes</title>
<path fill="none" stroke="#00c900" stroke-width="2" d="M150,-71.83C150,-71.83 150,-41.41 150,-41.41"/>
<polygon fill="#00c900" stroke="#00c900" stroke-width="2" points="151.75,-41.41 150,-36.41 148.25,-41.41 151.75,-41.41"/>
</g>
<!-- proxy -->
<g id="node11" class="node">
<title>proxy</title>
<polygon fill="black" stroke="red" stroke-width="3" points="229.5,-396 175.5,-396 175.5,-360 229.5,-360 229.5,-396"/>
<text text-anchor="middle" x="202.5" y="-375.5" font-family="Arial" font-size="10.00" fill="white">proxy</text>
</g>
</g>
</svg>
