<?xml version="1.0" encoding="UTF-8" standalone="no"?>
<!DOCTYPE svg PUBLIC "-//W3C//DTD SVG 1.1//EN"
 "http://www.w3.org/Graphics/SVG/1.1/DTD/svg11.dtd">
<!-- Generated by graphviz version 2.46.1 (20210213.1702)
 -->
<!-- Title: layers Pages: 1 -->
<svg width="188pt" height="404pt"
 viewBox="0.00 0.00 188.00 404.00" xmlns="http://www.w3.org/2000/svg" xmlns:xlink="http://www.w3.org/1999/xlink">
<g id="graph0" class="graph" transform="scale(1 1) rotate(0) translate(4 400)">
<title>layers</title>
<polygon fill="white" stroke="transparent" points="-4,4 -4,-400 184,-400 184,4 -4,4"/>
<!-- SSH -->
<g id="node1" class="node">
<title>SSH</title>
<polygon fill="black" stroke="red" stroke-width="3" points="91,-396 37,-396 37,-360 91,-360 91,-396"/>
<text text-anchor="middle" x="64" y="-375.5" font-family="Arial" font-size="10.00" fill="white">SSH</text>
</g>
<!-- auditlogintegration -->
<g id="node2" class="node">
<title>auditlogintegration</title>
<polygon fill="black" stroke="red" stroke-width="3" points="111.5,-324 16.5,-324 16.5,-288 111.5,-288 111.5,-324"/>
<text text-anchor="middle" x="64" y="-303.5" font-family="Arial" font-size="10.00" fill="white">auditlogintegration</text>
</g>
<!-- SSH&#45;&gt;auditlogintegration -->
<g id="edge1" class="edge">
<title>SSH&#45;&gt;auditlogintegration</title>
<path fill="none" stroke="#00c900" stroke-width="2" d="M64,-359.83C64,-359.83 64,-329.41 64,-329.41"/>
<polygon fill="#00c900" stroke="#00c900" stroke-width="2" points="65.75,-329.41 64,-324.41 62.25,-329.41 65.75,-329.41"/>
</g>
<!-- auditlog -->
<g id="node3" class="node">
<title>auditlog</title>
<polygon fill="black" stroke="red" stroke-width="3" points="180,-324 126,-324 126,-288 180,-288 180,-324"/>
<text text-anchor="middle" x="153" y="-303.5" font-family="Arial" font-size="10.00" fill="white">auditlog</text>
</g>
<!-- auditlogintegration&#45;&gt;auditlog -->
<g id="edge2" class="edge">
<title>auditlogintegration&#45;&gt;auditlog</title>
<path fill="none" stroke="#00c900" stroke-width="2" d="M111.63,-306C111.63,-306 120.64,-306 120.64,-306"/>
<polygon fill="#00c900" stroke="#00c900" stroke-width="2" points="120.64,-307.75 125.64,-306 120.64,-304.25 120.64,-307.75"/>
</g>
<!-- authintegration -->
<g id="node4" class="node">
<title>authintegration</title>
<polygon fill="black" stroke="red" stroke-width="3" points="104,-252 24,-252 24,-216 104,-216 104,-252"/>
<text text-anchor="middle" x="64" y="-231.5" font-family="Arial" font-size="10.00" fill="white">authintegration</text>
</g>
<!-- auditlogintegration&#45;&gt;authintegration -->
<g id="edge3" class="edge">
<title>auditlogintegration&#45;&gt;authintegration</title>
<path fill="none" stroke="#00c900" stroke-width="2" d="M64,-287.83C64,-287.83 64,-257.41 64,-257.41"/>
<polygon fill="#00c900" stroke="#00c900" stroke-width="2" points="65.75,-257.41 64,-252.41 62.25,-257.41 65.75,-257.41"/>
</g>
<!-- auth -->
<g id="node5" class="node">
<title>auth</title>
<polygon fill="black" stroke="red" stroke-width="3" points="172,-252 118,-252 118,-216 172,-216 172,-252"/>
<text text-anchor="middle" x="145" y="-231.5" font-family="Arial" font-size="10.00" fill="white">auth</text>
</g>
<!-- authintegration&#45;&gt;auth -->
<g id="edge4" class="edge">
<title>authintegration&#45;&gt;auth</title>
<path fill="none" stroke="#00c900" stroke-width="2" d="M104.03,-234C104.03,-234 112.68,-234 112.68,-234"/>
<polygon fill="#00c900" stroke="#00c900" stroke-width="2" points="112.68,-235.75 117.68,-234 112.68,-232.25 112.68,-235.75"/>
</g>
<!-- backend -->
<g id="node6" class="node">
<title>backend</title>
<polygon fill="black" stroke="red" stroke-width="3" points="91,-180 37,-180 37,-144 91,-144 91,-180"/>
<text text-anchor="middle" x="64" y="-159.5" font-family="Arial" font-size="10.00" fill="white">backend</text>
</g>
<!-- authintegration&#45;&gt;backend -->
<g id="edge5" class="edge">
<title>authintegration&#45;&gt;backend</title>
<path fill="none" stroke="#00c900" stroke-width="2" d="M64,-215.83C64,-215.83 64,-185.41 64,-185.41"/>
<polygon fill="#00c900" stroke="#00c900" stroke-width="2" points="65.75,-185.41 64,-180.41 62.25,-185.41 65.75,-185.41"/>
</g>
<!-- configuration -->
<g id="node7" class="node">
<title>configuration</title>
<polygon fill="black" stroke="red" stroke-width="3" points="176.5,-180 105.5,-180 105.5,-144 176.5,-144 176.5,-180"/>
<text text-anchor="middle" x="141" y="-159.5" font-family="Arial" font-size="10.00" fill="white">configuration</text>
</g>
<!-- backend&#45;&gt;configuration -->
<g id="edge6" class="edge">
<title>backend&#45;&gt;configuration</title>
<path fill="none" stroke="#00c900" stroke-width="2" d="M91.36,-162C91.36,-162 100.24,-162 100.24,-162"/>
<polygon fill="#00c900" stroke="#00c900" stroke-width="2" points="100.24,-163.75 105.24,-162 100.24,-160.25 100.24,-163.75"/>
</g>
<!-- security -->
<g id="node8" class="node">
<title>security</title>
<polygon fill="black" stroke="red" stroke-width="3" points="91,-108 37,-108 37,-72 91,-72 91,-108"/>
<text text-anchor="middle" x="64" y="-87.5" font-family="Arial" font-size="10.00" fill="white">security</text>
</g>
<!-- backend&#45;&gt;security -->
<g id="edge7" class="edge">
<title>backend&#45;&gt;security</title>
<path fill="none" stroke="#00c900" stroke-width="2" d="M64,-143.83C64,-143.83 64,-113.41 64,-113.41"/>
<polygon fill="#00c900" stroke="#00c900" stroke-width="2" points="65.75,-113.41 64,-108.41 62.25,-113.41 65.75,-113.41"/>
</g>
<!-- Docker -->
<g id="node9" class="node">
<title>Docker</title>
<polygon fill="black" stroke="red" stroke-width="3" points="54,-36 0,-36 0,0 54,0 54,-36"/>
<text text-anchor="middle" x="27" y="-15.5" font-family="Arial" font-size="10.00" fill="white">Docker</text>
</g>
<!-- security&#45;&gt;Docker -->
<g id="edge8" class="edge">
<title>security&#45;&gt;Docker</title>
<path fill="none" stroke="#00c900" stroke-width="2" d="M45.5,-71.83C45.5,-71.83 45.5,-41.41 45.5,-41.41"/>
<polygon fill="#00c900" stroke="#00c900" stroke-width="2" points="47.25,-41.41 45.5,-36.41 43.75,-41.41 47.25,-41.41"/>
</g>
<!-- Kubernetes -->
<g id="node10" class="node">
<title>Kubernetes</title>
<polygon fill="black" stroke="red" stroke-width="3" points="134,-36 68,-36 68,0 134,0 134,-36"/>
<text text-anchor="middle" x="101" y="-15.5" font-family="Arial" font-size="10.00" fill="white">Kubernetes</text>
</g>
<!-- security&#45;&gt;Kubernetes -->
<g id="edge9" class="edge">
<title>security&#45;&gt;Kubernetes</title>
<path fill="none" stroke="#00c900" stroke-width="2" d="M79.5,-71.83C79.5,-71.83 79.5,-41.41 79.5,-41.41"/>
<polygon fill="#00c900" stroke="#00c900" stroke-width="2" points="81.25,-41.41 79.5,-36.41 77.75,-41.41 81.25,-41.41"/>
</g>
</g>
</svg>
