<?xml version="1.0" encoding="UTF-8" standalone="no"?>
<!DOCTYPE svg PUBLIC "-//W3C//DTD SVG 1.1//EN"
 "http://www.w3.org/Graphics/SVG/1.1/DTD/svg11.dtd">
<!-- Generated by graphviz version 2.46.1 (20210213.1702)
 -->
<!-- Title: ContainerSSH Pages: 1 -->
<svg width="925pt" height="643pt"
 viewBox="0.00 0.00 924.50 643.00" xmlns="http://www.w3.org/2000/svg" xmlns:xlink="http://www.w3.org/1999/xlink">
<g id="graph0" class="graph" transform="scale(1 1) rotate(0) translate(4 639)">
<title>ContainerSSH</title>
<polygon fill="white" stroke="transparent" points="-4,4 -4,-639 920.5,-639 920.5,4 -4,4"/>
<text text-anchor="middle" x="458.25" y="-7.8" font-family="Arial" font-size="14.00">Internal ContainerSSH Module Dependencies</text>
<!-- ContainerSSH -->
<g id="node1" class="node">
<title>ContainerSSH</title>
<polygon fill="black" stroke="red" stroke-width="3" points="503,-635 425,-635 425,-599 503,-599 503,-635"/>
<text text-anchor="middle" x="464" y="-614.5" font-family="Arial" font-size="10.00" fill="white">ContainerSSH</text>
</g>
<!-- auditlog -->
<g id="node2" class="node">
<title>auditlog</title>
<polygon fill="black" stroke="red" stroke-width="3" points="840,-347 786,-347 786,-311 840,-311 840,-347"/>
<text text-anchor="middle" x="813" y="-326.5" font-family="Arial" font-size="10.00" fill="white">auditlog</text>
</g>
<!-- ContainerSSH&#45;&gt;auditlog -->
<g id="edge1" class="edge">
<title>ContainerSSH&#45;&gt;auditlog</title>
<path fill="none" stroke="#00c900" stroke-width="2" d="M503.32,-623C593.91,-623 809.67,-623 809.67,-623 809.67,-623 809.67,-352.39 809.67,-352.39"/>
<polygon fill="#00c900" stroke="#00c900" stroke-width="2" points="811.42,-352.39 809.67,-347.39 807.92,-352.39 811.42,-352.39"/>
</g>
<!-- auditlogintegration -->
<g id="node3" class="node">
<title>auditlogintegration</title>
<polygon fill="black" stroke="red" stroke-width="3" points="916.5,-419 821.5,-419 821.5,-383 916.5,-383 916.5,-419"/>
<text text-anchor="middle" x="869" y="-398.5" font-family="Arial" font-size="10.00" fill="white">auditlogintegration</text>
</g>
<!-- ContainerSSH&#45;&gt;auditlogintegration -->
<g id="edge2" class="edge">
<title>ContainerSSH&#45;&gt;auditlogintegration</title>
<path fill="none" stroke="#00c900" stroke-width="2" d="M503.2,-629C604.84,-629 869,-629 869,-629 869,-629 869,-424.27 869,-424.27"/>
<polygon fill="#00c900" stroke="#00c900" stroke-width="2" points="870.75,-424.27 869,-419.27 867.25,-424.27 870.75,-424.27"/>
</g>
<!-- auth -->
<g id="node4" class="node">
<title>auth</title>
<polygon fill="black" stroke="red" stroke-width="3" points="123,-419 69,-419 69,-383 123,-383 123,-419"/>
<text text-anchor="middle" x="96" y="-398.5" font-family="Arial" font-size="10.00" fill="white">auth</text>
</g>
<!-- ContainerSSH&#45;&gt;auth -->
<g id="edge3" class="edge">
<title>ContainerSSH&#45;&gt;auth</title>
<path fill="none" stroke="#00c900" stroke-width="2" d="M424.72,-626C328.16,-626 87,-626 87,-626 87,-626 87,-424.03 87,-424.03"/>
<polygon fill="#00c900" stroke="#00c900" stroke-width="2" points="88.75,-424.03 87,-419.03 85.25,-424.03 88.75,-424.03"/>
</g>
<!-- authintegration -->
<g id="node5" class="node">
<title>authintegration</title>
<polygon fill="black" stroke="red" stroke-width="3" points="240,-491 160,-491 160,-455 240,-455 240,-491"/>
<text text-anchor="middle" x="200" y="-470.5" font-family="Arial" font-size="10.00" fill="white">authintegration</text>
</g>
<!-- ContainerSSH&#45;&gt;authintegration -->
<g id="edge4" class="edge">
<title>ContainerSSH&#45;&gt;authintegration</title>
<path fill="none" stroke="#00c900" stroke-width="2" d="M424.76,-617C351.22,-617 200,-617 200,-617 200,-617 200,-496.24 200,-496.24"/>
<polygon fill="#00c900" stroke="#00c900" stroke-width="2" points="201.75,-496.24 200,-491.24 198.25,-496.24 201.75,-496.24"/>
</g>
<!-- backend -->
<g id="node6" class="node">
<title>backend</title>
<polygon fill="black" stroke="red" stroke-width="3" points="491,-563 437,-563 437,-527 491,-527 491,-563"/>
<text text-anchor="middle" x="464" y="-542.5" font-family="Arial" font-size="10.00" fill="white">backend</text>
</g>
<!-- ContainerSSH&#45;&gt;backend -->
<g id="edge5" class="edge">
<title>ContainerSSH&#45;&gt;backend</title>
<path fill="none" stroke="#00c900" stroke-width="2" d="M464,-598.83C464,-598.83 464,-568.41 464,-568.41"/>
<polygon fill="#00c900" stroke="#00c900" stroke-width="2" points="465.75,-568.41 464,-563.41 462.25,-568.41 465.75,-568.41"/>
</g>
<!-- configuration -->
<g id="node7" class="node">
<title>configuration</title>
<polygon fill="black" stroke="red" stroke-width="3" points="438.5,-491 367.5,-491 367.5,-455 438.5,-455 438.5,-491"/>
<text text-anchor="middle" x="403" y="-470.5" font-family="Arial" font-size="10.00" fill="white">configuration</text>
</g>
<!-- ContainerSSH&#45;&gt;configuration -->
<g id="edge6" class="edge">
<title>ContainerSSH&#45;&gt;configuration</title>
<path fill="none" stroke="#00c900" stroke-width="2" d="M429,-598.76C429,-598.76 429,-496.09 429,-496.09"/>
<polygon fill="#00c900" stroke="#00c900" stroke-width="2" points="430.75,-496.09 429,-491.09 427.25,-496.09 430.75,-496.09"/>
</g>
<!-- http -->
<g id="node9" class="node">
<title>http</title>
<polygon fill="black" stroke="red" stroke-width="3" points="54,-275 0,-275 0,-239 54,-239 54,-275"/>
<text text-anchor="middle" x="27" y="-254.5" font-family="Arial" font-size="10.00" fill="white">http</text>
</g>
<!-- ContainerSSH&#45;&gt;http -->
<g id="edge8" class="edge">
<title>ContainerSSH&#45;&gt;http</title>
<path fill="none" stroke="#00c900" stroke-width="2" d="M424.97,-630C315.04,-630 10.8,-630 10.8,-630 10.8,-630 10.8,-280.24 10.8,-280.24"/>
<polygon fill="#00c900" stroke="#00c900" stroke-width="2" points="12.55,-280.24 10.8,-275.24 9.05,-280.24 12.55,-280.24"/>
</g>
<!-- log -->
<g id="node11" class="node">
<title>log</title>
<polygon fill="black" stroke="red" stroke-width="3" points="351,-131 297,-131 297,-95 351,-95 351,-131"/>
<text text-anchor="middle" x="324" y="-110.5" font-family="Arial" font-size="10.00" fill="white">log</text>
</g>
<!-- ContainerSSH&#45;&gt;log -->
<g id="edge9" class="edge">
<title>ContainerSSH&#45;&gt;log</title>
<path fill="none" stroke="#00c900" stroke-width="2" d="M503.16,-605C534.54,-605 573.33,-605 573.33,-605 573.33,-605 573.33,-111 573.33,-111 573.33,-111 356.16,-111 356.16,-111"/>
<polygon fill="#00c900" stroke="#00c900" stroke-width="2" points="356.16,-109.25 351.16,-111 356.16,-112.75 356.16,-109.25"/>
</g>
<!-- metrics -->
<g id="node12" class="node">
<title>metrics</title>
<polygon fill="black" stroke="red" stroke-width="3" points="272,-347 218,-347 218,-311 272,-311 272,-347"/>
<text text-anchor="middle" x="245" y="-326.5" font-family="Arial" font-size="10.00" fill="white">metrics</text>
</g>
<!-- ContainerSSH&#45;&gt;metrics -->
<g id="edge10" class="edge">
<title>ContainerSSH&#45;&gt;metrics</title>
<path fill="none" stroke="#00c900" stroke-width="2" d="M424.97,-612C361.82,-612 244.25,-612 244.25,-612 244.25,-612 244.25,-352.13 244.25,-352.13"/>
<polygon fill="#00c900" stroke="#00c900" stroke-width="2" points="246,-352.13 244.25,-347.13 242.5,-352.13 246,-352.13"/>
</g>
<!-- metricsintegration -->
<g id="node13" class="node">
<title>metricsintegration</title>
<polygon fill="black" stroke="red" stroke-width="3" points="351,-419 257,-419 257,-383 351,-383 351,-419"/>
<text text-anchor="middle" x="304" y="-398.5" font-family="Arial" font-size="10.00" fill="white">metricsintegration</text>
</g>
<!-- ContainerSSH&#45;&gt;metricsintegration -->
<g id="edge11" class="edge">
<title>ContainerSSH&#45;&gt;metricsintegration</title>
<path fill="none" stroke="#00c900" stroke-width="2" d="M424.86,-608C377.49,-608 304,-608 304,-608 304,-608 304,-424.01 304,-424.01"/>
<polygon fill="#00c900" stroke="#00c900" stroke-width="2" points="305.75,-424.01 304,-419.01 302.25,-424.01 305.75,-424.01"/>
</g>
<!-- service -->
<g id="node15" class="node">
<title>service</title>
<polygon fill="black" stroke="red" stroke-width="3" points="272,-203 218,-203 218,-167 272,-167 272,-203"/>
<text text-anchor="middle" x="245" y="-182.5" font-family="Arial" font-size="10.00" fill="white">service</text>
</g>
<!-- ContainerSSH&#45;&gt;service -->
<g id="edge12" class="edge">
<title>ContainerSSH&#45;&gt;service</title>
<path fill="none" stroke="#00c900" stroke-width="2" d="M424.78,-621C338.83,-621 141.5,-621 141.5,-621 141.5,-621 141.5,-195 141.5,-195 141.5,-195 212.81,-195 212.81,-195"/>
<polygon fill="#00c900" stroke="#00c900" stroke-width="2" points="212.81,-196.75 217.81,-195 212.81,-193.25 212.81,-196.75"/>
</g>
<!-- sshserver -->
<g id="node16" class="node">
<title>sshserver</title>
<polygon fill="black" stroke="red" stroke-width="3" points="708,-347 650,-347 650,-311 708,-311 708,-347"/>
<text text-anchor="middle" x="679" y="-326.5" font-family="Arial" font-size="10.00" fill="white">sshserver</text>
</g>
<!-- ContainerSSH&#45;&gt;sshserver -->
<g id="edge13" class="edge">
<title>ContainerSSH&#45;&gt;sshserver</title>
<path fill="none" stroke="#00c900" stroke-width="2" d="M503.01,-617C563.74,-617 674,-617 674,-617 674,-617 674,-352.02 674,-352.02"/>
<polygon fill="#00c900" stroke="#00c900" stroke-width="2" points="675.75,-352.02 674,-347.02 672.25,-352.02 675.75,-352.02"/>
</g>
<!-- geoip -->
<g id="node17" class="node">
<title>geoip</title>
<polygon fill="black" stroke="red" stroke-width="3" points="400,-275 346,-275 346,-239 400,-239 400,-275"/>
<text text-anchor="middle" x="373" y="-254.5" font-family="Arial" font-size="10.00" fill="white">geoip</text>
</g>
<!-- ContainerSSH&#45;&gt;geoip -->
<g id="edge7" class="edge">
<title>ContainerSSH&#45;&gt;geoip</title>
<path fill="none" stroke="#00c900" stroke-width="2" d="M424.73,-603C395.59,-603 360.9,-603 360.9,-603 360.9,-603 360.9,-280.12 360.9,-280.12"/>
<polygon fill="#00c900" stroke="#00c900" stroke-width="2" points="362.65,-280.12 360.9,-275.12 359.15,-280.12 362.65,-280.12"/>
</g>
<!-- structutils -->
<g id="node18" class="node">
<title>structutils</title>
<polygon fill="black" stroke="red" stroke-width="3" points="353.5,-59 294.5,-59 294.5,-23 353.5,-23 353.5,-59"/>
<text text-anchor="middle" x="324" y="-38.5" font-family="Arial" font-size="10.00" fill="white">structutils</text>
</g>
<!-- ContainerSSH&#45;&gt;structutils -->
<g id="edge14" class="edge">
<title>ContainerSSH&#45;&gt;structutils</title>
<path fill="none" stroke="#00c900" stroke-width="2" d="M503.29,-611C539.66,-611 588.17,-611 588.17,-611 588.17,-611 588.17,-33 588.17,-33 588.17,-33 358.53,-33 358.53,-33"/>
<polygon fill="#00c900" stroke="#00c900" stroke-width="2" points="358.53,-31.25 353.53,-33 358.53,-34.75 358.53,-31.25"/>
</g>
<!-- auditlog&#45;&gt;log -->
<g id="edge16" class="edge">
<title>auditlog&#45;&gt;log</title>
<path fill="none" stroke="#00c900" stroke-width="2" d="M822,-310.89C822,-257.26 822,-103 822,-103 822,-103 356.13,-103 356.13,-103"/>
<polygon fill="#00c900" stroke="#00c900" stroke-width="2" points="356.13,-101.25 351.13,-103 356.13,-104.75 356.13,-101.25"/>
</g>
<!-- auditlog&#45;&gt;geoip -->
<g id="edge15" class="edge">
<title>auditlog&#45;&gt;geoip</title>
<path fill="none" stroke="#00c900" stroke-width="2" d="M804,-310.58C804,-301.72 804,-293 804,-293 804,-293 395.36,-293 395.36,-293 395.36,-293 395.36,-280.42 395.36,-280.42"/>
<polygon fill="#00c900" stroke="#00c900" stroke-width="2" points="397.11,-280.42 395.36,-275.42 393.61,-280.42 397.11,-280.42"/>
</g>
<!-- auditlogintegration&#45;&gt;auditlog -->
<g id="edge17" class="edge">
<title>auditlogintegration&#45;&gt;auditlog</title>
<path fill="none" stroke="#00c900" stroke-width="2" d="M833.83,-382.83C833.83,-382.83 833.83,-352.41 833.83,-352.41"/>
<polygon fill="#00c900" stroke="#00c900" stroke-width="2" points="835.58,-352.41 833.83,-347.41 832.08,-352.41 835.58,-352.41"/>
</g>
<!-- auditlogintegration&#45;&gt;log -->
<g id="edge19" class="edge">
<title>auditlogintegration&#45;&gt;log</title>
<path fill="none" stroke="#00c900" stroke-width="2" d="M878.25,-382.56C878.25,-316.99 878.25,-99 878.25,-99 878.25,-99 356.11,-99 356.11,-99"/>
<polygon fill="#00c900" stroke="#00c900" stroke-width="2" points="356.11,-97.25 351.11,-99 356.11,-100.75 356.11,-97.25"/>
</g>
<!-- auditlogintegration&#45;&gt;sshserver -->
<g id="edge20" class="edge">
<title>auditlogintegration&#45;&gt;sshserver</title>
<path fill="none" stroke="#00c900" stroke-width="2" d="M821.3,-401C768.57,-401 691,-401 691,-401 691,-401 691,-352.17 691,-352.17"/>
<polygon fill="#00c900" stroke="#00c900" stroke-width="2" points="692.75,-352.17 691,-347.17 689.25,-352.17 692.75,-352.17"/>
</g>
<!-- auditlogintegration&#45;&gt;geoip -->
<g id="edge18" class="edge">
<title>auditlogintegration&#45;&gt;geoip</title>
<path fill="none" stroke="#00c900" stroke-width="2" d="M827.67,-382.96C827.67,-370.44 827.67,-356 827.67,-356 827.67,-356 390.71,-356 390.71,-356 390.71,-356 390.71,-280.16 390.71,-280.16"/>
<polygon fill="#00c900" stroke="#00c900" stroke-width="2" points="392.46,-280.16 390.71,-275.16 388.96,-280.16 392.46,-280.16"/>
</g>
<!-- auth&#45;&gt;http -->
<g id="edge22" class="edge">
<title>auth&#45;&gt;http</title>
<path fill="none" stroke="#c400fc" stroke-width="2" d="M79.8,-382.76C79.8,-344.01 79.8,-257 79.8,-257 79.8,-257 59.02,-257 59.02,-257"/>
<polygon fill="#c400fc" stroke="#c400fc" stroke-width="2" points="59.02,-255.25 54.02,-257 59.02,-258.75 59.02,-255.25"/>
</g>
<!-- auth&#45;&gt;log -->
<g id="edge23" class="edge">
<title>auth&#45;&gt;log</title>
<path fill="none" stroke="#c400fc" stroke-width="2" d="M90.6,-382.61C90.6,-318.25 90.6,-107 90.6,-107 90.6,-107 291.77,-107 291.77,-107"/>
<polygon fill="#c400fc" stroke="#c400fc" stroke-width="2" points="291.77,-108.75 296.77,-107 291.77,-105.25 291.77,-108.75"/>
</g>
<!-- auth&#45;&gt;metrics -->
<g id="edge24" class="edge">
<title>auth&#45;&gt;metrics</title>
<path fill="none" stroke="#c400fc" stroke-width="2" d="M123.04,-395C160.47,-395 223.5,-395 223.5,-395 223.5,-395 223.5,-352.03 223.5,-352.03"/>
<polygon fill="#c400fc" stroke="#c400fc" stroke-width="2" points="225.25,-352.03 223.5,-347.03 221.75,-352.03 225.25,-352.03"/>
</g>
<!-- auth&#45;&gt;service -->
<g id="edge25" class="edge">
<title>auth&#45;&gt;service</title>
<path fill="none" stroke="#c400fc" stroke-width="2" d="M101.4,-383C101.4,-330.45 101.4,-181 101.4,-181 101.4,-181 212.99,-181 212.99,-181"/>
<polygon fill="#c400fc" stroke="#c400fc" stroke-width="2" points="212.99,-182.75 217.99,-181 212.99,-179.25 212.99,-182.75"/>
</g>
<!-- auth&#45;&gt;geoip -->
<g id="edge21" class="edge">
<title>auth&#45;&gt;geoip</title>
<path fill="none" stroke="#c400fc" stroke-width="2" d="M112.2,-382.79C112.2,-345.94 112.2,-266 112.2,-266 112.2,-266 340.58,-266 340.58,-266"/>
<polygon fill="#c400fc" stroke="#c400fc" stroke-width="2" points="340.58,-267.75 345.58,-266 340.58,-264.25 340.58,-267.75"/>
</g>
<!-- authintegration&#45;&gt;auth -->
<g id="edge26" class="edge">
<title>authintegration&#45;&gt;auth</title>
<path fill="none" stroke="#0600ff" stroke-width="2" d="M159.99,-467C134.02,-467 105,-467 105,-467 105,-467 105,-424.03 105,-424.03"/>
<polygon fill="#0600ff" stroke="#0600ff" stroke-width="2" points="106.75,-424.03 105,-419.03 103.25,-424.03 106.75,-424.03"/>
</g>
<!-- authintegration&#45;&gt;http -->
<g id="edge27" class="edge">
<title>authintegration&#45;&gt;http</title>
<path fill="none" stroke="#0600ff" stroke-width="2" d="M159.96,-479C107.37,-479 21.6,-479 21.6,-479 21.6,-479 21.6,-280.17 21.6,-280.17"/>
<polygon fill="#0600ff" stroke="#0600ff" stroke-width="2" points="23.35,-280.17 21.6,-275.17 19.85,-280.17 23.35,-280.17"/>
</g>
<!-- authintegration&#45;&gt;log -->
<g id="edge28" class="edge">
<title>authintegration&#45;&gt;log</title>
<path fill="none" stroke="#0600ff" stroke-width="2" d="M189,-454.96C189,-382.82 189,-119 189,-119 189,-119 291.68,-119 291.68,-119"/>
<polygon fill="#0600ff" stroke="#0600ff" stroke-width="2" points="291.68,-120.75 296.68,-119 291.68,-117.25 291.68,-120.75"/>
</g>
<!-- authintegration&#45;&gt;metrics -->
<g id="edge32" class="edge">
<title>authintegration&#45;&gt;metrics</title>
<path fill="none" stroke="#0600ff" stroke-width="2" d="M229,-454.76C229,-454.76 229,-352.09 229,-352.09"/>
<polygon fill="#0600ff" stroke="#0600ff" stroke-width="2" points="230.75,-352.09 229,-347.09 227.25,-352.09 230.75,-352.09"/>
</g>
<!-- authintegration&#45;&gt;service -->
<g id="edge29" class="edge">
<title>authintegration&#45;&gt;service</title>
<path fill="none" stroke="#0600ff" stroke-width="2" d="M203.5,-454.74C203.5,-391.84 203.5,-188 203.5,-188 203.5,-188 212.55,-188 212.55,-188"/>
<polygon fill="#0600ff" stroke="#0600ff" stroke-width="2" points="212.55,-189.75 217.55,-188 212.55,-186.25 212.55,-189.75"/>
</g>
<!-- authintegration&#45;&gt;sshserver -->
<g id="edge30" class="edge">
<title>authintegration&#45;&gt;sshserver</title>
<path fill="none" stroke="#0600ff" stroke-width="2" d="M234.5,-454.84C234.5,-426.26 234.5,-374 234.5,-374 234.5,-374 652.33,-374 652.33,-374 652.33,-374 652.33,-352.04 652.33,-352.04"/>
<polygon fill="#0600ff" stroke="#0600ff" stroke-width="2" points="654.08,-352.04 652.33,-347.04 650.58,-352.04 654.08,-352.04"/>
</g>
<!-- authintegration&#45;&gt;structutils -->
<g id="edge31" class="edge">
<title>authintegration&#45;&gt;structutils</title>
<path fill="none" stroke="#0600ff" stroke-width="2" d="M174.5,-454.82C174.5,-373.86 174.5,-50 174.5,-50 174.5,-50 289.46,-50 289.46,-50"/>
<polygon fill="#0600ff" stroke="#0600ff" stroke-width="2" points="289.46,-51.75 294.46,-50 289.46,-48.25 289.46,-51.75"/>
</g>
<!-- backend&#45;&gt;configuration -->
<g id="edge33" class="edge">
<title>backend&#45;&gt;configuration</title>
<path fill="none" stroke="#fc8300" stroke-width="2" d="M436.8,-536C434.48,-536 433,-536 433,-536 433,-536 433,-496.22 433,-496.22"/>
<polygon fill="#fc8300" stroke="#fc8300" stroke-width="2" points="434.75,-496.22 433,-491.22 431.25,-496.22 434.75,-496.22"/>
</g>
<!-- docker -->
<g id="node8" class="node">
<title>docker</title>
<polygon fill="black" stroke="red" stroke-width="3" points="479,-419 425,-419 425,-383 479,-383 479,-419"/>
<text text-anchor="middle" x="452" y="-398.5" font-family="Arial" font-size="10.00" fill="white">docker</text>
</g>
<!-- backend&#45;&gt;docker -->
<g id="edge34" class="edge">
<title>backend&#45;&gt;docker</title>
<path fill="none" stroke="#fc8300" stroke-width="2" d="M458.75,-526.76C458.75,-526.76 458.75,-424.09 458.75,-424.09"/>
<polygon fill="#fc8300" stroke="#fc8300" stroke-width="2" points="460.5,-424.09 458.75,-419.09 457,-424.09 460.5,-424.09"/>
</g>
<!-- kubernetes -->
<g id="node10" class="node">
<title>kubernetes</title>
<polygon fill="black" stroke="red" stroke-width="3" points="558.5,-419 493.5,-419 493.5,-383 558.5,-383 558.5,-419"/>
<text text-anchor="middle" x="526" y="-398.5" font-family="Arial" font-size="10.00" fill="white">kubernetes</text>
</g>
<!-- backend&#45;&gt;kubernetes -->
<g id="edge36" class="edge">
<title>backend&#45;&gt;kubernetes</title>
<path fill="none" stroke="#fc8300" stroke-width="2" d="M491.16,-539C496.16,-539 499.83,-539 499.83,-539 499.83,-539 499.83,-424.04 499.83,-424.04"/>
<polygon fill="#fc8300" stroke="#fc8300" stroke-width="2" points="501.58,-424.04 499.83,-419.04 498.08,-424.04 501.58,-424.04"/>
</g>
<!-- backend&#45;&gt;log -->
<g id="edge37" class="edge">
<title>backend&#45;&gt;log</title>
<path fill="none" stroke="#fc8300" stroke-width="2" d="M483.8,-526.97C483.8,-445.88 483.8,-119 483.8,-119 483.8,-119 356.11,-119 356.11,-119"/>
<polygon fill="#fc8300" stroke="#fc8300" stroke-width="2" points="356.11,-117.25 351.11,-119 356.11,-120.75 356.11,-117.25"/>
</g>
<!-- backend&#45;&gt;metrics -->
<g id="edge38" class="edge">
<title>backend&#45;&gt;metrics</title>
<path fill="none" stroke="#fc8300" stroke-width="2" d="M436.82,-554C379.76,-554 252.75,-554 252.75,-554 252.75,-554 252.75,-352.03 252.75,-352.03"/>
<polygon fill="#fc8300" stroke="#fc8300" stroke-width="2" points="254.5,-352.03 252.75,-347.03 251,-352.03 254.5,-352.03"/>
</g>
<!-- security -->
<g id="node14" class="node">
<title>security</title>
<polygon fill="black" stroke="red" stroke-width="3" points="657,-419 603,-419 603,-383 657,-383 657,-419"/>
<text text-anchor="middle" x="630" y="-398.5" font-family="Arial" font-size="10.00" fill="white">security</text>
</g>
<!-- backend&#45;&gt;security -->
<g id="edge39" class="edge">
<title>backend&#45;&gt;security</title>
<path fill="none" stroke="#fc8300" stroke-width="2" d="M491.34,-551C540.56,-551 639,-551 639,-551 639,-551 639,-424.09 639,-424.09"/>
<polygon fill="#fc8300" stroke="#fc8300" stroke-width="2" points="640.75,-424.09 639,-419.09 637.25,-424.09 640.75,-424.09"/>
</g>
<!-- backend&#45;&gt;service -->
<g id="edge40" class="edge">
<title>backend&#45;&gt;service</title>
<path fill="none" stroke="#fc8300" stroke-width="2" d="M481.4,-526.81C481.4,-454.06 481.4,-188 481.4,-188 481.4,-188 277.12,-188 277.12,-188"/>
<polygon fill="#fc8300" stroke="#fc8300" stroke-width="2" points="277.12,-186.25 272.12,-188 277.12,-189.75 277.12,-186.25"/>
</g>
<!-- backend&#45;&gt;sshserver -->
<g id="edge41" class="edge">
<title>backend&#45;&gt;sshserver</title>
<path fill="none" stroke="#fc8300" stroke-width="2" d="M488.6,-526.67C488.6,-474.68 488.6,-330 488.6,-330 488.6,-330 644.67,-330 644.67,-330"/>
<polygon fill="#fc8300" stroke="#fc8300" stroke-width="2" points="644.67,-331.75 649.67,-330 644.67,-328.25 644.67,-331.75"/>
</g>
<!-- backend&#45;&gt;geoip -->
<g id="edge35" class="edge">
<title>backend&#45;&gt;geoip</title>
<path fill="none" stroke="#fc8300" stroke-width="2" d="M436.99,-545C407.44,-545 364.2,-545 364.2,-545 364.2,-545 364.2,-280.02 364.2,-280.02"/>
<polygon fill="#fc8300" stroke="#fc8300" stroke-width="2" points="365.95,-280.02 364.2,-275.02 362.45,-280.02 365.95,-280.02"/>
</g>
<!-- backend&#45;&gt;structutils -->
<g id="edge42" class="edge">
<title>backend&#45;&gt;structutils</title>
<path fill="none" stroke="#fc8300" stroke-width="2" d="M486.2,-526.84C486.2,-436.84 486.2,-43 486.2,-43 486.2,-43 358.75,-43 358.75,-43"/>
<polygon fill="#fc8300" stroke="#fc8300" stroke-width="2" points="358.75,-41.25 353.75,-43 358.75,-44.75 358.75,-41.25"/>
</g>
<!-- configuration&#45;&gt;auditlog -->
<g id="edge43" class="edge">
<title>configuration&#45;&gt;auditlog</title>
<path fill="none" stroke="#0600ff" stroke-width="2" d="M438.74,-482C535.93,-482 797.83,-482 797.83,-482 797.83,-482 797.83,-352.15 797.83,-352.15"/>
<polygon fill="#0600ff" stroke="#0600ff" stroke-width="2" points="799.58,-352.15 797.83,-347.15 796.08,-352.15 799.58,-352.15"/>
</g>
<!-- configuration&#45;&gt;auth -->
<g id="edge44" class="edge">
<title>configuration&#45;&gt;auth</title>
<path fill="none" stroke="#0600ff" stroke-width="2" d="M367.17,-473C321.53,-473 248.5,-473 248.5,-473 248.5,-473 248.5,-407 248.5,-407 248.5,-407 128.26,-407 128.26,-407"/>
<polygon fill="#0600ff" stroke="#0600ff" stroke-width="2" points="128.26,-405.25 123.26,-407 128.26,-408.75 128.26,-405.25"/>
</g>
<!-- configuration&#45;&gt;docker -->
<g id="edge45" class="edge">
<title>configuration&#45;&gt;docker</title>
<path fill="none" stroke="#0600ff" stroke-width="2" d="M431.75,-454.83C431.75,-454.83 431.75,-424.41 431.75,-424.41"/>
<polygon fill="#0600ff" stroke="#0600ff" stroke-width="2" points="433.5,-424.41 431.75,-419.41 430,-424.41 433.5,-424.41"/>
</g>
<!-- configuration&#45;&gt;http -->
<g id="edge47" class="edge">
<title>configuration&#45;&gt;http</title>
<path fill="none" stroke="#0600ff" stroke-width="2" d="M372.14,-454.68C372.14,-423.87 372.14,-365 372.14,-365 372.14,-365 32.4,-365 32.4,-365 32.4,-365 32.4,-280.32 32.4,-280.32"/>
<polygon fill="#0600ff" stroke="#0600ff" stroke-width="2" points="34.15,-280.32 32.4,-275.32 30.65,-280.32 34.15,-280.32"/>
</g>
<!-- configuration&#45;&gt;kubernetes -->
<g id="edge48" class="edge">
<title>configuration&#45;&gt;kubernetes</title>
<path fill="none" stroke="#0600ff" stroke-width="2" d="M438.68,-464C465.15,-464 496.67,-464 496.67,-464 496.67,-464 496.67,-424.22 496.67,-424.22"/>
<polygon fill="#0600ff" stroke="#0600ff" stroke-width="2" points="498.42,-424.22 496.67,-419.22 494.92,-424.22 498.42,-424.22"/>
</g>
<!-- configuration&#45;&gt;log -->
<g id="edge49" class="edge">
<title>configuration&#45;&gt;log</title>
<path fill="none" stroke="#0600ff" stroke-width="2" d="M410,-454.88C410,-383.69 410,-127 410,-127 410,-127 356.21,-127 356.21,-127"/>
<polygon fill="#0600ff" stroke="#0600ff" stroke-width="2" points="356.21,-125.25 351.21,-127 356.21,-128.75 356.21,-125.25"/>
</g>
<!-- configuration&#45;&gt;metrics -->
<g id="edge50" class="edge">
<title>configuration&#45;&gt;metrics</title>
<path fill="none" stroke="#0600ff" stroke-width="2" d="M376.79,-454.92C376.79,-418.77 376.79,-341 376.79,-341 376.79,-341 277.31,-341 277.31,-341"/>
<polygon fill="#0600ff" stroke="#0600ff" stroke-width="2" points="277.31,-339.25 272.31,-341 277.31,-342.75 277.31,-339.25"/>
</g>
<!-- configuration&#45;&gt;security -->
<g id="edge51" class="edge">
<title>configuration&#45;&gt;security</title>
<path fill="none" stroke="#0600ff" stroke-width="2" d="M438.51,-473C500.28,-473 621,-473 621,-473 621,-473 621,-424.17 621,-424.17"/>
<polygon fill="#0600ff" stroke="#0600ff" stroke-width="2" points="622.75,-424.17 621,-419.17 619.25,-424.17 622.75,-424.17"/>
</g>
<!-- configuration&#45;&gt;service -->
<g id="edge52" class="edge">
<title>configuration&#45;&gt;service</title>
<path fill="none" stroke="#0600ff" stroke-width="2" d="M405,-454.76C405,-392.91 405,-195 405,-195 405,-195 277.14,-195 277.14,-195"/>
<polygon fill="#0600ff" stroke="#0600ff" stroke-width="2" points="277.14,-193.25 272.14,-195 277.14,-196.75 277.14,-193.25"/>
</g>
<!-- configuration&#45;&gt;sshserver -->
<g id="edge53" class="edge">
<title>configuration&#45;&gt;sshserver</title>
<path fill="none" stroke="#0600ff" stroke-width="2" d="M420,-454.73C420,-414.94 420,-324 420,-324 420,-324 644.79,-324 644.79,-324"/>
<polygon fill="#0600ff" stroke="#0600ff" stroke-width="2" points="644.79,-325.75 649.79,-324 644.79,-322.25 644.79,-325.75"/>
</g>
<!-- configuration&#45;&gt;geoip -->
<g id="edge46" class="edge">
<title>configuration&#45;&gt;geoip</title>
<path fill="none" stroke="#0600ff" stroke-width="2" d="M381.43,-454.96C381.43,-454.96 381.43,-280.15 381.43,-280.15"/>
<polygon fill="#0600ff" stroke="#0600ff" stroke-width="2" points="383.18,-280.15 381.43,-275.15 379.68,-280.15 383.18,-280.15"/>
</g>
<!-- configuration&#45;&gt;structutils -->
<g id="edge54" class="edge">
<title>configuration&#45;&gt;structutils</title>
<path fill="none" stroke="#0600ff" stroke-width="2" d="M415,-454.95C415,-374.56 415,-53 415,-53 415,-53 358.55,-53 358.55,-53"/>
<polygon fill="#0600ff" stroke="#0600ff" stroke-width="2" points="358.55,-51.25 353.55,-53 358.55,-54.75 358.55,-51.25"/>
</g>
<!-- docker&#45;&gt;log -->
<g id="edge56" class="edge">
<title>docker&#45;&gt;log</title>
<path fill="none" stroke="#c400fc" stroke-width="2" d="M443,-382.76C443,-320.91 443,-123 443,-123 443,-123 356,-123 356,-123"/>
<polygon fill="#c400fc" stroke="#c400fc" stroke-width="2" points="356,-121.25 351,-123 356,-124.75 356,-121.25"/>
</g>
<!-- docker&#45;&gt;metrics -->
<g id="edge57" class="edge">
<title>docker&#45;&gt;metrics</title>
<path fill="none" stroke="#c400fc" stroke-width="2" d="M434,-382.78C434,-364.17 434,-338 434,-338 434,-338 277.08,-338 277.08,-338"/>
<polygon fill="#c400fc" stroke="#c400fc" stroke-width="2" points="277.08,-336.25 272.08,-338 277.08,-339.75 277.08,-336.25"/>
</g>
<!-- docker&#45;&gt;sshserver -->
<g id="edge58" class="edge">
<title>docker&#45;&gt;sshserver</title>
<path fill="none" stroke="#c400fc" stroke-width="2" d="M470,-382.71C470,-360.79 470,-327 470,-327 470,-327 644.94,-327 644.94,-327"/>
<polygon fill="#c400fc" stroke="#c400fc" stroke-width="2" points="644.94,-328.75 649.94,-327 644.94,-325.25 644.94,-328.75"/>
</g>
<!-- docker&#45;&gt;geoip -->
<g id="edge55" class="edge">
<title>docker&#45;&gt;geoip</title>
<path fill="none" stroke="#c400fc" stroke-width="2" d="M424.8,-407C406.64,-407 386.07,-407 386.07,-407 386.07,-407 386.07,-280.09 386.07,-280.09"/>
<polygon fill="#c400fc" stroke="#c400fc" stroke-width="2" points="387.82,-280.09 386.07,-275.09 384.32,-280.09 387.82,-280.09"/>
</g>
<!-- docker&#45;&gt;structutils -->
<g id="edge59" class="edge">
<title>docker&#45;&gt;structutils</title>
<path fill="none" stroke="#c400fc" stroke-width="2" d="M452,-382.52C452,-309.89 452,-48 452,-48 452,-48 358.69,-48 358.69,-48"/>
<polygon fill="#c400fc" stroke="#c400fc" stroke-width="2" points="358.69,-46.25 353.69,-48 358.69,-49.75 358.69,-46.25"/>
</g>
<!-- unixutils -->
<g id="node19" class="node">
<title>unixutils</title>
<polygon fill="black" stroke="red" stroke-width="3" points="671,-275 617,-275 617,-239 671,-239 671,-275"/>
<text text-anchor="middle" x="644" y="-254.5" font-family="Arial" font-size="10.00" fill="white">unixutils</text>
</g>
<!-- docker&#45;&gt;unixutils -->
<g id="edge60" class="edge">
<title>docker&#45;&gt;unixutils</title>
<path fill="none" stroke="#c400fc" stroke-width="2" d="M461,-382.85C461,-342.32 461,-248 461,-248 461,-248 612,-248 612,-248"/>
<polygon fill="#c400fc" stroke="#c400fc" stroke-width="2" points="612,-249.75 617,-248 612,-246.25 612,-249.75"/>
</g>
<!-- http&#45;&gt;log -->
<g id="edge61" class="edge">
<title>http&#45;&gt;log</title>
<path fill="none" stroke="#00dbfc" stroke-width="2" d="M54.2,-248C125.67,-248 313.33,-248 313.33,-248 313.33,-248 313.33,-136.21 313.33,-136.21"/>
<polygon fill="#00dbfc" stroke="#00dbfc" stroke-width="2" points="315.08,-136.21 313.33,-131.21 311.58,-136.21 315.08,-136.21"/>
</g>
<!-- http&#45;&gt;service -->
<g id="edge62" class="edge">
<title>http&#45;&gt;service</title>
<path fill="none" stroke="#00dbfc" stroke-width="2" d="M36,-238.99C36,-214.58 36,-174 36,-174 36,-174 212.68,-174 212.68,-174"/>
<polygon fill="#00dbfc" stroke="#00dbfc" stroke-width="2" points="212.68,-175.75 217.68,-174 212.68,-172.25 212.68,-175.75"/>
</g>
<!-- http&#45;&gt;structutils -->
<g id="edge63" class="edge">
<title>http&#45;&gt;structutils</title>
<path fill="none" stroke="#00dbfc" stroke-width="2" d="M18,-238.96C18,-187.04 18,-41 18,-41 18,-41 289.38,-41 289.38,-41"/>
<polygon fill="#00dbfc" stroke="#00dbfc" stroke-width="2" points="289.38,-42.75 294.38,-41 289.38,-39.25 289.38,-42.75"/>
</g>
<!-- kubernetes&#45;&gt;log -->
<g id="edge65" class="edge">
<title>kubernetes&#45;&gt;log</title>
<path fill="none" stroke="#c400fc" stroke-width="2" d="M521.36,-382.67C521.36,-319.55 521.36,-115 521.36,-115 521.36,-115 356.03,-115 356.03,-115"/>
<polygon fill="#c400fc" stroke="#c400fc" stroke-width="2" points="356.03,-113.25 351.03,-115 356.03,-116.75 356.03,-113.25"/>
</g>
<!-- kubernetes&#45;&gt;metrics -->
<g id="edge66" class="edge">
<title>kubernetes&#45;&gt;metrics</title>
<path fill="none" stroke="#c400fc" stroke-width="2" d="M502.79,-382.97C502.79,-363.42 502.79,-335 502.79,-335 502.79,-335 277.1,-335 277.1,-335"/>
<polygon fill="#c400fc" stroke="#c400fc" stroke-width="2" points="277.1,-333.25 272.1,-335 277.1,-336.75 277.1,-333.25"/>
</g>
<!-- kubernetes&#45;&gt;sshserver -->
<g id="edge67" class="edge">
<title>kubernetes&#45;&gt;sshserver</title>
<path fill="none" stroke="#c400fc" stroke-width="2" d="M549.21,-382.78C549.21,-362.63 549.21,-333 549.21,-333 549.21,-333 644.87,-333 644.87,-333"/>
<polygon fill="#c400fc" stroke="#c400fc" stroke-width="2" points="644.87,-334.75 649.87,-333 644.87,-331.25 644.87,-334.75"/>
</g>
<!-- kubernetes&#45;&gt;geoip -->
<g id="edge64" class="edge">
<title>kubernetes&#45;&gt;geoip</title>
<path fill="none" stroke="#c400fc" stroke-width="2" d="M512.07,-382.79C512.07,-345.94 512.07,-266 512.07,-266 512.07,-266 405.14,-266 405.14,-266"/>
<polygon fill="#c400fc" stroke="#c400fc" stroke-width="2" points="405.14,-264.25 400.14,-266 405.14,-267.75 405.14,-264.25"/>
</g>
<!-- kubernetes&#45;&gt;structutils -->
<g id="edge68" class="edge">
<title>kubernetes&#45;&gt;structutils</title>
<path fill="none" stroke="#c400fc" stroke-width="2" d="M530.64,-383C530.64,-309.75 530.64,-38 530.64,-38 530.64,-38 358.61,-38 358.61,-38"/>
<polygon fill="#c400fc" stroke="#c400fc" stroke-width="2" points="358.61,-36.25 353.61,-38 358.61,-39.75 358.61,-36.25"/>
</g>
<!-- kubernetes&#45;&gt;unixutils -->
<g id="edge69" class="edge">
<title>kubernetes&#45;&gt;unixutils</title>
<path fill="none" stroke="#c400fc" stroke-width="2" d="M539.93,-382.76C539.93,-344.01 539.93,-257 539.93,-257 539.93,-257 611.93,-257 611.93,-257"/>
<polygon fill="#c400fc" stroke="#c400fc" stroke-width="2" points="611.93,-258.75 616.93,-257 611.93,-255.25 611.93,-258.75"/>
</g>
<!-- log&#45;&gt;structutils -->
<g id="edge70" class="edge">
<title>log&#45;&gt;structutils</title>
<path fill="none" stroke="#00c900" stroke-width="2" d="M324,-94.83C324,-94.83 324,-64.41 324,-64.41"/>
<polygon fill="#00c900" stroke="#00c900" stroke-width="2" points="325.75,-64.41 324,-59.41 322.25,-64.41 325.75,-64.41"/>
</g>
<!-- metrics&#45;&gt;http -->
<g id="edge72" class="edge">
<title>metrics&#45;&gt;http</title>
<path fill="none" stroke="#fce700" stroke-width="2" d="M217.78,-329C162.7,-329 43.2,-329 43.2,-329 43.2,-329 43.2,-280.17 43.2,-280.17"/>
<polygon fill="#fce700" stroke="#fce700" stroke-width="2" points="44.95,-280.17 43.2,-275.17 41.45,-280.17 44.95,-280.17"/>
</g>
<!-- metrics&#45;&gt;log -->
<g id="edge73" class="edge">
<title>metrics&#45;&gt;log</title>
<path fill="none" stroke="#fce700" stroke-width="2" d="M272.19,-313C294.17,-313 321.5,-313 321.5,-313 321.5,-313 321.5,-136.1 321.5,-136.1"/>
<polygon fill="#fce700" stroke="#fce700" stroke-width="2" points="323.25,-136.1 321.5,-131.1 319.75,-136.1 323.25,-136.1"/>
</g>
<!-- metrics&#45;&gt;service -->
<g id="edge74" class="edge">
<title>metrics&#45;&gt;service</title>
<path fill="none" stroke="#fce700" stroke-width="2" d="M245,-310.76C245,-310.76 245,-208.09 245,-208.09"/>
<polygon fill="#fce700" stroke="#fce700" stroke-width="2" points="246.75,-208.09 245,-203.09 243.25,-208.09 246.75,-208.09"/>
</g>
<!-- metrics&#45;&gt;geoip -->
<g id="edge71" class="edge">
<title>metrics&#45;&gt;geoip</title>
<path fill="none" stroke="#fce700" stroke-width="2" d="M272.02,-316C304.38,-316 354.3,-316 354.3,-316 354.3,-316 354.3,-280.02 354.3,-280.02"/>
<polygon fill="#fce700" stroke="#fce700" stroke-width="2" points="356.05,-280.02 354.3,-275.02 352.55,-280.02 356.05,-280.02"/>
</g>
<!-- metrics&#45;&gt;structutils -->
<g id="edge75" class="edge">
<title>metrics&#45;&gt;structutils</title>
<path fill="none" stroke="#fce700" stroke-width="2" d="M272.39,-344C278.52,-344 283.25,-344 283.25,-344 283.25,-344 283.25,-32 283.25,-32 283.25,-32 289.39,-32 289.39,-32"/>
<polygon fill="#fce700" stroke="#fce700" stroke-width="2" points="289.39,-33.75 294.39,-32 289.39,-30.25 289.39,-33.75"/>
</g>
<!-- metricsintegration&#45;&gt;metrics -->
<g id="edge77" class="edge">
<title>metricsintegration&#45;&gt;metrics</title>
<path fill="none" stroke="#c400fc" stroke-width="2" d="M264.5,-382.83C264.5,-382.83 264.5,-352.41 264.5,-352.41"/>
<polygon fill="#c400fc" stroke="#c400fc" stroke-width="2" points="266.25,-352.41 264.5,-347.41 262.75,-352.41 266.25,-352.41"/>
</g>
<!-- metricsintegration&#45;&gt;sshserver -->
<g id="edge78" class="edge">
<title>metricsintegration&#45;&gt;sshserver</title>
<path fill="none" stroke="#c400fc" stroke-width="2" d="M337.83,-382.68C337.83,-359.34 337.83,-322 337.83,-322 337.83,-322 644.91,-322 644.91,-322"/>
<polygon fill="#c400fc" stroke="#c400fc" stroke-width="2" points="644.91,-323.75 649.91,-322 644.91,-320.25 644.91,-323.75"/>
</g>
<!-- metricsintegration&#45;&gt;geoip -->
<g id="edge76" class="edge">
<title>metricsintegration&#45;&gt;geoip</title>
<path fill="none" stroke="#c400fc" stroke-width="2" d="M351.03,-395C355.04,-395 357.6,-395 357.6,-395 357.6,-395 357.6,-280.04 357.6,-280.04"/>
<polygon fill="#c400fc" stroke="#c400fc" stroke-width="2" points="359.35,-280.04 357.6,-275.04 355.85,-280.04 359.35,-280.04"/>
</g>
<!-- security&#45;&gt;log -->
<g id="edge79" class="edge">
<title>security&#45;&gt;log</title>
<path fill="none" stroke="#c400fc" stroke-width="2" d="M610,-382.61C610,-318.25 610,-107 610,-107 610,-107 356.16,-107 356.16,-107"/>
<polygon fill="#c400fc" stroke="#c400fc" stroke-width="2" points="356.16,-105.25 351.16,-107 356.16,-108.75 356.16,-105.25"/>
</g>
<!-- security&#45;&gt;sshserver -->
<g id="edge80" class="edge">
<title>security&#45;&gt;sshserver</title>
<path fill="none" stroke="#c400fc" stroke-width="2" d="M654.67,-382.83C654.67,-382.83 654.67,-352.41 654.67,-352.41"/>
<polygon fill="#c400fc" stroke="#c400fc" stroke-width="2" points="656.42,-352.41 654.67,-347.41 652.92,-352.41 656.42,-352.41"/>
</g>
<!-- service&#45;&gt;log -->
<g id="edge81" class="edge">
<title>service&#45;&gt;log</title>
<path fill="none" stroke="#ff0000" stroke-width="2" d="M272.27,-174C288.19,-174 305.17,-174 305.17,-174 305.17,-174 305.17,-136.3 305.17,-136.3"/>
<polygon fill="#ff0000" stroke="#ff0000" stroke-width="2" points="306.92,-136.3 305.17,-131.3 303.42,-136.3 306.92,-136.3"/>
</g>
<!-- sshserver&#45;&gt;log -->
<g id="edge82" class="edge">
<title>sshserver&#45;&gt;log</title>
<path fill="none" stroke="#fce700" stroke-width="2" d="M649.82,-319C565.86,-319 329.67,-319 329.67,-319 329.67,-319 329.67,-136.28 329.67,-136.28"/>
<polygon fill="#fce700" stroke="#fce700" stroke-width="2" points="331.42,-136.28 329.67,-131.28 327.92,-136.28 331.42,-136.28"/>
</g>
<!-- sshserver&#45;&gt;service -->
<g id="edge83" class="edge">
<title>sshserver&#45;&gt;service</title>
<path fill="none" stroke="#fce700" stroke-width="2" d="M683.33,-310.85C683.33,-271.33 683.33,-181 683.33,-181 683.33,-181 277.09,-181 277.09,-181"/>
<polygon fill="#fce700" stroke="#fce700" stroke-width="2" points="277.09,-179.25 272.09,-181 277.09,-182.75 277.09,-179.25"/>
</g>
<!-- sshserver&#45;&gt;structutils -->
<g id="edge84" class="edge">
<title>sshserver&#45;&gt;structutils</title>
<path fill="none" stroke="#fce700" stroke-width="2" d="M695.67,-310.62C695.67,-245.27 695.67,-28 695.67,-28 695.67,-28 358.79,-28 358.79,-28"/>
<polygon fill="#fce700" stroke="#fce700" stroke-width="2" points="358.79,-26.25 353.79,-28 358.79,-29.75 358.79,-26.25"/>
</g>
<!-- sshserver&#45;&gt;unixutils -->
<g id="edge85" class="edge">
<title>sshserver&#45;&gt;unixutils</title>
<path fill="none" stroke="#fce700" stroke-width="2" d="M660.5,-310.83C660.5,-310.83 660.5,-280.41 660.5,-280.41"/>
<polygon fill="#fce700" stroke="#fce700" stroke-width="2" points="662.25,-280.41 660.5,-275.41 658.75,-280.41 662.25,-280.41"/>
</g>
</g>
</svg>
