<?xml version="1.0" encoding="UTF-8" standalone="no"?>
<!DOCTYPE svg PUBLIC "-//W3C//DTD SVG 1.1//EN"
 "http://www.w3.org/Graphics/SVG/1.1/DTD/svg11.dtd">
<!-- Generated by graphviz version 2.46.1 (20210213.1702)
 -->
<!-- Title: ContainerSSH Pages: 1 -->
<svg width="925pt" height="620pt"
 viewBox="0.00 0.00 924.50 620.00" xmlns="http://www.w3.org/2000/svg" xmlns:xlink="http://www.w3.org/1999/xlink">
<g id="graph0" class="graph" transform="scale(1 1) rotate(0) translate(4 616)">
<title>ContainerSSH</title>
<polygon fill="white" stroke="transparent" points="-4,4 -4,-616 920.5,-616 920.5,4 -4,4"/>
<!-- ContainerSSH -->
<g id="node1" class="node">
<title>ContainerSSH</title>
<polygon fill="black" stroke="red" stroke-width="3" points="503,-612 425,-612 425,-576 503,-576 503,-612"/>
<text text-anchor="middle" x="464" y="-591.5" font-family="Arial" font-size="10.00" fill="white">ContainerSSH</text>
</g>
<!-- auditlog -->
<g id="node2" class="node">
<title>auditlog</title>
<polygon fill="black" stroke="red" stroke-width="3" points="840,-324 786,-324 786,-288 840,-288 840,-324"/>
<text text-anchor="middle" x="813" y="-303.5" font-family="Arial" font-size="10.00" fill="white">auditlog</text>
</g>
<!-- ContainerSSH&#45;&gt;auditlog -->
<g id="edge1" class="edge">
<title>ContainerSSH&#45;&gt;auditlog</title>
<path fill="none" stroke="#00c900" stroke-width="2" d="M503.32,-600C593.91,-600 809.67,-600 809.67,-600 809.67,-600 809.67,-329.39 809.67,-329.39"/>
<polygon fill="#00c900" stroke="#00c900" stroke-width="2" points="811.42,-329.39 809.67,-324.39 807.92,-329.39 811.42,-329.39"/>
</g>
<!-- auditlogintegration -->
<g id="node3" class="node">
<title>auditlogintegration</title>
<polygon fill="black" stroke="red" stroke-width="3" points="916.5,-396 821.5,-396 821.5,-360 916.5,-360 916.5,-396"/>
<text text-anchor="middle" x="869" y="-375.5" font-family="Arial" font-size="10.00" fill="white">auditlogintegration</text>
</g>
<!-- ContainerSSH&#45;&gt;auditlogintegration -->
<g id="edge2" class="edge">
<title>ContainerSSH&#45;&gt;auditlogintegration</title>
<path fill="none" stroke="#00c900" stroke-width="2" d="M503.2,-606C604.84,-606 869,-606 869,-606 869,-606 869,-401.27 869,-401.27"/>
<polygon fill="#00c900" stroke="#00c900" stroke-width="2" points="870.75,-401.27 869,-396.27 867.25,-401.27 870.75,-401.27"/>
</g>
<!-- auth -->
<g id="node4" class="node">
<title>auth</title>
<polygon fill="black" stroke="red" stroke-width="3" points="123,-396 69,-396 69,-360 123,-360 123,-396"/>
<text text-anchor="middle" x="96" y="-375.5" font-family="Arial" font-size="10.00" fill="white">auth</text>
</g>
<!-- ContainerSSH&#45;&gt;auth -->
<g id="edge3" class="edge">
<title>ContainerSSH&#45;&gt;auth</title>
<path fill="none" stroke="#00c900" stroke-width="2" d="M424.72,-603C328.16,-603 87,-603 87,-603 87,-603 87,-401.03 87,-401.03"/>
<polygon fill="#00c900" stroke="#00c900" stroke-width="2" points="88.75,-401.03 87,-396.03 85.25,-401.03 88.75,-401.03"/>
</g>
<!-- authintegration -->
<g id="node5" class="node">
<title>authintegration</title>
<polygon fill="black" stroke="red" stroke-width="3" points="240,-468 160,-468 160,-432 240,-432 240,-468"/>
<text text-anchor="middle" x="200" y="-447.5" font-family="Arial" font-size="10.00" fill="white">authintegration</text>
</g>
<!-- ContainerSSH&#45;&gt;authintegration -->
<g id="edge4" class="edge">
<title>ContainerSSH&#45;&gt;authintegration</title>
<path fill="none" stroke="#00c900" stroke-width="2" d="M424.76,-594C351.22,-594 200,-594 200,-594 200,-594 200,-473.24 200,-473.24"/>
<polygon fill="#00c900" stroke="#00c900" stroke-width="2" points="201.75,-473.24 200,-468.24 198.25,-473.24 201.75,-473.24"/>
</g>
<!-- backend -->
<g id="node6" class="node">
<title>backend</title>
<polygon fill="black" stroke="red" stroke-width="3" points="491,-540 437,-540 437,-504 491,-504 491,-540"/>
<text text-anchor="middle" x="464" y="-519.5" font-family="Arial" font-size="10.00" fill="white">backend</text>
</g>
<!-- ContainerSSH&#45;&gt;backend -->
<g id="edge5" class="edge">
<title>ContainerSSH&#45;&gt;backend</title>
<path fill="none" stroke="#00c900" stroke-width="2" d="M464,-575.83C464,-575.83 464,-545.41 464,-545.41"/>
<polygon fill="#00c900" stroke="#00c900" stroke-width="2" points="465.75,-545.41 464,-540.41 462.25,-545.41 465.75,-545.41"/>
</g>
<!-- configuration -->
<g id="node7" class="node">
<title>configuration</title>
<polygon fill="black" stroke="red" stroke-width="3" points="438.5,-468 367.5,-468 367.5,-432 438.5,-432 438.5,-468"/>
<text text-anchor="middle" x="403" y="-447.5" font-family="Arial" font-size="10.00" fill="white">configuration</text>
</g>
<!-- ContainerSSH&#45;&gt;configuration -->
<g id="edge6" class="edge">
<title>ContainerSSH&#45;&gt;configuration</title>
<path fill="none" stroke="#00c900" stroke-width="2" d="M429,-575.76C429,-575.76 429,-473.09 429,-473.09"/>
<polygon fill="#00c900" stroke="#00c900" stroke-width="2" points="430.75,-473.09 429,-468.09 427.25,-473.09 430.75,-473.09"/>
</g>
<!-- http -->
<g id="node9" class="node">
<title>http</title>
<polygon fill="black" stroke="red" stroke-width="3" points="54,-252 0,-252 0,-216 54,-216 54,-252"/>
<text text-anchor="middle" x="27" y="-231.5" font-family="Arial" font-size="10.00" fill="white">http</text>
</g>
<!-- ContainerSSH&#45;&gt;http -->
<g id="edge8" class="edge">
<title>ContainerSSH&#45;&gt;http</title>
<path fill="none" stroke="#00c900" stroke-width="2" d="M424.97,-607C315.04,-607 10.8,-607 10.8,-607 10.8,-607 10.8,-257.24 10.8,-257.24"/>
<polygon fill="#00c900" stroke="#00c900" stroke-width="2" points="12.55,-257.24 10.8,-252.24 9.05,-257.24 12.55,-257.24"/>
</g>
<!-- log -->
<g id="node11" class="node">
<title>log</title>
<polygon fill="black" stroke="red" stroke-width="3" points="351,-108 297,-108 297,-72 351,-72 351,-108"/>
<text text-anchor="middle" x="324" y="-87.5" font-family="Arial" font-size="10.00" fill="white">log</text>
</g>
<!-- ContainerSSH&#45;&gt;log -->
<g id="edge9" class="edge">
<title>ContainerSSH&#45;&gt;log</title>
<path fill="none" stroke="#00c900" stroke-width="2" d="M503.16,-582C534.54,-582 573.33,-582 573.33,-582 573.33,-582 573.33,-88 573.33,-88 573.33,-88 356.16,-88 356.16,-88"/>
<polygon fill="#00c900" stroke="#00c900" stroke-width="2" points="356.16,-86.25 351.16,-88 356.16,-89.75 356.16,-86.25"/>
</g>
<!-- metrics -->
<g id="node12" class="node">
<title>metrics</title>
<polygon fill="black" stroke="red" stroke-width="3" points="272,-324 218,-324 218,-288 272,-288 272,-324"/>
<text text-anchor="middle" x="245" y="-303.5" font-family="Arial" font-size="10.00" fill="white">metrics</text>
</g>
<!-- ContainerSSH&#45;&gt;metrics -->
<g id="edge10" class="edge">
<title>ContainerSSH&#45;&gt;metrics</title>
<path fill="none" stroke="#00c900" stroke-width="2" d="M424.97,-589C361.82,-589 244.25,-589 244.25,-589 244.25,-589 244.25,-329.13 244.25,-329.13"/>
<polygon fill="#00c900" stroke="#00c900" stroke-width="2" points="246,-329.13 244.25,-324.13 242.5,-329.13 246,-329.13"/>
</g>
<!-- metricsintegration -->
<g id="node13" class="node">
<title>metricsintegration</title>
<polygon fill="black" stroke="red" stroke-width="3" points="351,-396 257,-396 257,-360 351,-360 351,-396"/>
<text text-anchor="middle" x="304" y="-375.5" font-family="Arial" font-size="10.00" fill="white">metricsintegration</text>
</g>
<!-- ContainerSSH&#45;&gt;metricsintegration -->
<g id="edge11" class="edge">
<title>ContainerSSH&#45;&gt;metricsintegration</title>
<path fill="none" stroke="#00c900" stroke-width="2" d="M424.86,-585C377.49,-585 304,-585 304,-585 304,-585 304,-401.01 304,-401.01"/>
<polygon fill="#00c900" stroke="#00c900" stroke-width="2" points="305.75,-401.01 304,-396.01 302.25,-401.01 305.75,-401.01"/>
</g>
<!-- service -->
<g id="node15" class="node">
<title>service</title>
<polygon fill="black" stroke="red" stroke-width="3" points="272,-180 218,-180 218,-144 272,-144 272,-180"/>
<text text-anchor="middle" x="245" y="-159.5" font-family="Arial" font-size="10.00" fill="white">service</text>
</g>
<!-- ContainerSSH&#45;&gt;service -->
<g id="edge12" class="edge">
<title>ContainerSSH&#45;&gt;service</title>
<path fill="none" stroke="#00c900" stroke-width="2" d="M424.78,-598C338.83,-598 141.5,-598 141.5,-598 141.5,-598 141.5,-172 141.5,-172 141.5,-172 212.81,-172 212.81,-172"/>
<polygon fill="#00c900" stroke="#00c900" stroke-width="2" points="212.81,-173.75 217.81,-172 212.81,-170.25 212.81,-173.75"/>
</g>
<!-- sshserver -->
<g id="node16" class="node">
<title>sshserver</title>
<polygon fill="black" stroke="red" stroke-width="3" points="708,-324 650,-324 650,-288 708,-288 708,-324"/>
<text text-anchor="middle" x="679" y="-303.5" font-family="Arial" font-size="10.00" fill="white">sshserver</text>
</g>
<!-- ContainerSSH&#45;&gt;sshserver -->
<g id="edge13" class="edge">
<title>ContainerSSH&#45;&gt;sshserver</title>
<path fill="none" stroke="#00c900" stroke-width="2" d="M503.01,-594C563.74,-594 674,-594 674,-594 674,-594 674,-329.02 674,-329.02"/>
<polygon fill="#00c900" stroke="#00c900" stroke-width="2" points="675.75,-329.02 674,-324.02 672.25,-329.02 675.75,-329.02"/>
</g>
<!-- geoip -->
<g id="node17" class="node">
<title>geoip</title>
<polygon fill="black" stroke="red" stroke-width="3" points="400,-252 346,-252 346,-216 400,-216 400,-252"/>
<text text-anchor="middle" x="373" y="-231.5" font-family="Arial" font-size="10.00" fill="white">geoip</text>
</g>
<!-- ContainerSSH&#45;&gt;geoip -->
<g id="edge7" class="edge">
<title>ContainerSSH&#45;&gt;geoip</title>
<path fill="none" stroke="#00c900" stroke-width="2" d="M424.73,-580C395.59,-580 360.9,-580 360.9,-580 360.9,-580 360.9,-257.12 360.9,-257.12"/>
<polygon fill="#00c900" stroke="#00c900" stroke-width="2" points="362.65,-257.12 360.9,-252.12 359.15,-257.12 362.65,-257.12"/>
</g>
<!-- structutils -->
<g id="node18" class="node">
<title>structutils</title>
<polygon fill="black" stroke="red" stroke-width="3" points="353.5,-36 294.5,-36 294.5,0 353.5,0 353.5,-36"/>
<text text-anchor="middle" x="324" y="-15.5" font-family="Arial" font-size="10.00" fill="white">structutils</text>
</g>
<!-- ContainerSSH&#45;&gt;structutils -->
<g id="edge14" class="edge">
<title>ContainerSSH&#45;&gt;structutils</title>
<path fill="none" stroke="#00c900" stroke-width="2" d="M503.29,-588C539.66,-588 588.17,-588 588.17,-588 588.17,-588 588.17,-10 588.17,-10 588.17,-10 358.53,-10 358.53,-10"/>
<polygon fill="#00c900" stroke="#00c900" stroke-width="2" points="358.53,-8.25 353.53,-10 358.53,-11.75 358.53,-8.25"/>
</g>
<!-- auditlog&#45;&gt;log -->
<g id="edge16" class="edge">
<title>auditlog&#45;&gt;log</title>
<path fill="none" stroke="#fce700" stroke-width="2" d="M822,-287.89C822,-234.26 822,-80 822,-80 822,-80 356.13,-80 356.13,-80"/>
<polygon fill="#fce700" stroke="#fce700" stroke-width="2" points="356.13,-78.25 351.13,-80 356.13,-81.75 356.13,-78.25"/>
</g>
<!-- auditlog&#45;&gt;geoip -->
<g id="edge15" class="edge">
<title>auditlog&#45;&gt;geoip</title>
<path fill="none" stroke="#fce700" stroke-width="2" d="M804,-287.58C804,-278.72 804,-270 804,-270 804,-270 395.36,-270 395.36,-270 395.36,-270 395.36,-257.42 395.36,-257.42"/>
<polygon fill="#fce700" stroke="#fce700" stroke-width="2" points="397.11,-257.42 395.36,-252.42 393.61,-257.42 397.11,-257.42"/>
</g>
<!-- auditlogintegration&#45;&gt;auditlog -->
<g id="edge17" class="edge">
<title>auditlogintegration&#45;&gt;auditlog</title>
<path fill="none" stroke="#c400fc" stroke-width="2" d="M833.83,-359.83C833.83,-359.83 833.83,-329.41 833.83,-329.41"/>
<polygon fill="#c400fc" stroke="#c400fc" stroke-width="2" points="835.58,-329.41 833.83,-324.41 832.08,-329.41 835.58,-329.41"/>
</g>
<!-- auditlogintegration&#45;&gt;log -->
<g id="edge19" class="edge">
<title>auditlogintegration&#45;&gt;log</title>
<path fill="none" stroke="#c400fc" stroke-width="2" d="M878.25,-359.56C878.25,-293.99 878.25,-76 878.25,-76 878.25,-76 356.11,-76 356.11,-76"/>
<polygon fill="#c400fc" stroke="#c400fc" stroke-width="2" points="356.11,-74.25 351.11,-76 356.11,-77.75 356.11,-74.25"/>
</g>
<!-- auditlogintegration&#45;&gt;sshserver -->
<g id="edge20" class="edge">
<title>auditlogintegration&#45;&gt;sshserver</title>
<path fill="none" stroke="#c400fc" stroke-width="2" d="M821.3,-378C768.57,-378 691,-378 691,-378 691,-378 691,-329.17 691,-329.17"/>
<polygon fill="#c400fc" stroke="#c400fc" stroke-width="2" points="692.75,-329.17 691,-324.17 689.25,-329.17 692.75,-329.17"/>
</g>
<!-- auditlogintegration&#45;&gt;geoip -->
<g id="edge18" class="edge">
<title>auditlogintegration&#45;&gt;geoip</title>
<path fill="none" stroke="#c400fc" stroke-width="2" d="M827.67,-359.96C827.67,-347.44 827.67,-333 827.67,-333 827.67,-333 390.71,-333 390.71,-333 390.71,-333 390.71,-257.16 390.71,-257.16"/>
<polygon fill="#c400fc" stroke="#c400fc" stroke-width="2" points="392.46,-257.16 390.71,-252.16 388.96,-257.16 392.46,-257.16"/>
</g>
<!-- auth&#45;&gt;http -->
<g id="edge22" class="edge">
<title>auth&#45;&gt;http</title>
<path fill="none" stroke="#c400fc" stroke-width="2" d="M79.8,-359.76C79.8,-321.01 79.8,-234 79.8,-234 79.8,-234 59.02,-234 59.02,-234"/>
<polygon fill="#c400fc" stroke="#c400fc" stroke-width="2" points="59.02,-232.25 54.02,-234 59.02,-235.75 59.02,-232.25"/>
</g>
<!-- auth&#45;&gt;log -->
<g id="edge23" class="edge">
<title>auth&#45;&gt;log</title>
<path fill="none" stroke="#c400fc" stroke-width="2" d="M90.6,-359.61C90.6,-295.25 90.6,-84 90.6,-84 90.6,-84 291.77,-84 291.77,-84"/>
<polygon fill="#c400fc" stroke="#c400fc" stroke-width="2" points="291.77,-85.75 296.77,-84 291.77,-82.25 291.77,-85.75"/>
</g>
<!-- auth&#45;&gt;metrics -->
<g id="edge24" class="edge">
<title>auth&#45;&gt;metrics</title>
<path fill="none" stroke="#c400fc" stroke-width="2" d="M123.04,-372C160.47,-372 223.5,-372 223.5,-372 223.5,-372 223.5,-329.03 223.5,-329.03"/>
<polygon fill="#c400fc" stroke="#c400fc" stroke-width="2" points="225.25,-329.03 223.5,-324.03 221.75,-329.03 225.25,-329.03"/>
</g>
<!-- auth&#45;&gt;service -->
<g id="edge25" class="edge">
<title>auth&#45;&gt;service</title>
<path fill="none" stroke="#c400fc" stroke-width="2" d="M101.4,-360C101.4,-307.45 101.4,-158 101.4,-158 101.4,-158 212.99,-158 212.99,-158"/>
<polygon fill="#c400fc" stroke="#c400fc" stroke-width="2" points="212.99,-159.75 217.99,-158 212.99,-156.25 212.99,-159.75"/>
</g>
<!-- auth&#45;&gt;geoip -->
<g id="edge21" class="edge">
<title>auth&#45;&gt;geoip</title>
<path fill="none" stroke="#c400fc" stroke-width="2" d="M112.2,-359.79C112.2,-322.94 112.2,-243 112.2,-243 112.2,-243 340.58,-243 340.58,-243"/>
<polygon fill="#c400fc" stroke="#c400fc" stroke-width="2" points="340.58,-244.75 345.58,-243 340.58,-241.25 340.58,-244.75"/>
</g>
<!-- authintegration&#45;&gt;auth -->
<g id="edge26" class="edge">
<title>authintegration&#45;&gt;auth</title>
<path fill="none" stroke="#0600ff" stroke-width="2" d="M159.99,-444C134.02,-444 105,-444 105,-444 105,-444 105,-401.03 105,-401.03"/>
<polygon fill="#0600ff" stroke="#0600ff" stroke-width="2" points="106.75,-401.03 105,-396.03 103.25,-401.03 106.75,-401.03"/>
</g>
<!-- authintegration&#45;&gt;http -->
<g id="edge27" class="edge">
<title>authintegration&#45;&gt;http</title>
<path fill="none" stroke="#0600ff" stroke-width="2" d="M159.96,-456C107.37,-456 21.6,-456 21.6,-456 21.6,-456 21.6,-257.17 21.6,-257.17"/>
<polygon fill="#0600ff" stroke="#0600ff" stroke-width="2" points="23.35,-257.17 21.6,-252.17 19.85,-257.17 23.35,-257.17"/>
</g>
<!-- authintegration&#45;&gt;log -->
<g id="edge28" class="edge">
<title>authintegration&#45;&gt;log</title>
<path fill="none" stroke="#0600ff" stroke-width="2" d="M189,-431.96C189,-359.82 189,-96 189,-96 189,-96 291.68,-96 291.68,-96"/>
<polygon fill="#0600ff" stroke="#0600ff" stroke-width="2" points="291.68,-97.75 296.68,-96 291.68,-94.25 291.68,-97.75"/>
</g>
<!-- authintegration&#45;&gt;metrics -->
<g id="edge32" class="edge">
<title>authintegration&#45;&gt;metrics</title>
<path fill="none" stroke="#0600ff" stroke-width="2" d="M229,-431.76C229,-431.76 229,-329.09 229,-329.09"/>
<polygon fill="#0600ff" stroke="#0600ff" stroke-width="2" points="230.75,-329.09 229,-324.09 227.25,-329.09 230.75,-329.09"/>
</g>
<!-- authintegration&#45;&gt;service -->
<g id="edge29" class="edge">
<title>authintegration&#45;&gt;service</title>
<path fill="none" stroke="#0600ff" stroke-width="2" d="M203.5,-431.74C203.5,-368.84 203.5,-165 203.5,-165 203.5,-165 212.55,-165 212.55,-165"/>
<polygon fill="#0600ff" stroke="#0600ff" stroke-width="2" points="212.55,-166.75 217.55,-165 212.55,-163.25 212.55,-166.75"/>
</g>
<!-- authintegration&#45;&gt;sshserver -->
<g id="edge30" class="edge">
<title>authintegration&#45;&gt;sshserver</title>
<path fill="none" stroke="#0600ff" stroke-width="2" d="M234.5,-431.84C234.5,-403.26 234.5,-351 234.5,-351 234.5,-351 652.33,-351 652.33,-351 652.33,-351 652.33,-329.04 652.33,-329.04"/>
<polygon fill="#0600ff" stroke="#0600ff" stroke-width="2" points="654.08,-329.04 652.33,-324.04 650.58,-329.04 654.08,-329.04"/>
</g>
<!-- authintegration&#45;&gt;structutils -->
<g id="edge31" class="edge">
<title>authintegration&#45;&gt;structutils</title>
<path fill="none" stroke="#0600ff" stroke-width="2" d="M174.5,-431.82C174.5,-350.86 174.5,-27 174.5,-27 174.5,-27 289.46,-27 289.46,-27"/>
<polygon fill="#0600ff" stroke="#0600ff" stroke-width="2" points="289.46,-28.75 294.46,-27 289.46,-25.25 289.46,-28.75"/>
</g>
<!-- backend&#45;&gt;configuration -->
<g id="edge33" class="edge">
<title>backend&#45;&gt;configuration</title>
<path fill="none" stroke="#fc8300" stroke-width="2" d="M436.8,-513C434.48,-513 433,-513 433,-513 433,-513 433,-473.22 433,-473.22"/>
<polygon fill="#fc8300" stroke="#fc8300" stroke-width="2" points="434.75,-473.22 433,-468.22 431.25,-473.22 434.75,-473.22"/>
</g>
<!-- docker -->
<g id="node8" class="node">
<title>docker</title>
<polygon fill="black" stroke="red" stroke-width="3" points="479,-396 425,-396 425,-360 479,-360 479,-396"/>
<text text-anchor="middle" x="452" y="-375.5" font-family="Arial" font-size="10.00" fill="white">docker</text>
</g>
<!-- backend&#45;&gt;docker -->
<g id="edge34" class="edge">
<title>backend&#45;&gt;docker</title>
<path fill="none" stroke="#fc8300" stroke-width="2" d="M458.75,-503.76C458.75,-503.76 458.75,-401.09 458.75,-401.09"/>
<polygon fill="#fc8300" stroke="#fc8300" stroke-width="2" points="460.5,-401.09 458.75,-396.09 457,-401.09 460.5,-401.09"/>
</g>
<!-- kubernetes -->
<g id="node10" class="node">
<title>kubernetes</title>
<polygon fill="black" stroke="red" stroke-width="3" points="558.5,-396 493.5,-396 493.5,-360 558.5,-360 558.5,-396"/>
<text text-anchor="middle" x="526" y="-375.5" font-family="Arial" font-size="10.00" fill="white">kubernetes</text>
</g>
<!-- backend&#45;&gt;kubernetes -->
<g id="edge36" class="edge">
<title>backend&#45;&gt;kubernetes</title>
<path fill="none" stroke="#fc8300" stroke-width="2" d="M491.16,-516C496.16,-516 499.83,-516 499.83,-516 499.83,-516 499.83,-401.04 499.83,-401.04"/>
<polygon fill="#fc8300" stroke="#fc8300" stroke-width="2" points="501.58,-401.04 499.83,-396.04 498.08,-401.04 501.58,-401.04"/>
</g>
<!-- backend&#45;&gt;log -->
<g id="edge37" class="edge">
<title>backend&#45;&gt;log</title>
<path fill="none" stroke="#fc8300" stroke-width="2" d="M483.8,-503.97C483.8,-422.88 483.8,-96 483.8,-96 483.8,-96 356.11,-96 356.11,-96"/>
<polygon fill="#fc8300" stroke="#fc8300" stroke-width="2" points="356.11,-94.25 351.11,-96 356.11,-97.75 356.11,-94.25"/>
</g>
<!-- backend&#45;&gt;metrics -->
<g id="edge38" class="edge">
<title>backend&#45;&gt;metrics</title>
<path fill="none" stroke="#fc8300" stroke-width="2" d="M436.82,-531C379.76,-531 252.75,-531 252.75,-531 252.75,-531 252.75,-329.03 252.75,-329.03"/>
<polygon fill="#fc8300" stroke="#fc8300" stroke-width="2" points="254.5,-329.03 252.75,-324.03 251,-329.03 254.5,-329.03"/>
</g>
<!-- security -->
<g id="node14" class="node">
<title>security</title>
<polygon fill="black" stroke="red" stroke-width="3" points="657,-396 603,-396 603,-360 657,-360 657,-396"/>
<text text-anchor="middle" x="630" y="-375.5" font-family="Arial" font-size="10.00" fill="white">security</text>
</g>
<!-- backend&#45;&gt;security -->
<g id="edge39" class="edge">
<title>backend&#45;&gt;security</title>
<path fill="none" stroke="#fc8300" stroke-width="2" d="M491.34,-528C540.56,-528 639,-528 639,-528 639,-528 639,-401.09 639,-401.09"/>
<polygon fill="#fc8300" stroke="#fc8300" stroke-width="2" points="640.75,-401.09 639,-396.09 637.25,-401.09 640.75,-401.09"/>
</g>
<!-- backend&#45;&gt;service -->
<g id="edge40" class="edge">
<title>backend&#45;&gt;service</title>
<path fill="none" stroke="#fc8300" stroke-width="2" d="M481.4,-503.81C481.4,-431.06 481.4,-165 481.4,-165 481.4,-165 277.12,-165 277.12,-165"/>
<polygon fill="#fc8300" stroke="#fc8300" stroke-width="2" points="277.12,-163.25 272.12,-165 277.12,-166.75 277.12,-163.25"/>
</g>
<!-- backend&#45;&gt;sshserver -->
<g id="edge41" class="edge">
<title>backend&#45;&gt;sshserver</title>
<path fill="none" stroke="#fc8300" stroke-width="2" d="M488.6,-503.67C488.6,-451.68 488.6,-307 488.6,-307 488.6,-307 644.67,-307 644.67,-307"/>
<polygon fill="#fc8300" stroke="#fc8300" stroke-width="2" points="644.67,-308.75 649.67,-307 644.67,-305.25 644.67,-308.75"/>
</g>
<!-- backend&#45;&gt;geoip -->
<g id="edge35" class="edge">
<title>backend&#45;&gt;geoip</title>
<path fill="none" stroke="#fc8300" stroke-width="2" d="M436.99,-522C407.44,-522 364.2,-522 364.2,-522 364.2,-522 364.2,-257.02 364.2,-257.02"/>
<polygon fill="#fc8300" stroke="#fc8300" stroke-width="2" points="365.95,-257.02 364.2,-252.02 362.45,-257.02 365.95,-257.02"/>
</g>
<!-- backend&#45;&gt;structutils -->
<g id="edge42" class="edge">
<title>backend&#45;&gt;structutils</title>
<path fill="none" stroke="#fc8300" stroke-width="2" d="M486.2,-503.84C486.2,-413.84 486.2,-20 486.2,-20 486.2,-20 358.75,-20 358.75,-20"/>
<polygon fill="#fc8300" stroke="#fc8300" stroke-width="2" points="358.75,-18.25 353.75,-20 358.75,-21.75 358.75,-18.25"/>
</g>
<!-- configuration&#45;&gt;auditlog -->
<g id="edge43" class="edge">
<title>configuration&#45;&gt;auditlog</title>
<path fill="none" stroke="#0600ff" stroke-width="2" d="M438.74,-459C535.93,-459 797.83,-459 797.83,-459 797.83,-459 797.83,-329.15 797.83,-329.15"/>
<polygon fill="#0600ff" stroke="#0600ff" stroke-width="2" points="799.58,-329.15 797.83,-324.15 796.08,-329.15 799.58,-329.15"/>
</g>
<!-- configuration&#45;&gt;auth -->
<g id="edge44" class="edge">
<title>configuration&#45;&gt;auth</title>
<path fill="none" stroke="#0600ff" stroke-width="2" d="M367.17,-450C321.53,-450 248.5,-450 248.5,-450 248.5,-450 248.5,-384 248.5,-384 248.5,-384 128.26,-384 128.26,-384"/>
<polygon fill="#0600ff" stroke="#0600ff" stroke-width="2" points="128.26,-382.25 123.26,-384 128.26,-385.75 128.26,-382.25"/>
</g>
<!-- configuration&#45;&gt;docker -->
<g id="edge45" class="edge">
<title>configuration&#45;&gt;docker</title>
<path fill="none" stroke="#0600ff" stroke-width="2" d="M431.75,-431.83C431.75,-431.83 431.75,-401.41 431.75,-401.41"/>
<polygon fill="#0600ff" stroke="#0600ff" stroke-width="2" points="433.5,-401.41 431.75,-396.41 430,-401.41 433.5,-401.41"/>
</g>
<!-- configuration&#45;&gt;http -->
<g id="edge47" class="edge">
<title>configuration&#45;&gt;http</title>
<path fill="none" stroke="#0600ff" stroke-width="2" d="M372.14,-431.68C372.14,-400.87 372.14,-342 372.14,-342 372.14,-342 32.4,-342 32.4,-342 32.4,-342 32.4,-257.32 32.4,-257.32"/>
<polygon fill="#0600ff" stroke="#0600ff" stroke-width="2" points="34.15,-257.32 32.4,-252.32 30.65,-257.32 34.15,-257.32"/>
</g>
<!-- configuration&#45;&gt;kubernetes -->
<g id="edge48" class="edge">
<title>configuration&#45;&gt;kubernetes</title>
<path fill="none" stroke="#0600ff" stroke-width="2" d="M438.68,-441C465.15,-441 496.67,-441 496.67,-441 496.67,-441 496.67,-401.22 496.67,-401.22"/>
<polygon fill="#0600ff" stroke="#0600ff" stroke-width="2" points="498.42,-401.22 496.67,-396.22 494.92,-401.22 498.42,-401.22"/>
</g>
<!-- configuration&#45;&gt;log -->
<g id="edge49" class="edge">
<title>configuration&#45;&gt;log</title>
<path fill="none" stroke="#0600ff" stroke-width="2" d="M410,-431.88C410,-360.69 410,-104 410,-104 410,-104 356.21,-104 356.21,-104"/>
<polygon fill="#0600ff" stroke="#0600ff" stroke-width="2" points="356.21,-102.25 351.21,-104 356.21,-105.75 356.21,-102.25"/>
</g>
<!-- configuration&#45;&gt;metrics -->
<g id="edge50" class="edge">
<title>configuration&#45;&gt;metrics</title>
<path fill="none" stroke="#0600ff" stroke-width="2" d="M376.79,-431.92C376.79,-395.77 376.79,-318 376.79,-318 376.79,-318 277.31,-318 277.31,-318"/>
<polygon fill="#0600ff" stroke="#0600ff" stroke-width="2" points="277.31,-316.25 272.31,-318 277.31,-319.75 277.31,-316.25"/>
</g>
<!-- configuration&#45;&gt;security -->
<g id="edge51" class="edge">
<title>configuration&#45;&gt;security</title>
<path fill="none" stroke="#0600ff" stroke-width="2" d="M438.51,-450C500.28,-450 621,-450 621,-450 621,-450 621,-401.17 621,-401.17"/>
<polygon fill="#0600ff" stroke="#0600ff" stroke-width="2" points="622.75,-401.17 621,-396.17 619.25,-401.17 622.75,-401.17"/>
</g>
<!-- configuration&#45;&gt;service -->
<g id="edge52" class="edge">
<title>configuration&#45;&gt;service</title>
<path fill="none" stroke="#0600ff" stroke-width="2" d="M405,-431.76C405,-369.91 405,-172 405,-172 405,-172 277.14,-172 277.14,-172"/>
<polygon fill="#0600ff" stroke="#0600ff" stroke-width="2" points="277.14,-170.25 272.14,-172 277.14,-173.75 277.14,-170.25"/>
</g>
<!-- configuration&#45;&gt;sshserver -->
<g id="edge53" class="edge">
<title>configuration&#45;&gt;sshserver</title>
<path fill="none" stroke="#0600ff" stroke-width="2" d="M420,-431.73C420,-391.94 420,-301 420,-301 420,-301 644.79,-301 644.79,-301"/>
<polygon fill="#0600ff" stroke="#0600ff" stroke-width="2" points="644.79,-302.75 649.79,-301 644.79,-299.25 644.79,-302.75"/>
</g>
<!-- configuration&#45;&gt;geoip -->
<g id="edge46" class="edge">
<title>configuration&#45;&gt;geoip</title>
<path fill="none" stroke="#0600ff" stroke-width="2" d="M381.43,-431.96C381.43,-431.96 381.43,-257.15 381.43,-257.15"/>
<polygon fill="#0600ff" stroke="#0600ff" stroke-width="2" points="383.18,-257.15 381.43,-252.15 379.68,-257.15 383.18,-257.15"/>
</g>
<!-- configuration&#45;&gt;structutils -->
<g id="edge54" class="edge">
<title>configuration&#45;&gt;structutils</title>
<path fill="none" stroke="#0600ff" stroke-width="2" d="M415,-431.95C415,-351.56 415,-30 415,-30 415,-30 358.55,-30 358.55,-30"/>
<polygon fill="#0600ff" stroke="#0600ff" stroke-width="2" points="358.55,-28.25 353.55,-30 358.55,-31.75 358.55,-28.25"/>
</g>
<!-- docker&#45;&gt;log -->
<g id="edge56" class="edge">
<title>docker&#45;&gt;log</title>
<path fill="none" stroke="#c400fc" stroke-width="2" d="M443,-359.76C443,-297.91 443,-100 443,-100 443,-100 356,-100 356,-100"/>
<polygon fill="#c400fc" stroke="#c400fc" stroke-width="2" points="356,-98.25 351,-100 356,-101.75 356,-98.25"/>
</g>
<!-- docker&#45;&gt;metrics -->
<g id="edge57" class="edge">
<title>docker&#45;&gt;metrics</title>
<path fill="none" stroke="#c400fc" stroke-width="2" d="M434,-359.78C434,-341.17 434,-315 434,-315 434,-315 277.08,-315 277.08,-315"/>
<polygon fill="#c400fc" stroke="#c400fc" stroke-width="2" points="277.08,-313.25 272.08,-315 277.08,-316.75 277.08,-313.25"/>
</g>
<!-- docker&#45;&gt;sshserver -->
<g id="edge58" class="edge">
<title>docker&#45;&gt;sshserver</title>
<path fill="none" stroke="#c400fc" stroke-width="2" d="M470,-359.71C470,-337.79 470,-304 470,-304 470,-304 644.94,-304 644.94,-304"/>
<polygon fill="#c400fc" stroke="#c400fc" stroke-width="2" points="644.94,-305.75 649.94,-304 644.94,-302.25 644.94,-305.75"/>
</g>
<!-- docker&#45;&gt;geoip -->
<g id="edge55" class="edge">
<title>docker&#45;&gt;geoip</title>
<path fill="none" stroke="#c400fc" stroke-width="2" d="M424.8,-384C406.64,-384 386.07,-384 386.07,-384 386.07,-384 386.07,-257.09 386.07,-257.09"/>
<polygon fill="#c400fc" stroke="#c400fc" stroke-width="2" points="387.82,-257.09 386.07,-252.09 384.32,-257.09 387.82,-257.09"/>
</g>
<!-- docker&#45;&gt;structutils -->
<g id="edge59" class="edge">
<title>docker&#45;&gt;structutils</title>
<path fill="none" stroke="#c400fc" stroke-width="2" d="M452,-359.52C452,-286.89 452,-25 452,-25 452,-25 358.69,-25 358.69,-25"/>
<polygon fill="#c400fc" stroke="#c400fc" stroke-width="2" points="358.69,-23.25 353.69,-25 358.69,-26.75 358.69,-23.25"/>
</g>
<!-- unixutils -->
<g id="node19" class="node">
<title>unixutils</title>
<polygon fill="black" stroke="red" stroke-width="3" points="671,-252 617,-252 617,-216 671,-216 671,-252"/>
<text text-anchor="middle" x="644" y="-231.5" font-family="Arial" font-size="10.00" fill="white">unixutils</text>
</g>
<!-- docker&#45;&gt;unixutils -->
<g id="edge60" class="edge">
<title>docker&#45;&gt;unixutils</title>
<path fill="none" stroke="#c400fc" stroke-width="2" d="M461,-359.85C461,-319.32 461,-225 461,-225 461,-225 612,-225 612,-225"/>
<polygon fill="#c400fc" stroke="#c400fc" stroke-width="2" points="612,-226.75 617,-225 612,-223.25 612,-226.75"/>
</g>
<!-- http&#45;&gt;log -->
<g id="edge61" class="edge">
<title>http&#45;&gt;log</title>
<path fill="none" stroke="#00dbfc" stroke-width="2" d="M54.2,-225C125.67,-225 313.33,-225 313.33,-225 313.33,-225 313.33,-113.21 313.33,-113.21"/>
<polygon fill="#00dbfc" stroke="#00dbfc" stroke-width="2" points="315.08,-113.21 313.33,-108.21 311.58,-113.21 315.08,-113.21"/>
</g>
<!-- http&#45;&gt;service -->
<g id="edge62" class="edge">
<title>http&#45;&gt;service</title>
<path fill="none" stroke="#00dbfc" stroke-width="2" d="M36,-215.99C36,-191.58 36,-151 36,-151 36,-151 212.68,-151 212.68,-151"/>
<polygon fill="#00dbfc" stroke="#00dbfc" stroke-width="2" points="212.68,-152.75 217.68,-151 212.68,-149.25 212.68,-152.75"/>
</g>
<!-- http&#45;&gt;structutils -->
<g id="edge63" class="edge">
<title>http&#45;&gt;structutils</title>
<path fill="none" stroke="#00dbfc" stroke-width="2" d="M18,-215.96C18,-164.04 18,-18 18,-18 18,-18 289.38,-18 289.38,-18"/>
<polygon fill="#00dbfc" stroke="#00dbfc" stroke-width="2" points="289.38,-19.75 294.38,-18 289.38,-16.25 289.38,-19.75"/>
</g>
<!-- kubernetes&#45;&gt;log -->
<g id="edge65" class="edge">
<title>kubernetes&#45;&gt;log</title>
<path fill="none" stroke="#c400fc" stroke-width="2" d="M521.36,-359.67C521.36,-296.55 521.36,-92 521.36,-92 521.36,-92 356.03,-92 356.03,-92"/>
<polygon fill="#c400fc" stroke="#c400fc" stroke-width="2" points="356.03,-90.25 351.03,-92 356.03,-93.75 356.03,-90.25"/>
</g>
<!-- kubernetes&#45;&gt;metrics -->
<g id="edge66" class="edge">
<title>kubernetes&#45;&gt;metrics</title>
<path fill="none" stroke="#c400fc" stroke-width="2" d="M502.79,-359.97C502.79,-340.42 502.79,-312 502.79,-312 502.79,-312 277.1,-312 277.1,-312"/>
<polygon fill="#c400fc" stroke="#c400fc" stroke-width="2" points="277.1,-310.25 272.1,-312 277.1,-313.75 277.1,-310.25"/>
</g>
<!-- kubernetes&#45;&gt;sshserver -->
<g id="edge67" class="edge">
<title>kubernetes&#45;&gt;sshserver</title>
<path fill="none" stroke="#c400fc" stroke-width="2" d="M549.21,-359.78C549.21,-339.63 549.21,-310 549.21,-310 549.21,-310 644.87,-310 644.87,-310"/>
<polygon fill="#c400fc" stroke="#c400fc" stroke-width="2" points="644.87,-311.75 649.87,-310 644.87,-308.25 644.87,-311.75"/>
</g>
<!-- kubernetes&#45;&gt;geoip -->
<g id="edge64" class="edge">
<title>kubernetes&#45;&gt;geoip</title>
<path fill="none" stroke="#c400fc" stroke-width="2" d="M512.07,-359.79C512.07,-322.94 512.07,-243 512.07,-243 512.07,-243 405.14,-243 405.14,-243"/>
<polygon fill="#c400fc" stroke="#c400fc" stroke-width="2" points="405.14,-241.25 400.14,-243 405.14,-244.75 405.14,-241.25"/>
</g>
<!-- kubernetes&#45;&gt;structutils -->
<g id="edge68" class="edge">
<title>kubernetes&#45;&gt;structutils</title>
<path fill="none" stroke="#c400fc" stroke-width="2" d="M530.64,-360C530.64,-286.75 530.64,-15 530.64,-15 530.64,-15 358.61,-15 358.61,-15"/>
<polygon fill="#c400fc" stroke="#c400fc" stroke-width="2" points="358.61,-13.25 353.61,-15 358.61,-16.75 358.61,-13.25"/>
</g>
<!-- kubernetes&#45;&gt;unixutils -->
<g id="edge69" class="edge">
<title>kubernetes&#45;&gt;unixutils</title>
<path fill="none" stroke="#c400fc" stroke-width="2" d="M539.93,-359.76C539.93,-321.01 539.93,-234 539.93,-234 539.93,-234 611.93,-234 611.93,-234"/>
<polygon fill="#c400fc" stroke="#c400fc" stroke-width="2" points="611.93,-235.75 616.93,-234 611.93,-232.25 611.93,-235.75"/>
</g>
<!-- log&#45;&gt;structutils -->
<g id="edge70" class="edge">
<title>log&#45;&gt;structutils</title>
<path fill="none" stroke="#00c900" stroke-width="2" d="M324,-71.83C324,-71.83 324,-41.41 324,-41.41"/>
<polygon fill="#00c900" stroke="#00c900" stroke-width="2" points="325.75,-41.41 324,-36.41 322.25,-41.41 325.75,-41.41"/>
</g>
<!-- metrics&#45;&gt;http -->
<g id="edge72" class="edge">
<title>metrics&#45;&gt;http</title>
<path fill="none" stroke="#fce700" stroke-width="2" d="M217.78,-306C162.7,-306 43.2,-306 43.2,-306 43.2,-306 43.2,-257.17 43.2,-257.17"/>
<polygon fill="#fce700" stroke="#fce700" stroke-width="2" points="44.95,-257.17 43.2,-252.17 41.45,-257.17 44.95,-257.17"/>
</g>
<!-- metrics&#45;&gt;log -->
<g id="edge73" class="edge">
<title>metrics&#45;&gt;log</title>
<path fill="none" stroke="#fce700" stroke-width="2" d="M272.19,-290C294.17,-290 321.5,-290 321.5,-290 321.5,-290 321.5,-113.1 321.5,-113.1"/>
<polygon fill="#fce700" stroke="#fce700" stroke-width="2" points="323.25,-113.1 321.5,-108.1 319.75,-113.1 323.25,-113.1"/>
</g>
<!-- metrics&#45;&gt;service -->
<g id="edge74" class="edge">
<title>metrics&#45;&gt;service</title>
<path fill="none" stroke="#fce700" stroke-width="2" d="M245,-287.76C245,-287.76 245,-185.09 245,-185.09"/>
<polygon fill="#fce700" stroke="#fce700" stroke-width="2" points="246.75,-185.09 245,-180.09 243.25,-185.09 246.75,-185.09"/>
</g>
<!-- metrics&#45;&gt;geoip -->
<g id="edge71" class="edge">
<title>metrics&#45;&gt;geoip</title>
<path fill="none" stroke="#fce700" stroke-width="2" d="M272.02,-293C304.38,-293 354.3,-293 354.3,-293 354.3,-293 354.3,-257.02 354.3,-257.02"/>
<polygon fill="#fce700" stroke="#fce700" stroke-width="2" points="356.05,-257.02 354.3,-252.02 352.55,-257.02 356.05,-257.02"/>
</g>
<!-- metrics&#45;&gt;structutils -->
<g id="edge75" class="edge">
<title>metrics&#45;&gt;structutils</title>
<path fill="none" stroke="#fce700" stroke-width="2" d="M272.39,-321C278.52,-321 283.25,-321 283.25,-321 283.25,-321 283.25,-9 283.25,-9 283.25,-9 289.39,-9 289.39,-9"/>
<polygon fill="#fce700" stroke="#fce700" stroke-width="2" points="289.39,-10.75 294.39,-9 289.39,-7.25 289.39,-10.75"/>
</g>
<!-- metricsintegration&#45;&gt;metrics -->
<g id="edge77" class="edge">
<title>metricsintegration&#45;&gt;metrics</title>
<path fill="none" stroke="#c400fc" stroke-width="2" d="M264.5,-359.83C264.5,-359.83 264.5,-329.41 264.5,-329.41"/>
<polygon fill="#c400fc" stroke="#c400fc" stroke-width="2" points="266.25,-329.41 264.5,-324.41 262.75,-329.41 266.25,-329.41"/>
</g>
<!-- metricsintegration&#45;&gt;sshserver -->
<g id="edge78" class="edge">
<title>metricsintegration&#45;&gt;sshserver</title>
<path fill="none" stroke="#c400fc" stroke-width="2" d="M337.83,-359.68C337.83,-336.34 337.83,-299 337.83,-299 337.83,-299 644.91,-299 644.91,-299"/>
<polygon fill="#c400fc" stroke="#c400fc" stroke-width="2" points="644.91,-300.75 649.91,-299 644.91,-297.25 644.91,-300.75"/>
</g>
<!-- metricsintegration&#45;&gt;geoip -->
<g id="edge76" class="edge">
<title>metricsintegration&#45;&gt;geoip</title>
<path fill="none" stroke="#c400fc" stroke-width="2" d="M351.03,-372C355.04,-372 357.6,-372 357.6,-372 357.6,-372 357.6,-257.04 357.6,-257.04"/>
<polygon fill="#c400fc" stroke="#c400fc" stroke-width="2" points="359.35,-257.04 357.6,-252.04 355.85,-257.04 359.35,-257.04"/>
</g>
<!-- security&#45;&gt;log -->
<g id="edge79" class="edge">
<title>security&#45;&gt;log</title>
<path fill="none" stroke="#c400fc" stroke-width="2" d="M610,-359.61C610,-295.25 610,-84 610,-84 610,-84 356.16,-84 356.16,-84"/>
<polygon fill="#c400fc" stroke="#c400fc" stroke-width="2" points="356.16,-82.25 351.16,-84 356.16,-85.75 356.16,-82.25"/>
</g>
<!-- security&#45;&gt;sshserver -->
<g id="edge80" class="edge">
<title>security&#45;&gt;sshserver</title>
<path fill="none" stroke="#c400fc" stroke-width="2" d="M654.67,-359.83C654.67,-359.83 654.67,-329.41 654.67,-329.41"/>
<polygon fill="#c400fc" stroke="#c400fc" stroke-width="2" points="656.42,-329.41 654.67,-324.41 652.92,-329.41 656.42,-329.41"/>
</g>
<!-- service&#45;&gt;log -->
<g id="edge81" class="edge">
<title>service&#45;&gt;log</title>
<path fill="none" stroke="#ff0000" stroke-width="2" d="M272.27,-151C288.19,-151 305.17,-151 305.17,-151 305.17,-151 305.17,-113.3 305.17,-113.3"/>
<polygon fill="#ff0000" stroke="#ff0000" stroke-width="2" points="306.92,-113.3 305.17,-108.3 303.42,-113.3 306.92,-113.3"/>
</g>
<!-- sshserver&#45;&gt;log -->
<g id="edge82" class="edge">
<title>sshserver&#45;&gt;log</title>
<path fill="none" stroke="#fce700" stroke-width="2" d="M649.82,-296C565.86,-296 329.67,-296 329.67,-296 329.67,-296 329.67,-113.28 329.67,-113.28"/>
<polygon fill="#fce700" stroke="#fce700" stroke-width="2" points="331.42,-113.28 329.67,-108.28 327.92,-113.28 331.42,-113.28"/>
</g>
<!-- sshserver&#45;&gt;service -->
<g id="edge83" class="edge">
<title>sshserver&#45;&gt;service</title>
<path fill="none" stroke="#fce700" stroke-width="2" d="M683.33,-287.85C683.33,-248.33 683.33,-158 683.33,-158 683.33,-158 277.09,-158 277.09,-158"/>
<polygon fill="#fce700" stroke="#fce700" stroke-width="2" points="277.09,-156.25 272.09,-158 277.09,-159.75 277.09,-156.25"/>
</g>
<!-- sshserver&#45;&gt;structutils -->
<g id="edge84" class="edge">
<title>sshserver&#45;&gt;structutils</title>
<path fill="none" stroke="#fce700" stroke-width="2" d="M695.67,-287.62C695.67,-222.27 695.67,-5 695.67,-5 695.67,-5 358.79,-5 358.79,-5"/>
<polygon fill="#fce700" stroke="#fce700" stroke-width="2" points="358.79,-3.25 353.79,-5 358.79,-6.75 358.79,-3.25"/>
</g>
<!-- sshserver&#45;&gt;unixutils -->
<g id="edge85" class="edge">
<title>sshserver&#45;&gt;unixutils</title>
<path fill="none" stroke="#fce700" stroke-width="2" d="M660.5,-287.83C660.5,-287.83 660.5,-257.41 660.5,-257.41"/>
<polygon fill="#fce700" stroke="#fce700" stroke-width="2" points="662.25,-257.41 660.5,-252.41 658.75,-257.41 662.25,-257.41"/>
</g>
</g>
</svg>
