<?xml version="1.0" encoding="UTF-8" standalone="no"?>
<!DOCTYPE svg PUBLIC "-//W3C//DTD SVG 1.1//EN"
 "http://www.w3.org/Graphics/SVG/1.1/DTD/svg11.dtd">
<!-- Generated by graphviz version 2.46.1 (20210213.1702)
 -->
<!-- Title: ContainerSSH Pages: 1 -->
<svg width="926pt" height="620pt"
 viewBox="0.00 0.00 925.50 620.00" xmlns="http://www.w3.org/2000/svg" xmlns:xlink="http://www.w3.org/1999/xlink">
<g id="graph0" class="graph" transform="scale(1 1) rotate(0) translate(4 616)">
<title>ContainerSSH</title>
<polygon fill="white" stroke="transparent" points="-4,4 -4,-616 921.5,-616 921.5,4 -4,4"/>
<!-- ContainerSSH -->
<g id="node1" class="node">
<title>ContainerSSH</title>
<polygon fill="black" stroke="red" stroke-width="3" points="384.5,-612 306.5,-612 306.5,-576 384.5,-576 384.5,-612"/>
<text text-anchor="middle" x="345.5" y="-591.5" font-family="Arial" font-size="10.00" fill="white">ContainerSSH</text>
</g>
<!-- auditlog -->
<g id="node2" class="node">
<title>auditlog</title>
<polygon fill="black" stroke="red" stroke-width="3" points="90.5,-324 36.5,-324 36.5,-288 90.5,-288 90.5,-324"/>
<text text-anchor="middle" x="63.5" y="-303.5" font-family="Arial" font-size="10.00" fill="white">auditlog</text>
</g>
<!-- ContainerSSH&#45;&gt;auditlog -->
<g id="edge1" class="edge">
<title>ContainerSSH&#45;&gt;auditlog</title>
<path fill="none" stroke="#00c900" stroke-width="2" d="M310.5,-575.98C310.5,-519.4 310.5,-349 310.5,-349 310.5,-349 58.1,-349 58.1,-349 58.1,-349 58.1,-329.49 58.1,-329.49"/>
<polygon fill="#00c900" stroke="#00c900" stroke-width="2" points="59.85,-329.49 58.1,-324.49 56.35,-329.49 59.85,-329.49"/>
</g>
<!-- auditlogintegration -->
<g id="node3" class="node">
<title>auditlogintegration</title>
<polygon fill="black" stroke="red" stroke-width="3" points="95,-396 0,-396 0,-360 95,-360 95,-396"/>
<text text-anchor="middle" x="47.5" y="-375.5" font-family="Arial" font-size="10.00" fill="white">auditlogintegration</text>
</g>
<!-- ContainerSSH&#45;&gt;auditlogintegration -->
<g id="edge2" class="edge">
<title>ContainerSSH&#45;&gt;auditlogintegration</title>
<path fill="none" stroke="#00c900" stroke-width="2" d="M306.24,-594C225.32,-594 47.5,-594 47.5,-594 47.5,-594 47.5,-401.04 47.5,-401.04"/>
<polygon fill="#00c900" stroke="#00c900" stroke-width="2" points="49.25,-401.04 47.5,-396.04 45.75,-401.04 49.25,-401.04"/>
</g>
<!-- auth -->
<g id="node4" class="node">
<title>auth</title>
<polygon fill="black" stroke="red" stroke-width="3" points="917.5,-396 863.5,-396 863.5,-360 917.5,-360 917.5,-396"/>
<text text-anchor="middle" x="890.5" y="-375.5" font-family="Arial" font-size="10.00" fill="white">auth</text>
</g>
<!-- ContainerSSH&#45;&gt;auth -->
<g id="edge3" class="edge">
<title>ContainerSSH&#45;&gt;auth</title>
<path fill="none" stroke="#00c900" stroke-width="2" d="M384.77,-608C511.9,-608 904,-608 904,-608 904,-608 904,-401.05 904,-401.05"/>
<polygon fill="#00c900" stroke="#00c900" stroke-width="2" points="905.75,-401.05 904,-396.05 902.25,-401.05 905.75,-401.05"/>
</g>
<!-- authintegration -->
<g id="node5" class="node">
<title>authintegration</title>
<polygon fill="black" stroke="red" stroke-width="3" points="853.5,-468 773.5,-468 773.5,-432 853.5,-432 853.5,-468"/>
<text text-anchor="middle" x="813.5" y="-447.5" font-family="Arial" font-size="10.00" fill="white">authintegration</text>
</g>
<!-- ContainerSSH&#45;&gt;authintegration -->
<g id="edge4" class="edge">
<title>ContainerSSH&#45;&gt;authintegration</title>
<path fill="none" stroke="#00c900" stroke-width="2" d="M384.6,-604C497.08,-604 813.5,-604 813.5,-604 813.5,-604 813.5,-473.27 813.5,-473.27"/>
<polygon fill="#00c900" stroke="#00c900" stroke-width="2" points="815.25,-473.27 813.5,-468.27 811.75,-473.27 815.25,-473.27"/>
</g>
<!-- backend -->
<g id="node6" class="node">
<title>backend</title>
<polygon fill="black" stroke="red" stroke-width="3" points="372.5,-540 318.5,-540 318.5,-504 372.5,-504 372.5,-540"/>
<text text-anchor="middle" x="345.5" y="-519.5" font-family="Arial" font-size="10.00" fill="white">backend</text>
</g>
<!-- ContainerSSH&#45;&gt;backend -->
<g id="edge5" class="edge">
<title>ContainerSSH&#45;&gt;backend</title>
<path fill="none" stroke="#00c900" stroke-width="2" d="M345.5,-575.83C345.5,-575.83 345.5,-545.41 345.5,-545.41"/>
<polygon fill="#00c900" stroke="#00c900" stroke-width="2" points="347.25,-545.41 345.5,-540.41 343.75,-545.41 347.25,-545.41"/>
</g>
<!-- configuration -->
<g id="node7" class="node">
<title>configuration</title>
<polygon fill="black" stroke="red" stroke-width="3" points="461,-468 390,-468 390,-432 461,-432 461,-468"/>
<text text-anchor="middle" x="425.5" y="-447.5" font-family="Arial" font-size="10.00" fill="white">configuration</text>
</g>
<!-- ContainerSSH&#45;&gt;configuration -->
<g id="edge6" class="edge">
<title>ContainerSSH&#45;&gt;configuration</title>
<path fill="none" stroke="#00c900" stroke-width="2" d="M378.5,-575.92C378.5,-539.77 378.5,-462 378.5,-462 378.5,-462 384.88,-462 384.88,-462"/>
<polygon fill="#00c900" stroke="#00c900" stroke-width="2" points="384.88,-463.75 389.88,-462 384.88,-460.25 384.88,-463.75"/>
</g>
<!-- http -->
<g id="node10" class="node">
<title>http</title>
<polygon fill="black" stroke="red" stroke-width="3" points="917.5,-252 863.5,-252 863.5,-216 917.5,-216 917.5,-252"/>
<text text-anchor="middle" x="890.5" y="-231.5" font-family="Arial" font-size="10.00" fill="white">http</text>
</g>
<!-- ContainerSSH&#45;&gt;http -->
<g id="edge8" class="edge">
<title>ContainerSSH&#45;&gt;http</title>
<path fill="none" stroke="#00c900" stroke-width="2" d="M384.7,-590C449.55,-590 572.06,-590 572.06,-590 572.06,-590 572.06,-234 572.06,-234 572.06,-234 858.35,-234 858.35,-234"/>
<polygon fill="#00c900" stroke="#00c900" stroke-width="2" points="858.35,-235.75 863.35,-234 858.35,-232.25 858.35,-235.75"/>
</g>
<!-- log -->
<g id="node12" class="node">
<title>log</title>
<polygon fill="black" stroke="red" stroke-width="3" points="751.5,-108 697.5,-108 697.5,-72 751.5,-72 751.5,-108"/>
<text text-anchor="middle" x="724.5" y="-87.5" font-family="Arial" font-size="10.00" fill="white">log</text>
</g>
<!-- ContainerSSH&#45;&gt;log -->
<g id="edge9" class="edge">
<title>ContainerSSH&#45;&gt;log</title>
<path fill="none" stroke="#00c900" stroke-width="2" d="M384.52,-586C447.64,-586 565.17,-586 565.17,-586 565.17,-586 565.17,-102 565.17,-102 565.17,-102 692.47,-102 692.47,-102"/>
<polygon fill="#00c900" stroke="#00c900" stroke-width="2" points="692.47,-103.75 697.47,-102 692.47,-100.25 692.47,-103.75"/>
</g>
<!-- metrics -->
<g id="node13" class="node">
<title>metrics</title>
<polygon fill="black" stroke="red" stroke-width="3" points="729.5,-324 675.5,-324 675.5,-288 729.5,-288 729.5,-324"/>
<text text-anchor="middle" x="702.5" y="-303.5" font-family="Arial" font-size="10.00" fill="white">metrics</text>
</g>
<!-- ContainerSSH&#45;&gt;metrics -->
<g id="edge10" class="edge">
<title>ContainerSSH&#45;&gt;metrics</title>
<path fill="none" stroke="#00c900" stroke-width="2" d="M384.67,-597C479.09,-597 711.5,-597 711.5,-597 711.5,-597 711.5,-329.2 711.5,-329.2"/>
<polygon fill="#00c900" stroke="#00c900" stroke-width="2" points="713.25,-329.2 711.5,-324.2 709.75,-329.2 713.25,-329.2"/>
</g>
<!-- metricsintegration -->
<g id="node14" class="node">
<title>metricsintegration</title>
<polygon fill="black" stroke="red" stroke-width="3" points="669.5,-396 575.5,-396 575.5,-360 669.5,-360 669.5,-396"/>
<text text-anchor="middle" x="622.5" y="-375.5" font-family="Arial" font-size="10.00" fill="white">metricsintegration</text>
</g>
<!-- ContainerSSH&#45;&gt;metricsintegration -->
<g id="edge11" class="edge">
<title>ContainerSSH&#45;&gt;metricsintegration</title>
<path fill="none" stroke="#00c900" stroke-width="2" d="M384.6,-594C460.96,-594 622.5,-594 622.5,-594 622.5,-594 622.5,-401.04 622.5,-401.04"/>
<polygon fill="#00c900" stroke="#00c900" stroke-width="2" points="624.25,-401.04 622.5,-396.04 620.75,-401.04 624.25,-401.04"/>
</g>
<!-- service -->
<g id="node16" class="node">
<title>service</title>
<polygon fill="black" stroke="red" stroke-width="3" points="751.5,-180 697.5,-180 697.5,-144 751.5,-144 751.5,-180"/>
<text text-anchor="middle" x="724.5" y="-159.5" font-family="Arial" font-size="10.00" fill="white">service</text>
</g>
<!-- ContainerSSH&#45;&gt;service -->
<g id="edge12" class="edge">
<title>ContainerSSH&#45;&gt;service</title>
<path fill="none" stroke="#00c900" stroke-width="2" d="M384.81,-601C484.05,-601 736.83,-601 736.83,-601 736.83,-601 736.83,-185.03 736.83,-185.03"/>
<polygon fill="#00c900" stroke="#00c900" stroke-width="2" points="738.58,-185.03 736.83,-180.03 735.08,-185.03 738.58,-185.03"/>
</g>
<!-- sshserver -->
<g id="node17" class="node">
<title>sshserver</title>
<polygon fill="black" stroke="red" stroke-width="3" points="344.5,-324 286.5,-324 286.5,-288 344.5,-288 344.5,-324"/>
<text text-anchor="middle" x="315.5" y="-303.5" font-family="Arial" font-size="10.00" fill="white">sshserver</text>
</g>
<!-- ContainerSSH&#45;&gt;sshserver -->
<g id="edge13" class="edge">
<title>ContainerSSH&#45;&gt;sshserver</title>
<path fill="none" stroke="#00c900" stroke-width="2" d="M314.5,-575.98C314.5,-575.98 314.5,-329.01 314.5,-329.01"/>
<polygon fill="#00c900" stroke="#00c900" stroke-width="2" points="316.25,-329.01 314.5,-324.01 312.75,-329.01 316.25,-329.01"/>
</g>
<!-- geoip -->
<g id="node18" class="node">
<title>geoip</title>
<polygon fill="black" stroke="red" stroke-width="3" points="544.5,-252 490.5,-252 490.5,-216 544.5,-216 544.5,-252"/>
<text text-anchor="middle" x="517.5" y="-231.5" font-family="Arial" font-size="10.00" fill="white">geoip</text>
</g>
<!-- ContainerSSH&#45;&gt;geoip -->
<g id="edge7" class="edge">
<title>ContainerSSH&#45;&gt;geoip</title>
<path fill="none" stroke="#00c900" stroke-width="2" d="M384.94,-579C440.69,-579 535.83,-579 535.83,-579 535.83,-579 535.83,-257.06 535.83,-257.06"/>
<polygon fill="#00c900" stroke="#00c900" stroke-width="2" points="537.58,-257.06 535.83,-252.06 534.08,-257.06 537.58,-257.06"/>
</g>
<!-- structutils -->
<g id="node19" class="node">
<title>structutils</title>
<polygon fill="black" stroke="red" stroke-width="3" points="754,-36 695,-36 695,0 754,0 754,-36"/>
<text text-anchor="middle" x="724.5" y="-15.5" font-family="Arial" font-size="10.00" fill="white">structutils</text>
</g>
<!-- ContainerSSH&#45;&gt;structutils -->
<g id="edge14" class="edge">
<title>ContainerSSH&#45;&gt;structutils</title>
<path fill="none" stroke="#00c900" stroke-width="2" d="M384.53,-583C445.95,-583 558.28,-583 558.28,-583 558.28,-583 558.28,-32 558.28,-32 558.28,-32 689.78,-32 689.78,-32"/>
<polygon fill="#00c900" stroke="#00c900" stroke-width="2" points="689.78,-33.75 694.78,-32 689.78,-30.25 689.78,-33.75"/>
</g>
<!-- auditlog&#45;&gt;log -->
<g id="edge16" class="edge">
<title>auditlog&#45;&gt;log</title>
<path fill="none" stroke="#fce700" stroke-width="2" d="M54.5,-287.73C54.5,-233.62 54.5,-78 54.5,-78 54.5,-78 692.41,-78 692.41,-78"/>
<polygon fill="#fce700" stroke="#fce700" stroke-width="2" points="692.41,-79.75 697.41,-78 692.41,-76.25 692.41,-79.75"/>
</g>
<!-- auditlog&#45;&gt;geoip -->
<g id="edge15" class="edge">
<title>auditlog&#45;&gt;geoip</title>
<path fill="none" stroke="#fce700" stroke-width="2" d="M72.5,-287.86C72.5,-281.54 72.5,-276 72.5,-276 72.5,-276 496.36,-276 496.36,-276 496.36,-276 496.36,-257.06 496.36,-257.06"/>
<polygon fill="#fce700" stroke="#fce700" stroke-width="2" points="498.11,-257.06 496.36,-252.06 494.61,-257.06 498.11,-257.06"/>
</g>
<!-- auditlogintegration&#45;&gt;auditlog -->
<g id="edge17" class="edge">
<title>auditlogintegration&#45;&gt;auditlog</title>
<path fill="none" stroke="#c400fc" stroke-width="2" d="M47.3,-359.83C47.3,-359.83 47.3,-329.41 47.3,-329.41"/>
<polygon fill="#c400fc" stroke="#c400fc" stroke-width="2" points="49.05,-329.41 47.3,-324.41 45.55,-329.41 49.05,-329.41"/>
</g>
<!-- auditlogintegration&#45;&gt;log -->
<g id="edge19" class="edge">
<title>auditlogintegration&#45;&gt;log</title>
<path fill="none" stroke="#c400fc" stroke-width="2" d="M18.25,-359.95C18.25,-294.72 18.25,-75 18.25,-75 18.25,-75 692.25,-75 692.25,-75"/>
<polygon fill="#c400fc" stroke="#c400fc" stroke-width="2" points="692.25,-76.75 697.25,-75 692.25,-73.25 692.25,-76.75"/>
</g>
<!-- auditlogintegration&#45;&gt;sshserver -->
<g id="edge20" class="edge">
<title>auditlogintegration&#45;&gt;sshserver</title>
<path fill="none" stroke="#c400fc" stroke-width="2" d="M68.9,-359.75C68.9,-345.82 68.9,-329 68.9,-329 68.9,-329 288.25,-329 288.25,-329 288.25,-329 288.25,-328.51 288.25,-328.51"/>
<polygon fill="#c400fc" stroke="#c400fc" stroke-width="2" points="290,-329.12 288.25,-324.12 286.5,-329.12 290,-329.12"/>
</g>
<!-- auditlogintegration&#45;&gt;geoip -->
<g id="edge18" class="edge">
<title>auditlogintegration&#45;&gt;geoip</title>
<path fill="none" stroke="#c400fc" stroke-width="2" d="M79.7,-359.85C79.7,-347.73 79.7,-334 79.7,-334 79.7,-334 502.21,-334 502.21,-334 502.21,-334 502.21,-257.34 502.21,-257.34"/>
<polygon fill="#c400fc" stroke="#c400fc" stroke-width="2" points="503.96,-257.34 502.21,-252.34 500.46,-257.34 503.96,-257.34"/>
</g>
<!-- auth&#45;&gt;http -->
<g id="edge22" class="edge">
<title>auth&#45;&gt;http</title>
<path fill="none" stroke="#c400fc" stroke-width="2" d="M904,-359.76C904,-359.76 904,-257.09 904,-257.09"/>
<polygon fill="#c400fc" stroke="#c400fc" stroke-width="2" points="905.75,-257.09 904,-252.09 902.25,-257.09 905.75,-257.09"/>
</g>
<!-- auth&#45;&gt;log -->
<g id="edge23" class="edge">
<title>auth&#45;&gt;log</title>
<path fill="none" stroke="#c400fc" stroke-width="2" d="M863.31,-378C826.07,-378 763.75,-378 763.75,-378 763.75,-378 763.75,-99 763.75,-99 763.75,-99 756.76,-99 756.76,-99"/>
<polygon fill="#c400fc" stroke="#c400fc" stroke-width="2" points="756.76,-97.25 751.76,-99 756.76,-100.75 756.76,-97.25"/>
</g>
<!-- auth&#45;&gt;metrics -->
<g id="edge24" class="edge">
<title>auth&#45;&gt;metrics</title>
<path fill="none" stroke="#c400fc" stroke-width="2" d="M877,-359.83C877,-338.5 877,-306 877,-306 877,-306 734.77,-306 734.77,-306"/>
<polygon fill="#c400fc" stroke="#c400fc" stroke-width="2" points="734.77,-304.25 729.77,-306 734.77,-307.75 734.77,-304.25"/>
</g>
<!-- auth&#45;&gt;service -->
<g id="edge25" class="edge">
<title>auth&#45;&gt;service</title>
<path fill="none" stroke="#c400fc" stroke-width="2" d="M863.32,-387C821,-387 744.17,-387 744.17,-387 744.17,-387 744.17,-185.03 744.17,-185.03"/>
<polygon fill="#c400fc" stroke="#c400fc" stroke-width="2" points="745.92,-185.03 744.17,-180.03 742.42,-185.03 745.92,-185.03"/>
</g>
<!-- auth&#45;&gt;geoip -->
<g id="edge21" class="edge">
<title>auth&#45;&gt;geoip</title>
<path fill="none" stroke="#c400fc" stroke-width="2" d="M890.5,-359.94C890.5,-327.79 890.5,-264 890.5,-264 890.5,-264 542.33,-264 542.33,-264 542.33,-264 542.33,-257.14 542.33,-257.14"/>
<polygon fill="#c400fc" stroke="#c400fc" stroke-width="2" points="544.08,-257.14 542.33,-252.14 540.58,-257.14 544.08,-257.14"/>
</g>
<!-- authintegration&#45;&gt;auth -->
<g id="edge26" class="edge">
<title>authintegration&#45;&gt;auth</title>
<path fill="none" stroke="#0600ff" stroke-width="2" d="M853.8,-450C872.43,-450 890.5,-450 890.5,-450 890.5,-450 890.5,-401.17 890.5,-401.17"/>
<polygon fill="#0600ff" stroke="#0600ff" stroke-width="2" points="892.25,-401.17 890.5,-396.17 888.75,-401.17 892.25,-401.17"/>
</g>
<!-- authintegration&#45;&gt;http -->
<g id="edge27" class="edge">
<title>authintegration&#45;&gt;http</title>
<path fill="none" stroke="#0600ff" stroke-width="2" d="M833.5,-431.9C833.5,-381.97 833.5,-246 833.5,-246 833.5,-246 858.34,-246 858.34,-246"/>
<polygon fill="#0600ff" stroke="#0600ff" stroke-width="2" points="858.34,-247.75 863.34,-246 858.34,-244.25 858.34,-247.75"/>
</g>
<!-- authintegration&#45;&gt;log -->
<g id="edge28" class="edge">
<title>authintegration&#45;&gt;log</title>
<path fill="none" stroke="#0600ff" stroke-width="2" d="M793.5,-431.65C793.5,-358.29 793.5,-90 793.5,-90 793.5,-90 756.77,-90 756.77,-90"/>
<polygon fill="#0600ff" stroke="#0600ff" stroke-width="2" points="756.77,-88.25 751.77,-90 756.77,-91.75 756.77,-88.25"/>
</g>
<!-- authintegration&#45;&gt;metrics -->
<g id="edge32" class="edge">
<title>authintegration&#45;&gt;metrics</title>
<path fill="none" stroke="#0600ff" stroke-width="2" d="M773.25,-444C748.12,-444 720.5,-444 720.5,-444 720.5,-444 720.5,-329.04 720.5,-329.04"/>
<polygon fill="#0600ff" stroke="#0600ff" stroke-width="2" points="722.25,-329.04 720.5,-324.04 718.75,-329.04 722.25,-329.04"/>
</g>
<!-- authintegration&#45;&gt;service -->
<g id="edge29" class="edge">
<title>authintegration&#45;&gt;service</title>
<path fill="none" stroke="#0600ff" stroke-width="2" d="M773.16,-438C756.27,-438 740.5,-438 740.5,-438 740.5,-438 740.5,-185.11 740.5,-185.11"/>
<polygon fill="#0600ff" stroke="#0600ff" stroke-width="2" points="742.25,-185.11 740.5,-180.11 738.75,-185.11 742.25,-185.11"/>
</g>
<!-- authintegration&#45;&gt;sshserver -->
<g id="edge30" class="edge">
<title>authintegration&#45;&gt;sshserver</title>
<path fill="none" stroke="#0600ff" stroke-width="2" d="M773.46,-462C699.27,-462 547.94,-462 547.94,-462 547.94,-462 547.94,-308 547.94,-308 547.94,-308 349.94,-308 349.94,-308"/>
<polygon fill="#0600ff" stroke="#0600ff" stroke-width="2" points="349.94,-306.25 344.94,-308 349.94,-309.75 349.94,-306.25"/>
</g>
<!-- authintegration&#45;&gt;structutils -->
<g id="edge31" class="edge">
<title>authintegration&#45;&gt;structutils</title>
<path fill="none" stroke="#0600ff" stroke-width="2" d="M813.5,-431.97C813.5,-350.88 813.5,-24 813.5,-24 813.5,-24 759.14,-24 759.14,-24"/>
<polygon fill="#0600ff" stroke="#0600ff" stroke-width="2" points="759.14,-22.25 754.14,-24 759.14,-25.75 759.14,-22.25"/>
</g>
<!-- backend&#45;&gt;configuration -->
<g id="edge33" class="edge">
<title>backend&#45;&gt;configuration</title>
<path fill="none" stroke="#fc8300" stroke-width="2" d="M361,-503.89C361,-484.66 361,-457 361,-457 361,-457 384.85,-457 384.85,-457"/>
<polygon fill="#fc8300" stroke="#fc8300" stroke-width="2" points="384.85,-458.75 389.85,-457 384.85,-455.25 384.85,-458.75"/>
</g>
<!-- docker -->
<g id="node8" class="node">
<title>docker</title>
<polygon fill="black" stroke="red" stroke-width="3" points="531.5,-396 477.5,-396 477.5,-360 531.5,-360 531.5,-396"/>
<text text-anchor="middle" x="504.5" y="-375.5" font-family="Arial" font-size="10.00" fill="white">docker</text>
</g>
<!-- backend&#45;&gt;docker -->
<g id="edge34" class="edge">
<title>backend&#45;&gt;docker</title>
<path fill="none" stroke="#fc8300" stroke-width="2" d="M372.83,-509C418.29,-509 504.5,-509 504.5,-509 504.5,-509 504.5,-401.21 504.5,-401.21"/>
<polygon fill="#fc8300" stroke="#fc8300" stroke-width="2" points="506.25,-401.21 504.5,-396.21 502.75,-401.22 506.25,-401.21"/>
</g>
<!-- sshproxy -->
<g id="node9" class="node">
<title>sshproxy</title>
<polygon fill="black" stroke="red" stroke-width="3" points="293.5,-396 237.5,-396 237.5,-360 293.5,-360 293.5,-396"/>
<text text-anchor="middle" x="265.5" y="-375.5" font-family="Arial" font-size="10.00" fill="white">sshproxy</text>
</g>
<!-- backend&#45;&gt;sshproxy -->
<g id="edge35" class="edge">
<title>backend&#45;&gt;sshproxy</title>
<path fill="none" stroke="#fc8300" stroke-width="2" d="M322.4,-503.96C322.4,-466.55 322.4,-384 322.4,-384 322.4,-384 298.62,-384 298.62,-384"/>
<polygon fill="#fc8300" stroke="#fc8300" stroke-width="2" points="298.62,-382.25 293.62,-384 298.62,-385.75 298.62,-382.25"/>
</g>
<!-- kubernetes -->
<g id="node11" class="node">
<title>kubernetes</title>
<polygon fill="black" stroke="red" stroke-width="3" points="403,-396 338,-396 338,-360 403,-360 403,-396"/>
<text text-anchor="middle" x="370.5" y="-375.5" font-family="Arial" font-size="10.00" fill="white">kubernetes</text>
</g>
<!-- backend&#45;&gt;kubernetes -->
<g id="edge37" class="edge">
<title>backend&#45;&gt;kubernetes</title>
<path fill="none" stroke="#fc8300" stroke-width="2" d="M349.5,-503.76C349.5,-503.76 349.5,-401.09 349.5,-401.09"/>
<polygon fill="#fc8300" stroke="#fc8300" stroke-width="2" points="351.25,-401.09 349.5,-396.09 347.75,-401.09 351.25,-401.09"/>
</g>
<!-- backend&#45;&gt;log -->
<g id="edge38" class="edge">
<title>backend&#45;&gt;log</title>
<path fill="none" stroke="#fc8300" stroke-width="2" d="M372.88,-524C431.07,-524 561.72,-524 561.72,-524 561.72,-524 561.72,-99 561.72,-99 561.72,-99 692.25,-99 692.25,-99"/>
<polygon fill="#fc8300" stroke="#fc8300" stroke-width="2" points="692.25,-100.75 697.25,-99 692.25,-97.25 692.25,-100.75"/>
</g>
<!-- backend&#45;&gt;metrics -->
<g id="edge39" class="edge">
<title>backend&#45;&gt;metrics</title>
<path fill="none" stroke="#fc8300" stroke-width="2" d="M372.63,-529C455.94,-529 702.5,-529 702.5,-529 702.5,-529 702.5,-329.25 702.5,-329.25"/>
<polygon fill="#fc8300" stroke="#fc8300" stroke-width="2" points="704.25,-329.25 702.5,-324.25 700.75,-329.25 704.25,-329.25"/>
</g>
<!-- security -->
<g id="node15" class="node">
<title>security</title>
<polygon fill="black" stroke="red" stroke-width="3" points="193.5,-396 139.5,-396 139.5,-360 193.5,-360 193.5,-396"/>
<text text-anchor="middle" x="166.5" y="-375.5" font-family="Arial" font-size="10.00" fill="white">security</text>
</g>
<!-- backend&#45;&gt;security -->
<g id="edge40" class="edge">
<title>backend&#45;&gt;security</title>
<path fill="none" stroke="#fc8300" stroke-width="2" d="M318.16,-522C266.02,-522 157.5,-522 157.5,-522 157.5,-522 157.5,-401.24 157.5,-401.24"/>
<polygon fill="#fc8300" stroke="#fc8300" stroke-width="2" points="159.25,-401.24 157.5,-396.24 155.75,-401.24 159.25,-401.24"/>
</g>
<!-- backend&#45;&gt;service -->
<g id="edge41" class="edge">
<title>backend&#45;&gt;service</title>
<path fill="none" stroke="#fc8300" stroke-width="2" d="M372.76,-534C461,-534 733.17,-534 733.17,-534 733.17,-534 733.17,-185.19 733.17,-185.19"/>
<polygon fill="#fc8300" stroke="#fc8300" stroke-width="2" points="734.92,-185.19 733.17,-180.19 731.42,-185.19 734.92,-185.19"/>
</g>
<!-- backend&#45;&gt;sshserver -->
<g id="edge42" class="edge">
<title>backend&#45;&gt;sshserver</title>
<path fill="none" stroke="#fc8300" stroke-width="2" d="M326.3,-503.96C326.3,-503.96 326.3,-329.15 326.3,-329.15"/>
<polygon fill="#fc8300" stroke="#fc8300" stroke-width="2" points="328.05,-329.15 326.3,-324.15 324.55,-329.15 328.05,-329.15"/>
</g>
<!-- backend&#45;&gt;geoip -->
<g id="edge36" class="edge">
<title>backend&#45;&gt;geoip</title>
<path fill="none" stroke="#fc8300" stroke-width="2" d="M372.86,-514C425.05,-514 533.67,-514 533.67,-514 533.67,-514 533.67,-257.37 533.67,-257.37"/>
<polygon fill="#fc8300" stroke="#fc8300" stroke-width="2" points="535.42,-257.37 533.67,-252.37 531.92,-257.37 535.42,-257.37"/>
</g>
<!-- backend&#45;&gt;structutils -->
<g id="edge43" class="edge">
<title>backend&#45;&gt;structutils</title>
<path fill="none" stroke="#fc8300" stroke-width="2" d="M372.87,-519C429.61,-519 554.83,-519 554.83,-519 554.83,-519 554.83,-28 554.83,-28 554.83,-28 689.95,-28 689.95,-28"/>
<polygon fill="#fc8300" stroke="#fc8300" stroke-width="2" points="689.95,-29.75 694.95,-28 689.95,-26.25 689.95,-29.75"/>
</g>
<!-- configuration&#45;&gt;auditlog -->
<g id="edge44" class="edge">
<title>configuration&#45;&gt;auditlog</title>
<path fill="none" stroke="#0600ff" stroke-width="2" d="M389.88,-447C329.96,-447 215.5,-447 215.5,-447 215.5,-447 215.5,-312 215.5,-312 215.5,-312 95.67,-312 95.67,-312"/>
<polygon fill="#0600ff" stroke="#0600ff" stroke-width="2" points="95.67,-310.25 90.67,-312 95.67,-313.75 95.67,-310.25"/>
</g>
<!-- configuration&#45;&gt;auth -->
<g id="edge45" class="edge">
<title>configuration&#45;&gt;auth</title>
<path fill="none" stroke="#0600ff" stroke-width="2" d="M448.57,-431.58C448.57,-422.72 448.57,-414 448.57,-414 448.57,-414 877,-414 877,-414 877,-414 877,-401.42 877,-401.42"/>
<polygon fill="#0600ff" stroke="#0600ff" stroke-width="2" points="878.75,-401.42 877,-396.42 875.25,-401.42 878.75,-401.42"/>
</g>
<!-- configuration&#45;&gt;docker -->
<g id="edge46" class="edge">
<title>configuration&#45;&gt;docker</title>
<path fill="none" stroke="#0600ff" stroke-width="2" d="M458.93,-431.83C458.93,-410.5 458.93,-378 458.93,-378 458.93,-378 472.46,-378 472.46,-378"/>
<polygon fill="#0600ff" stroke="#0600ff" stroke-width="2" points="472.46,-379.75 477.46,-378 472.46,-376.25 472.46,-379.75"/>
</g>
<!-- configuration&#45;&gt;sshproxy -->
<g id="edge47" class="edge">
<title>configuration&#45;&gt;sshproxy</title>
<path fill="none" stroke="#0600ff" stroke-width="2" d="M389.99,-442C342.85,-442 265.5,-442 265.5,-442 265.5,-442 265.5,-401.17 265.5,-401.17"/>
<polygon fill="#0600ff" stroke="#0600ff" stroke-width="2" points="267.25,-401.17 265.5,-396.17 263.75,-401.17 267.25,-401.17"/>
</g>
<!-- configuration&#45;&gt;http -->
<g id="edge49" class="edge">
<title>configuration&#45;&gt;http</title>
<path fill="none" stroke="#0600ff" stroke-width="2" d="M461.24,-456C503.63,-456 568.61,-456 568.61,-456 568.61,-456 568.61,-228 568.61,-228 568.61,-228 858.33,-228 858.33,-228"/>
<polygon fill="#0600ff" stroke="#0600ff" stroke-width="2" points="858.33,-229.75 863.33,-228 858.33,-226.25 858.33,-229.75"/>
</g>
<!-- configuration&#45;&gt;kubernetes -->
<g id="edge50" class="edge">
<title>configuration&#45;&gt;kubernetes</title>
<path fill="none" stroke="#0600ff" stroke-width="2" d="M396.5,-431.83C396.5,-431.83 396.5,-401.41 396.5,-401.41"/>
<polygon fill="#0600ff" stroke="#0600ff" stroke-width="2" points="398.25,-401.41 396.5,-396.41 394.75,-401.41 398.25,-401.41"/>
</g>
<!-- configuration&#45;&gt;log -->
<g id="edge51" class="edge">
<title>configuration&#45;&gt;log</title>
<path fill="none" stroke="#0600ff" stroke-width="2" d="M450.64,-431.81C450.64,-359.06 450.64,-93 450.64,-93 450.64,-93 692.24,-93 692.24,-93"/>
<polygon fill="#0600ff" stroke="#0600ff" stroke-width="2" points="692.24,-94.75 697.24,-93 692.24,-91.25 692.24,-94.75"/>
</g>
<!-- configuration&#45;&gt;metrics -->
<g id="edge52" class="edge">
<title>configuration&#45;&gt;metrics</title>
<path fill="none" stroke="#0600ff" stroke-width="2" d="M456.86,-431.93C456.86,-395.35 456.86,-316 456.86,-316 456.86,-316 670.27,-316 670.27,-316"/>
<polygon fill="#0600ff" stroke="#0600ff" stroke-width="2" points="670.27,-317.75 675.27,-316 670.27,-314.25 670.27,-317.75"/>
</g>
<!-- configuration&#45;&gt;security -->
<g id="edge53" class="edge">
<title>configuration&#45;&gt;security</title>
<path fill="none" stroke="#0600ff" stroke-width="2" d="M389.95,-452C320.93,-452 175.5,-452 175.5,-452 175.5,-452 175.5,-401.29 175.5,-401.29"/>
<polygon fill="#0600ff" stroke="#0600ff" stroke-width="2" points="177.25,-401.29 175.5,-396.29 173.75,-401.29 177.25,-401.29"/>
</g>
<!-- configuration&#45;&gt;service -->
<g id="edge54" class="edge">
<title>configuration&#45;&gt;service</title>
<path fill="none" stroke="#0600ff" stroke-width="2" d="M452.71,-431.93C452.71,-369.69 452.71,-168 452.71,-168 452.71,-168 692.45,-168 692.45,-168"/>
<polygon fill="#0600ff" stroke="#0600ff" stroke-width="2" points="692.45,-169.75 697.45,-168 692.45,-166.25 692.45,-169.75"/>
</g>
<!-- configuration&#45;&gt;sshserver -->
<g id="edge55" class="edge">
<title>configuration&#45;&gt;sshserver</title>
<path fill="none" stroke="#0600ff" stroke-width="2" d="M389.74,-437C362.7,-437 330.2,-437 330.2,-437 330.2,-437 330.2,-329.21 330.2,-329.21"/>
<polygon fill="#0600ff" stroke="#0600ff" stroke-width="2" points="331.95,-329.21 330.2,-324.21 328.45,-329.22 331.95,-329.21"/>
</g>
<!-- configuration&#45;&gt;geoip -->
<g id="edge48" class="edge">
<title>configuration&#45;&gt;geoip</title>
<path fill="none" stroke="#0600ff" stroke-width="2" d="M454.79,-431.73C454.79,-380.64 454.79,-240 454.79,-240 454.79,-240 485.18,-240 485.18,-240"/>
<polygon fill="#0600ff" stroke="#0600ff" stroke-width="2" points="485.18,-241.75 490.18,-240 485.18,-238.25 485.18,-241.75"/>
</g>
<!-- configuration&#45;&gt;structutils -->
<g id="edge56" class="edge">
<title>configuration&#45;&gt;structutils</title>
<path fill="none" stroke="#0600ff" stroke-width="2" d="M461.24,-450C498.46,-450 551.39,-450 551.39,-450 551.39,-450 551.39,-24 551.39,-24 551.39,-24 689.74,-24 689.74,-24"/>
<polygon fill="#0600ff" stroke="#0600ff" stroke-width="2" points="689.74,-25.75 694.74,-24 689.74,-22.25 689.74,-25.75"/>
</g>
<!-- docker&#45;&gt;log -->
<g id="edge58" class="edge">
<title>docker&#45;&gt;log</title>
<path fill="none" stroke="#c400fc" stroke-width="2" d="M487.9,-359.93C487.9,-297.69 487.9,-96 487.9,-96 487.9,-96 692.36,-96 692.36,-96"/>
<polygon fill="#c400fc" stroke="#c400fc" stroke-width="2" points="692.36,-97.75 697.36,-96 692.36,-94.25 692.36,-97.75"/>
</g>
<!-- docker&#45;&gt;metrics -->
<g id="edge59" class="edge">
<title>docker&#45;&gt;metrics</title>
<path fill="none" stroke="#c400fc" stroke-width="2" d="M525.64,-359.97C525.64,-342.94 525.64,-320 525.64,-320 525.64,-320 670.25,-320 670.25,-320"/>
<polygon fill="#c400fc" stroke="#c400fc" stroke-width="2" points="670.25,-321.75 675.25,-320 670.25,-318.25 670.25,-321.75"/>
</g>
<!-- docker&#45;&gt;sshserver -->
<g id="edge60" class="edge">
<title>docker&#45;&gt;sshserver</title>
<path fill="none" stroke="#c400fc" stroke-width="2" d="M480.1,-359.97C480.1,-340.42 480.1,-312 480.1,-312 480.1,-312 349.55,-312 349.55,-312"/>
<polygon fill="#c400fc" stroke="#c400fc" stroke-width="2" points="349.55,-310.25 344.55,-312 349.55,-313.75 349.55,-310.25"/>
</g>
<!-- docker&#45;&gt;geoip -->
<g id="edge57" class="edge">
<title>docker&#45;&gt;geoip</title>
<path fill="none" stroke="#c400fc" stroke-width="2" d="M519.79,-359.76C519.79,-359.76 519.79,-257.09 519.79,-257.09"/>
<polygon fill="#c400fc" stroke="#c400fc" stroke-width="2" points="521.54,-257.09 519.79,-252.09 518.04,-257.09 521.54,-257.09"/>
</g>
<!-- docker&#45;&gt;structutils -->
<g id="edge61" class="edge">
<title>docker&#45;&gt;structutils</title>
<path fill="none" stroke="#c400fc" stroke-width="2" d="M485.3,-359.75C485.3,-286.8 485.3,-20 485.3,-20 485.3,-20 689.69,-20 689.69,-20"/>
<polygon fill="#c400fc" stroke="#c400fc" stroke-width="2" points="689.69,-21.75 694.69,-20 689.69,-18.25 689.69,-21.75"/>
</g>
<!-- unixutils -->
<g id="node20" class="node">
<title>unixutils</title>
<polygon fill="black" stroke="red" stroke-width="3" points="446.5,-252 392.5,-252 392.5,-216 446.5,-216 446.5,-252"/>
<text text-anchor="middle" x="419.5" y="-231.5" font-family="Arial" font-size="10.00" fill="white">unixutils</text>
</g>
<!-- docker&#45;&gt;unixutils -->
<g id="edge62" class="edge">
<title>docker&#45;&gt;unixutils</title>
<path fill="none" stroke="#c400fc" stroke-width="2" d="M482.7,-359.91C482.7,-320.01 482.7,-228 482.7,-228 482.7,-228 451.67,-228 451.67,-228"/>
<polygon fill="#c400fc" stroke="#c400fc" stroke-width="2" points="451.67,-226.25 446.67,-228 451.67,-229.75 451.67,-226.25"/>
</g>
<!-- sshproxy&#45;&gt;log -->
<g id="edge64" class="edge">
<title>sshproxy&#45;&gt;log</title>
<path fill="none" stroke="#c400fc" stroke-width="2" d="M262,-359.61C262,-295.25 262,-84 262,-84 262,-84 692.3,-84 692.3,-84"/>
<polygon fill="#c400fc" stroke="#c400fc" stroke-width="2" points="692.3,-85.75 697.3,-84 692.3,-82.25 692.3,-85.75"/>
</g>
<!-- sshproxy&#45;&gt;metrics -->
<g id="edge65" class="edge">
<title>sshproxy&#45;&gt;metrics</title>
<path fill="none" stroke="#c400fc" stroke-width="2" d="M274.25,-359.81C274.25,-356.46 274.25,-354 274.25,-354 274.25,-354 684.5,-354 684.5,-354 684.5,-354 684.5,-329.15 684.5,-329.15"/>
<polygon fill="#c400fc" stroke="#c400fc" stroke-width="2" points="686.25,-329.15 684.5,-324.15 682.75,-329.15 686.25,-329.15"/>
</g>
<!-- sshproxy&#45;&gt;sshserver -->
<g id="edge66" class="edge">
<title>sshproxy&#45;&gt;sshserver</title>
<path fill="none" stroke="#c400fc" stroke-width="2" d="M290,-359.83C290,-359.83 290,-329.41 290,-329.41"/>
<polygon fill="#c400fc" stroke="#c400fc" stroke-width="2" points="291.75,-329.41 290,-324.41 288.25,-329.41 291.75,-329.41"/>
</g>
<!-- sshproxy&#45;&gt;geoip -->
<g id="edge63" class="edge">
<title>sshproxy&#45;&gt;geoip</title>
<path fill="none" stroke="#c400fc" stroke-width="2" d="M291.75,-359.87C291.75,-349.69 291.75,-339 291.75,-339 291.75,-339 508.07,-339 508.07,-339 508.07,-339 508.07,-257.29 508.07,-257.29"/>
<polygon fill="#c400fc" stroke="#c400fc" stroke-width="2" points="509.82,-257.29 508.07,-252.29 506.32,-257.29 509.82,-257.29"/>
</g>
<!-- sshproxy&#45;&gt;structutils -->
<g id="edge67" class="edge">
<title>sshproxy&#45;&gt;structutils</title>
<path fill="none" stroke="#c400fc" stroke-width="2" d="M249.75,-359.9C249.75,-285.62 249.75,-8 249.75,-8 249.75,-8 689.8,-8 689.8,-8"/>
<polygon fill="#c400fc" stroke="#c400fc" stroke-width="2" points="689.8,-9.75 694.8,-8 689.8,-6.25 689.8,-9.75"/>
</g>
<!-- http&#45;&gt;log -->
<g id="edge68" class="edge">
<title>http&#45;&gt;log</title>
<path fill="none" stroke="#00dbfc" stroke-width="2" d="M881.5,-215.85C881.5,-175.32 881.5,-81 881.5,-81 881.5,-81 756.85,-81 756.85,-81"/>
<polygon fill="#00dbfc" stroke="#00dbfc" stroke-width="2" points="756.85,-79.25 751.85,-81 756.85,-82.75 756.85,-79.25"/>
</g>
<!-- http&#45;&gt;service -->
<g id="edge69" class="edge">
<title>http&#45;&gt;service</title>
<path fill="none" stroke="#00dbfc" stroke-width="2" d="M863.33,-222C821.94,-222 747.83,-222 747.83,-222 747.83,-222 747.83,-185 747.83,-185"/>
<polygon fill="#00dbfc" stroke="#00dbfc" stroke-width="2" points="749.58,-185 747.83,-180 746.08,-185 749.58,-185"/>
</g>
<!-- http&#45;&gt;structutils -->
<g id="edge70" class="edge">
<title>http&#45;&gt;structutils</title>
<path fill="none" stroke="#00dbfc" stroke-width="2" d="M899.5,-215.83C899.5,-162.81 899.5,-12 899.5,-12 899.5,-12 759.19,-12 759.19,-12"/>
<polygon fill="#00dbfc" stroke="#00dbfc" stroke-width="2" points="759.19,-10.25 754.19,-12 759.19,-13.75 759.19,-10.25"/>
</g>
<!-- kubernetes&#45;&gt;log -->
<g id="edge72" class="edge">
<title>kubernetes&#45;&gt;log</title>
<path fill="none" stroke="#c400fc" stroke-width="2" d="M368.5,-359.98C368.5,-296.93 368.5,-90 368.5,-90 368.5,-90 692.45,-90 692.45,-90"/>
<polygon fill="#c400fc" stroke="#c400fc" stroke-width="2" points="692.45,-91.75 697.45,-90 692.45,-88.25 692.45,-91.75"/>
</g>
<!-- kubernetes&#45;&gt;metrics -->
<g id="edge73" class="edge">
<title>kubernetes&#45;&gt;metrics</title>
<path fill="none" stroke="#c400fc" stroke-width="2" d="M380.5,-359.91C380.5,-336.87 380.5,-300 380.5,-300 380.5,-300 670.32,-300 670.32,-300"/>
<polygon fill="#c400fc" stroke="#c400fc" stroke-width="2" points="670.32,-301.75 675.32,-300 670.32,-298.25 670.32,-301.75"/>
</g>
<!-- kubernetes&#45;&gt;sshserver -->
<g id="edge74" class="edge">
<title>kubernetes&#45;&gt;sshserver</title>
<path fill="none" stroke="#c400fc" stroke-width="2" d="M338,-372C335.6,-372 334.1,-372 334.1,-372 334.1,-372 334.1,-329.03 334.1,-329.03"/>
<polygon fill="#c400fc" stroke="#c400fc" stroke-width="2" points="335.85,-329.03 334.1,-324.03 332.35,-329.03 335.85,-329.03"/>
</g>
<!-- kubernetes&#45;&gt;geoip -->
<g id="edge71" class="edge">
<title>kubernetes&#45;&gt;geoip</title>
<path fill="none" stroke="#c400fc" stroke-width="2" d="M395.12,-359.81C395.12,-351.72 395.12,-344 395.12,-344 395.12,-344 513.93,-344 513.93,-344 513.93,-344 513.93,-257.16 513.93,-257.16"/>
<polygon fill="#c400fc" stroke="#c400fc" stroke-width="2" points="515.68,-257.16 513.93,-252.16 512.18,-257.16 515.68,-257.16"/>
</g>
<!-- kubernetes&#45;&gt;structutils -->
<g id="edge75" class="edge">
<title>kubernetes&#45;&gt;structutils</title>
<path fill="none" stroke="#c400fc" stroke-width="2" d="M356.5,-359.55C356.5,-285.78 356.5,-16 356.5,-16 356.5,-16 689.7,-16 689.7,-16"/>
<polygon fill="#c400fc" stroke="#c400fc" stroke-width="2" points="689.7,-17.75 694.7,-16 689.7,-14.25 689.7,-17.75"/>
</g>
<!-- kubernetes&#45;&gt;unixutils -->
<g id="edge76" class="edge">
<title>kubernetes&#45;&gt;unixutils</title>
<path fill="none" stroke="#c400fc" stroke-width="2" d="M400.38,-359.76C400.38,-359.76 400.38,-257.09 400.38,-257.09"/>
<polygon fill="#c400fc" stroke="#c400fc" stroke-width="2" points="402.13,-257.09 400.38,-252.09 398.63,-257.09 402.13,-257.09"/>
</g>
<!-- log&#45;&gt;structutils -->
<g id="edge77" class="edge">
<title>log&#45;&gt;structutils</title>
<path fill="none" stroke="#00c900" stroke-width="2" d="M724.5,-71.83C724.5,-71.83 724.5,-41.41 724.5,-41.41"/>
<polygon fill="#00c900" stroke="#00c900" stroke-width="2" points="726.25,-41.41 724.5,-36.41 722.75,-41.41 726.25,-41.41"/>
</g>
<!-- metrics&#45;&gt;http -->
<g id="edge79" class="edge">
<title>metrics&#45;&gt;http</title>
<path fill="none" stroke="#fce700" stroke-width="2" d="M718.83,-287.97C718.83,-268.42 718.83,-240 718.83,-240 718.83,-240 858.3,-240 858.3,-240"/>
<polygon fill="#fce700" stroke="#fce700" stroke-width="2" points="858.3,-241.75 863.3,-240 858.3,-238.25 858.3,-241.75"/>
</g>
<!-- metrics&#45;&gt;log -->
<g id="edge80" class="edge">
<title>metrics&#45;&gt;log</title>
<path fill="none" stroke="#fce700" stroke-width="2" d="M688.5,-287.81C688.5,-238.33 688.5,-105 688.5,-105 688.5,-105 692.21,-105 692.21,-105"/>
<polygon fill="#fce700" stroke="#fce700" stroke-width="2" points="692.21,-106.75 697.21,-105 692.21,-103.25 692.21,-106.75"/>
</g>
<!-- metrics&#45;&gt;service -->
<g id="edge81" class="edge">
<title>metrics&#45;&gt;service</title>
<path fill="none" stroke="#fce700" stroke-width="2" d="M708.17,-287.76C708.17,-287.76 708.17,-185.09 708.17,-185.09"/>
<polygon fill="#fce700" stroke="#fce700" stroke-width="2" points="709.92,-185.09 708.17,-180.09 706.42,-185.09 709.92,-185.09"/>
</g>
<!-- metrics&#45;&gt;geoip -->
<g id="edge78" class="edge">
<title>metrics&#45;&gt;geoip</title>
<path fill="none" stroke="#fce700" stroke-width="2" d="M675.33,-296C629.12,-296 540.17,-296 540.17,-296 540.17,-296 540.17,-257.27 540.17,-257.27"/>
<polygon fill="#fce700" stroke="#fce700" stroke-width="2" points="541.92,-257.27 540.17,-252.27 538.42,-257.27 541.92,-257.27"/>
</g>
<!-- metrics&#45;&gt;structutils -->
<g id="edge82" class="edge">
<title>metrics&#45;&gt;structutils</title>
<path fill="none" stroke="#fce700" stroke-width="2" d="M682,-287.56C682,-221.99 682,-4 682,-4 682,-4 689.98,-4 689.98,-4"/>
<polygon fill="#fce700" stroke="#fce700" stroke-width="2" points="689.98,-5.75 694.98,-4 689.98,-2.25 689.98,-5.75"/>
</g>
<!-- metricsintegration&#45;&gt;metrics -->
<g id="edge84" class="edge">
<title>metricsintegration&#45;&gt;metrics</title>
<path fill="none" stroke="#c400fc" stroke-width="2" d="M669.86,-369C682.88,-369 693.5,-369 693.5,-369 693.5,-369 693.5,-329.22 693.5,-329.22"/>
<polygon fill="#c400fc" stroke="#c400fc" stroke-width="2" points="695.25,-329.22 693.5,-324.22 691.75,-329.22 695.25,-329.22"/>
</g>
<!-- metricsintegration&#45;&gt;sshserver -->
<g id="edge85" class="edge">
<title>metricsintegration&#45;&gt;sshserver</title>
<path fill="none" stroke="#c400fc" stroke-width="2" d="M622.5,-359.71C622.5,-337.79 622.5,-304 622.5,-304 622.5,-304 349.66,-304 349.66,-304"/>
<polygon fill="#c400fc" stroke="#c400fc" stroke-width="2" points="349.66,-302.25 344.66,-304 349.66,-305.75 349.66,-302.25"/>
</g>
<!-- metricsintegration&#45;&gt;geoip -->
<g id="edge83" class="edge">
<title>metricsintegration&#45;&gt;geoip</title>
<path fill="none" stroke="#c400fc" stroke-width="2" d="M575.31,-378C555.95,-378 538,-378 538,-378 538,-378 538,-257.24 538,-257.24"/>
<polygon fill="#c400fc" stroke="#c400fc" stroke-width="2" points="539.75,-257.24 538,-252.24 536.25,-257.24 539.75,-257.24"/>
</g>
<!-- security&#45;&gt;log -->
<g id="edge86" class="edge">
<title>security&#45;&gt;log</title>
<path fill="none" stroke="#c400fc" stroke-width="2" d="M157.5,-359.87C157.5,-295.39 157.5,-81 157.5,-81 157.5,-81 692.15,-81 692.15,-81"/>
<polygon fill="#c400fc" stroke="#c400fc" stroke-width="2" points="692.15,-82.75 697.15,-81 692.15,-79.25 692.15,-82.75"/>
</g>
<!-- security&#45;&gt;sshserver -->
<g id="edge87" class="edge">
<title>security&#45;&gt;sshserver</title>
<path fill="none" stroke="#c400fc" stroke-width="2" d="M175.5,-359.91C175.5,-336.87 175.5,-300 175.5,-300 175.5,-300 281.49,-300 281.49,-300"/>
<polygon fill="#c400fc" stroke="#c400fc" stroke-width="2" points="281.49,-301.75 286.49,-300 281.49,-298.25 281.49,-301.75"/>
</g>
<!-- service&#45;&gt;log -->
<g id="edge88" class="edge">
<title>service&#45;&gt;log</title>
<path fill="none" stroke="#ff0000" stroke-width="2" d="M724.5,-143.83C724.5,-143.83 724.5,-113.41 724.5,-113.41"/>
<polygon fill="#ff0000" stroke="#ff0000" stroke-width="2" points="726.25,-113.41 724.5,-108.41 722.75,-113.41 726.25,-113.41"/>
</g>
<!-- sshserver&#45;&gt;log -->
<g id="edge89" class="edge">
<title>sshserver&#45;&gt;log</title>
<path fill="none" stroke="#fce700" stroke-width="2" d="M315.5,-287.7C315.5,-235.07 315.5,-87 315.5,-87 315.5,-87 692.35,-87 692.35,-87"/>
<polygon fill="#fce700" stroke="#fce700" stroke-width="2" points="692.35,-88.75 697.35,-87 692.35,-85.25 692.35,-88.75"/>
</g>
<!-- sshserver&#45;&gt;service -->
<g id="edge90" class="edge">
<title>sshserver&#45;&gt;service</title>
<path fill="none" stroke="#fce700" stroke-width="2" d="M330,-287.91C330,-248.01 330,-156 330,-156 330,-156 692.38,-156 692.38,-156"/>
<polygon fill="#fce700" stroke="#fce700" stroke-width="2" points="692.38,-157.75 697.38,-156 692.38,-154.25 692.38,-157.75"/>
</g>
<!-- sshserver&#45;&gt;structutils -->
<g id="edge91" class="edge">
<title>sshserver&#45;&gt;structutils</title>
<path fill="none" stroke="#fce700" stroke-width="2" d="M301,-287.61C301,-223.25 301,-12 301,-12 301,-12 689.72,-12 689.72,-12"/>
<polygon fill="#fce700" stroke="#fce700" stroke-width="2" points="689.72,-13.75 694.72,-12 689.72,-10.25 689.72,-13.75"/>
</g>
<!-- sshserver&#45;&gt;unixutils -->
<g id="edge92" class="edge">
<title>sshserver&#45;&gt;unixutils</title>
<path fill="none" stroke="#fce700" stroke-width="2" d="M344.73,-292C368.37,-292 397.75,-292 397.75,-292 397.75,-292 397.75,-257.03 397.75,-257.03"/>
<polygon fill="#fce700" stroke="#fce700" stroke-width="2" points="399.5,-257.03 397.75,-252.03 396,-257.03 399.5,-257.03"/>
</g>
</g>
</svg>
