<svg id="Layer_1" data-name="Layer 1" xmlns="http://www.w3.org/2000/svg" viewBox="0 0 1920 912"><line x1="1240.87" y1="147.45" x2="1350.23" y2="147.45" style="fill:red;stroke:#00c900;stroke-miterlimit:10;stroke-width:30px"/><line x1="1350.23" y1="147.45" x2="1295.55" y2="75.94" style="fill:red;stroke:#00c900;stroke-miterlimit:10;stroke-width:30px"/><line x1="1295.55" y1="216.15" x2="1350.23" y2="144.64" style="fill:red;stroke:#00c900;stroke-miterlimit:10;stroke-width:30px"/><line x1="1240.87" y1="465.73" x2="1350.23" y2="465.73" style="fill:red;stroke:#00c900;stroke-miterlimit:10;stroke-width:30px"/><line x1="1350.23" y1="465.73" x2="1295.55" y2="394.22" style="fill:red;stroke:#00c900;stroke-miterlimit:10;stroke-width:30px"/><line x1="1295.55" y1="534.43" x2="1350.23" y2="462.92" style="fill:red;stroke:#00c900;stroke-miterlimit:10;stroke-width:30px"/><line x1="1240.87" y1="784.01" x2="1350.23" y2="784.01" style="fill:red;stroke:#00c900;stroke-miterlimit:10;stroke-width:30px"/><line x1="1350.23" y1="784.01" x2="1295.55" y2="712.5" style="fill:red;stroke:#00c900;stroke-miterlimit:10;stroke-width:30px"/><line x1="1295.55" y1="852.71" x2="1350.23" y2="781.2" style="fill:red;stroke:#00c900;stroke-miterlimit:10;stroke-width:30px"/><line x1="567.42" y1="454.85" x2="676.77" y2="454.85" style="fill:red;stroke:#00c900;stroke-miterlimit:10;stroke-width:30px"/><line x1="676.77" y1="454.85" x2="622.09" y2="383.34" style="fill:red;stroke:#00c900;stroke-miterlimit:10;stroke-width:30px"/><line x1="622.09" y1="523.55" x2="676.77" y2="452.04" style="fill:red;stroke:#00c900;stroke-miterlimit:10;stroke-width:30px"/><rect x="5" y="5" width="564.89" height="902"/><path d="M6804.39,6753.5v892H6249.5v-892h554.89m10-10H6239.5v912h574.89v-912Z" transform="translate(-6239.5 -6743.5)" style="fill:red"/><text transform="translate(187.42 442.6)" style="font-size:72px;fill:#fff;font-family:ArialMT, Arial">USER</text><text transform="translate(110.99 495.28)" style="font-size:36px;fill:#fff;font-family:ArialMT, Arial">ssh user@servername</text><rect x="677.56" y="5" width="564.89" height="902"/><path d="M7476.94,6753.5v892H6922.06v-892h554.88m10-10H6912.06v912h574.88v-912Z" transform="translate(-6239.5 -6743.5)" style="fill:red"/><rect x="1350.11" y="5" width="564.89" height="282.09"/><path d="M8149.5,6753.5v272.09H7594.61V6753.5H8149.5m10-10H7584.61v292.09H8159.5V6743.5Z" transform="translate(-6239.5 -6743.5)" style="fill:red"/><rect x="1350.11" y="314.95" width="564.89" height="282.09"/><path d="M8149.5,7063.45v272.1H7594.61v-272.1H8149.5m10-10H7584.61v292.1H8159.5v-292.1Z" transform="translate(-6239.5 -6743.5)" style="fill:red"/><rect x="1350.11" y="624.91" width="564.89" height="282.09"/><path d="M8149.5,7373.41V7645.5H7594.61V7373.41H8149.5m10-10H7584.61V7655.5H8159.5V7363.41Z" transform="translate(-6239.5 -6743.5)" style="fill:red"/><text transform="translate(729.88 480.42)" style="font-size:72px;fill:#fff;font-family:ArialMT, Arial">ContainerSSH</text><text transform="translate(1463.59 205.18)" style="font-size:64px;fill:#fff;font-family:ArialMT, Arial">Auth Server</text><text transform="translate(1441.47 258.44)" style="font-size:36px;fill:#fff;font-family:ArialMT, Arial"><tspan style="letter-spacing:-0.05517578125em">V</tspan><tspan x="22.03" y="0">erifies user credentials</tspan></text><text transform="translate(1436.92 520.73)" style="font-size:64px;fill:#fff;font-family:ArialMT, Arial">Config Server</text><text transform="translate(1469.48 571.27)" style="font-size:36px;fill:#fff;font-family:ArialMT, Arial">Provides user config</text><text transform="translate(1508.03 825.8)" style="font-size:64px;fill:#fff;font-family:ArialMT, Arial">Backend</text><circle cx="6529.31" cy="7050.55" r="55.29" transform="translate(-8072.26 5041.8) rotate(-76.72)"/><path d="M6529.31,7000.26a50.29,50.29,0,1,1-50.29,50.29,50.35,50.35,0,0,1,50.29-50.29m0-10a60.29,60.29,0,1,0,60.29,60.29,60.29,60.29,0,0,0-60.29-60.29Z" transform="translate(-6239.5 -6743.5)" style="fill:red"/><text transform="translate(260.95 341.95)" style="font-size:97.10162353515625px;fill:#00c900;font-family:Arial-BoldMT, Arial;font-weight:700">1</text><circle cx="1635.28" cy="81.76" r="55.29"/><path d="M7874.78,6775a50.29,50.29,0,1,1-50.29,50.29,50.34,50.34,0,0,1,50.29-50.29m0-10a60.29,60.29,0,1,0,60.28,60.29,60.29,60.29,0,0,0-60.28-60.29Z" transform="translate(-6239.5 -6743.5)" style="fill:red"/><text transform="translate(1606.42 116.65)" style="font-size:97.10162353515625px;fill:#00c900;font-family:Arial-BoldMT, Arial;font-weight:700">2</text><circle cx="7874.78" cy="7135.06" r="55.29" transform="translate(-7118.16 6416.38) rotate(-76.72)"/><path d="M7874.78,7084.77a50.29,50.29,0,1,1-50.29,50.29,50.34,50.34,0,0,1,50.29-50.29m0-10a60.29,60.29,0,1,0,60.28,60.29,60.29,60.29,0,0,0-60.28-60.29Z" transform="translate(-6239.5 -6743.5)" style="fill:red"/><text transform="translate(1606.42 426.46)" style="font-size:97.10162353515625px;fill:#00c900;font-family:Arial-BoldMT, Arial;font-weight:700">3</text><circle cx="7874.78" cy="7445.86" r="55.29" transform="translate(-7420.65 6655.78) rotate(-76.72)"/><path d="M7874.78,7395.58a50.29,50.29,0,1,1-50.29,50.28,50.34,50.34,0,0,1,50.29-50.28m0-10a60.29,60.29,0,1,0,60.28,60.28,60.28,60.28,0,0,0-60.28-60.28Z" transform="translate(-6239.5 -6743.5)" style="fill:red"/><text transform="translate(1606.42 737.26)" style="font-size:97.10162353515625px;fill:#00c900;font-family:Arial-BoldMT, Arial;font-weight:700">4</text><text transform="translate(1386.43 872.3)" style="font-size:36px;fill:#fff;font-family:ArialMT, Arial">Kubernetes / Docker / Podman</text></svg>