<?xml version="1.0" encoding="UTF-8" standalone="no"?>
<!DOCTYPE svg PUBLIC "-//W3C//DTD SVG 1.1//EN"
 "http://www.w3.org/Graphics/SVG/1.1/DTD/svg11.dtd">
<!-- Generated by graphviz version 2.46.1 (20210213.1702)
 -->
<!-- Title: layers Pages: 1 -->
<svg width="225pt" height="404pt"
 viewBox="0.00 0.00 225.00 404.00" xmlns="http://www.w3.org/2000/svg" xmlns:xlink="http://www.w3.org/1999/xlink">
<g id="graph0" class="graph" transform="scale(1 1) rotate(0) translate(4 400)">
<title>layers</title>
<polygon fill="white" stroke="transparent" points="-4,4 -4,-400 221,-400 221,4 -4,4"/>
<!-- SSH -->
<g id="node1" class="node">
<title>SSH</title>
<polygon fill="black" stroke="red" stroke-width="3" points="128,-396 74,-396 74,-360 128,-360 128,-396"/>
<text text-anchor="middle" x="101" y="-375.5" font-family="Arial" font-size="10.00" fill="white">SSH</text>
</g>
<!-- auditlogintegration -->
<g id="node2" class="node">
<title>auditlogintegration</title>
<polygon fill="black" stroke="red" stroke-width="3" points="148.5,-324 53.5,-324 53.5,-288 148.5,-288 148.5,-324"/>
<text text-anchor="middle" x="101" y="-303.5" font-family="Arial" font-size="10.00" fill="white">auditlogintegration</text>
</g>
<!-- SSH&#45;&gt;auditlogintegration -->
<g id="edge1" class="edge">
<title>SSH&#45;&gt;auditlogintegration</title>
<path fill="none" stroke="#00c900" stroke-width="2" d="M101,-359.83C101,-359.83 101,-329.41 101,-329.41"/>
<polygon fill="#00c900" stroke="#00c900" stroke-width="2" points="102.75,-329.41 101,-324.41 99.25,-329.41 102.75,-329.41"/>
</g>
<!-- auditlog -->
<g id="node3" class="node">
<title>auditlog</title>
<polygon fill="black" stroke="red" stroke-width="3" points="217,-324 163,-324 163,-288 217,-288 217,-324"/>
<text text-anchor="middle" x="190" y="-303.5" font-family="Arial" font-size="10.00" fill="white">auditlog</text>
</g>
<!-- auditlogintegration&#45;&gt;auditlog -->
<g id="edge2" class="edge">
<title>auditlogintegration&#45;&gt;auditlog</title>
<path fill="none" stroke="#00c900" stroke-width="2" d="M148.63,-306C148.63,-306 157.64,-306 157.64,-306"/>
<polygon fill="#00c900" stroke="#00c900" stroke-width="2" points="157.64,-307.75 162.64,-306 157.64,-304.25 157.64,-307.75"/>
</g>
<!-- authintegration -->
<g id="node4" class="node">
<title>authintegration</title>
<polygon fill="black" stroke="red" stroke-width="3" points="141,-252 61,-252 61,-216 141,-216 141,-252"/>
<text text-anchor="middle" x="101" y="-231.5" font-family="Arial" font-size="10.00" fill="white">authintegration</text>
</g>
<!-- auditlogintegration&#45;&gt;authintegration -->
<g id="edge3" class="edge">
<title>auditlogintegration&#45;&gt;authintegration</title>
<path fill="none" stroke="#00c900" stroke-width="2" d="M101,-287.83C101,-287.83 101,-257.41 101,-257.41"/>
<polygon fill="#00c900" stroke="#00c900" stroke-width="2" points="102.75,-257.41 101,-252.41 99.25,-257.41 102.75,-257.41"/>
</g>
<!-- auth -->
<g id="node5" class="node">
<title>auth</title>
<polygon fill="black" stroke="red" stroke-width="3" points="209,-252 155,-252 155,-216 209,-216 209,-252"/>
<text text-anchor="middle" x="182" y="-231.5" font-family="Arial" font-size="10.00" fill="white">auth</text>
</g>
<!-- authintegration&#45;&gt;auth -->
<g id="edge4" class="edge">
<title>authintegration&#45;&gt;auth</title>
<path fill="none" stroke="#00c900" stroke-width="2" d="M141.03,-234C141.03,-234 149.68,-234 149.68,-234"/>
<polygon fill="#00c900" stroke="#00c900" stroke-width="2" points="149.68,-235.75 154.68,-234 149.68,-232.25 149.68,-235.75"/>
</g>
<!-- backend -->
<g id="node6" class="node">
<title>backend</title>
<polygon fill="black" stroke="red" stroke-width="3" points="128,-180 74,-180 74,-144 128,-144 128,-180"/>
<text text-anchor="middle" x="101" y="-159.5" font-family="Arial" font-size="10.00" fill="white">backend</text>
</g>
<!-- authintegration&#45;&gt;backend -->
<g id="edge5" class="edge">
<title>authintegration&#45;&gt;backend</title>
<path fill="none" stroke="#00c900" stroke-width="2" d="M101,-215.83C101,-215.83 101,-185.41 101,-185.41"/>
<polygon fill="#00c900" stroke="#00c900" stroke-width="2" points="102.75,-185.41 101,-180.41 99.25,-185.41 102.75,-185.41"/>
</g>
<!-- configuration -->
<g id="node7" class="node">
<title>configuration</title>
<polygon fill="black" stroke="red" stroke-width="3" points="213.5,-180 142.5,-180 142.5,-144 213.5,-144 213.5,-180"/>
<text text-anchor="middle" x="178" y="-159.5" font-family="Arial" font-size="10.00" fill="white">configuration</text>
</g>
<!-- backend&#45;&gt;configuration -->
<g id="edge6" class="edge">
<title>backend&#45;&gt;configuration</title>
<path fill="none" stroke="#00c900" stroke-width="2" d="M128.36,-162C128.36,-162 137.24,-162 137.24,-162"/>
<polygon fill="#00c900" stroke="#00c900" stroke-width="2" points="137.24,-163.75 142.24,-162 137.24,-160.25 137.24,-163.75"/>
</g>
<!-- security -->
<g id="node8" class="node">
<title>security</title>
<polygon fill="black" stroke="red" stroke-width="3" points="128,-108 74,-108 74,-72 128,-72 128,-108"/>
<text text-anchor="middle" x="101" y="-87.5" font-family="Arial" font-size="10.00" fill="white">security</text>
</g>
<!-- backend&#45;&gt;security -->
<g id="edge7" class="edge">
<title>backend&#45;&gt;security</title>
<path fill="none" stroke="#00c900" stroke-width="2" d="M101,-143.83C101,-143.83 101,-113.41 101,-113.41"/>
<polygon fill="#00c900" stroke="#00c900" stroke-width="2" points="102.75,-113.41 101,-108.41 99.25,-113.41 102.75,-113.41"/>
</g>
<!-- Docker -->
<g id="node9" class="node">
<title>Docker</title>
<polygon fill="black" stroke="red" stroke-width="3" points="54,-36 0,-36 0,0 54,0 54,-36"/>
<text text-anchor="middle" x="27" y="-15.5" font-family="Arial" font-size="10.00" fill="white">Docker</text>
</g>
<!-- security&#45;&gt;Docker -->
<g id="edge8" class="edge">
<title>security&#45;&gt;Docker</title>
<path fill="none" stroke="#00c900" stroke-width="2" d="M73.77,-90C52.58,-90 26.75,-90 26.75,-90 26.75,-90 26.75,-41.17 26.75,-41.17"/>
<polygon fill="#00c900" stroke="#00c900" stroke-width="2" points="28.5,-41.17 26.75,-36.17 25,-41.17 28.5,-41.17"/>
</g>
<!-- Kubernetes -->
<g id="node10" class="node">
<title>Kubernetes</title>
<polygon fill="black" stroke="red" stroke-width="3" points="134,-36 68,-36 68,0 134,0 134,-36"/>
<text text-anchor="middle" x="101" y="-15.5" font-family="Arial" font-size="10.00" fill="white">Kubernetes</text>
</g>
<!-- security&#45;&gt;Kubernetes -->
<g id="edge9" class="edge">
<title>security&#45;&gt;Kubernetes</title>
<path fill="none" stroke="#00c900" stroke-width="2" d="M101,-71.83C101,-71.83 101,-41.41 101,-41.41"/>
<polygon fill="#00c900" stroke="#00c900" stroke-width="2" points="102.75,-41.41 101,-36.41 99.25,-41.41 102.75,-41.41"/>
</g>
<!-- SSH proxy -->
<g id="node11" class="node">
<title>SSH proxy</title>
<polygon fill="black" stroke="red" stroke-width="3" points="212,-36 148,-36 148,0 212,0 212,-36"/>
<text text-anchor="middle" x="180" y="-15.5" font-family="Arial" font-size="10.00" fill="white">SSH proxy</text>
</g>
<!-- security&#45;&gt;SSH proxy -->
<g id="edge10" class="edge">
<title>security&#45;&gt;SSH proxy</title>
<path fill="none" stroke="#00c900" stroke-width="2" d="M128.19,-90C151.04,-90 180,-90 180,-90 180,-90 180,-41.17 180,-41.17"/>
<polygon fill="#00c900" stroke="#00c900" stroke-width="2" points="181.75,-41.17 180,-36.17 178.25,-41.17 181.75,-41.17"/>
</g>
</g>
</svg>
