<?xml version="1.0" encoding="UTF-8" standalone="no"?>
<!DOCTYPE svg PUBLIC "-//W3C//DTD SVG 1.1//EN"
 "http://www.w3.org/Graphics/SVG/1.1/DTD/svg11.dtd">
<!-- Generated by graphviz version 2.46.1 (20210213.1702)
 -->
<!-- Title: ContainerSSH Pages: 1 -->
<svg width="928pt" height="620pt"
 viewBox="0.00 0.00 928.00 620.00" xmlns="http://www.w3.org/2000/svg" xmlns:xlink="http://www.w3.org/1999/xlink">
<g id="graph0" class="graph" transform="scale(1 1) rotate(0) translate(4 616)">
<title>ContainerSSH</title>
<polygon fill="white" stroke="transparent" points="-4,4 -4,-616 924,-616 924,4 -4,4"/>
<!-- ContainerSSH -->
<g id="node1" class="node">
<title>ContainerSSH</title>
<polygon fill="black" stroke="red" stroke-width="3" points="437,-612 359,-612 359,-576 437,-576 437,-612"/>
<text text-anchor="middle" x="398" y="-591.5" font-family="Arial" font-size="10.00" fill="white">ContainerSSH</text>
</g>
<!-- auditlog -->
<g id="node2" class="node">
<title>auditlog</title>
<polygon fill="black" stroke="red" stroke-width="3" points="274,-324 220,-324 220,-288 274,-288 274,-324"/>
<text text-anchor="middle" x="247" y="-303.5" font-family="Arial" font-size="10.00" fill="white">auditlog</text>
</g>
<!-- ContainerSSH&#45;&gt;auditlog -->
<g id="edge1" class="edge">
<title>ContainerSSH&#45;&gt;auditlog</title>
<path fill="none" stroke="#00c900" stroke-width="2" d="M427.4,-575.73C427.4,-511.81 427.4,-302 427.4,-302 427.4,-302 279.01,-302 279.01,-302"/>
<polygon fill="#00c900" stroke="#00c900" stroke-width="2" points="279.01,-300.25 274.01,-302 279.01,-303.75 279.01,-300.25"/>
</g>
<!-- auditlogintegration -->
<g id="node3" class="node">
<title>auditlogintegration</title>
<polygon fill="black" stroke="red" stroke-width="3" points="285.5,-396 190.5,-396 190.5,-360 285.5,-360 285.5,-396"/>
<text text-anchor="middle" x="238" y="-375.5" font-family="Arial" font-size="10.00" fill="white">auditlogintegration</text>
</g>
<!-- ContainerSSH&#45;&gt;auditlogintegration -->
<g id="edge2" class="edge">
<title>ContainerSSH&#45;&gt;auditlogintegration</title>
<path fill="none" stroke="#00c900" stroke-width="2" d="M358.93,-598C313.53,-598 244.75,-598 244.75,-598 244.75,-598 244.75,-401 244.75,-401"/>
<polygon fill="#00c900" stroke="#00c900" stroke-width="2" points="246.5,-401 244.75,-396 243,-401 246.5,-401"/>
</g>
<!-- auth -->
<g id="node4" class="node">
<title>auth</title>
<polygon fill="black" stroke="red" stroke-width="3" points="86,-396 32,-396 32,-360 86,-360 86,-396"/>
<text text-anchor="middle" x="59" y="-375.5" font-family="Arial" font-size="10.00" fill="white">auth</text>
</g>
<!-- ContainerSSH&#45;&gt;auth -->
<g id="edge3" class="edge">
<title>ContainerSSH&#45;&gt;auth</title>
<path fill="none" stroke="#00c900" stroke-width="2" d="M358.76,-607C267.75,-607 50,-607 50,-607 50,-607 50,-401.35 50,-401.35"/>
<polygon fill="#00c900" stroke="#00c900" stroke-width="2" points="51.75,-401.35 50,-396.35 48.25,-401.35 51.75,-401.35"/>
</g>
<!-- authintegration -->
<g id="node5" class="node">
<title>authintegration</title>
<polygon fill="black" stroke="red" stroke-width="3" points="204,-468 124,-468 124,-432 204,-432 204,-468"/>
<text text-anchor="middle" x="164" y="-447.5" font-family="Arial" font-size="10.00" fill="white">authintegration</text>
</g>
<!-- ContainerSSH&#45;&gt;authintegration -->
<g id="edge4" class="edge">
<title>ContainerSSH&#45;&gt;authintegration</title>
<path fill="none" stroke="#00c900" stroke-width="2" d="M358.83,-603C292.22,-603 164,-603 164,-603 164,-603 164,-473.15 164,-473.15"/>
<polygon fill="#00c900" stroke="#00c900" stroke-width="2" points="165.75,-473.15 164,-468.15 162.25,-473.15 165.75,-473.15"/>
</g>
<!-- backend -->
<g id="node6" class="node">
<title>backend</title>
<polygon fill="black" stroke="red" stroke-width="3" points="425,-540 371,-540 371,-504 425,-504 425,-540"/>
<text text-anchor="middle" x="398" y="-519.5" font-family="Arial" font-size="10.00" fill="white">backend</text>
</g>
<!-- ContainerSSH&#45;&gt;backend -->
<g id="edge5" class="edge">
<title>ContainerSSH&#45;&gt;backend</title>
<path fill="none" stroke="#00c900" stroke-width="2" d="M398,-575.83C398,-575.83 398,-545.41 398,-545.41"/>
<polygon fill="#00c900" stroke="#00c900" stroke-width="2" points="399.75,-545.41 398,-540.41 396.25,-545.41 399.75,-545.41"/>
</g>
<!-- configuration -->
<g id="node7" class="node">
<title>configuration</title>
<polygon fill="black" stroke="red" stroke-width="3" points="375.5,-468 304.5,-468 304.5,-432 375.5,-432 375.5,-468"/>
<text text-anchor="middle" x="340" y="-447.5" font-family="Arial" font-size="10.00" fill="white">configuration</text>
</g>
<!-- ContainerSSH&#45;&gt;configuration -->
<g id="edge6" class="edge">
<title>ContainerSSH&#45;&gt;configuration</title>
<path fill="none" stroke="#00c900" stroke-width="2" d="M363,-575.76C363,-575.76 363,-473.09 363,-473.09"/>
<polygon fill="#00c900" stroke="#00c900" stroke-width="2" points="364.75,-473.09 363,-468.09 361.25,-473.09 364.75,-473.09"/>
</g>
<!-- http -->
<g id="node11" class="node">
<title>http</title>
<polygon fill="black" stroke="red" stroke-width="3" points="54,-252 0,-252 0,-216 54,-216 54,-252"/>
<text text-anchor="middle" x="27" y="-231.5" font-family="Arial" font-size="10.00" fill="white">http</text>
</g>
<!-- ContainerSSH&#45;&gt;http -->
<g id="edge8" class="edge">
<title>ContainerSSH&#45;&gt;http</title>
<path fill="none" stroke="#00c900" stroke-width="2" d="M358.84,-594C327.46,-594 288.67,-594 288.67,-594 288.67,-594 288.67,-232 288.67,-232 288.67,-232 59.02,-232 59.02,-232"/>
<polygon fill="#00c900" stroke="#00c900" stroke-width="2" points="59.02,-230.25 54.02,-232 59.02,-233.75 59.02,-230.25"/>
</g>
<!-- log -->
<g id="node13" class="node">
<title>log</title>
<polygon fill="black" stroke="red" stroke-width="3" points="234,-108 180,-108 180,-72 234,-72 234,-108"/>
<text text-anchor="middle" x="207" y="-87.5" font-family="Arial" font-size="10.00" fill="white">log</text>
</g>
<!-- ContainerSSH&#45;&gt;log -->
<g id="edge9" class="edge">
<title>ContainerSSH&#45;&gt;log</title>
<path fill="none" stroke="#00c900" stroke-width="2" d="M358.77,-585C329.66,-585 295,-585 295,-585 295,-585 295,-104 295,-104 295,-104 239.36,-104 239.36,-104"/>
<polygon fill="#00c900" stroke="#00c900" stroke-width="2" points="239.36,-102.25 234.36,-104 239.36,-105.75 239.36,-102.25"/>
</g>
<!-- metrics -->
<g id="node14" class="node">
<title>metrics</title>
<polygon fill="black" stroke="red" stroke-width="3" points="529,-324 475,-324 475,-288 529,-288 529,-324"/>
<text text-anchor="middle" x="502" y="-303.5" font-family="Arial" font-size="10.00" fill="white">metrics</text>
</g>
<!-- ContainerSSH&#45;&gt;metrics -->
<g id="edge10" class="edge">
<title>ContainerSSH&#45;&gt;metrics</title>
<path fill="none" stroke="#00c900" stroke-width="2" d="M432.2,-575.6C432.2,-514.16 432.2,-320 432.2,-320 432.2,-320 469.81,-320 469.81,-320"/>
<polygon fill="#00c900" stroke="#00c900" stroke-width="2" points="469.81,-321.75 474.81,-320 469.81,-318.25 469.81,-321.75"/>
</g>
<!-- metricsintegration -->
<g id="node15" class="node">
<title>metricsintegration</title>
<polygon fill="black" stroke="red" stroke-width="3" points="544,-396 450,-396 450,-360 544,-360 544,-396"/>
<text text-anchor="middle" x="497" y="-375.5" font-family="Arial" font-size="10.00" fill="white">metricsintegration</text>
</g>
<!-- ContainerSSH&#45;&gt;metricsintegration -->
<g id="edge11" class="edge">
<title>ContainerSSH&#45;&gt;metricsintegration</title>
<path fill="none" stroke="#00c900" stroke-width="2" d="M434.6,-575.73C434.6,-524.64 434.6,-384 434.6,-384 434.6,-384 444.71,-384 444.71,-384"/>
<polygon fill="#00c900" stroke="#00c900" stroke-width="2" points="444.71,-385.75 449.71,-384 444.71,-382.25 444.71,-385.75"/>
</g>
<!-- service -->
<g id="node17" class="node">
<title>service</title>
<polygon fill="black" stroke="red" stroke-width="3" points="195,-180 141,-180 141,-144 195,-144 195,-180"/>
<text text-anchor="middle" x="168" y="-159.5" font-family="Arial" font-size="10.00" fill="white">service</text>
</g>
<!-- ContainerSSH&#45;&gt;service -->
<g id="edge12" class="edge">
<title>ContainerSSH&#45;&gt;service</title>
<path fill="none" stroke="#00c900" stroke-width="2" d="M358.77,-589C328.53,-589 291.83,-589 291.83,-589 291.83,-589 291.83,-174 291.83,-174 291.83,-174 200.18,-174 200.18,-174"/>
<polygon fill="#00c900" stroke="#00c900" stroke-width="2" points="200.18,-172.25 195.18,-174 200.18,-175.75 200.18,-172.25"/>
</g>
<!-- sshserver -->
<g id="node18" class="node">
<title>sshserver</title>
<polygon fill="black" stroke="red" stroke-width="3" points="756,-324 698,-324 698,-288 756,-288 756,-324"/>
<text text-anchor="middle" x="727" y="-303.5" font-family="Arial" font-size="10.00" fill="white">sshserver</text>
</g>
<!-- ContainerSSH&#45;&gt;sshserver -->
<g id="edge13" class="edge">
<title>ContainerSSH&#45;&gt;sshserver</title>
<path fill="none" stroke="#00c900" stroke-width="2" d="M437.16,-594C529.16,-594 751.33,-594 751.33,-594 751.33,-594 751.33,-329.02 751.33,-329.02"/>
<polygon fill="#00c900" stroke="#00c900" stroke-width="2" points="753.08,-329.02 751.33,-324.02 749.58,-329.02 753.08,-329.02"/>
</g>
<!-- geoip -->
<g id="node19" class="node">
<title>geoip</title>
<polygon fill="black" stroke="red" stroke-width="3" points="453,-252 399,-252 399,-216 453,-216 453,-252"/>
<text text-anchor="middle" x="426" y="-231.5" font-family="Arial" font-size="10.00" fill="white">geoip</text>
</g>
<!-- ContainerSSH&#45;&gt;geoip -->
<g id="edge7" class="edge">
<title>ContainerSSH&#45;&gt;geoip</title>
<path fill="none" stroke="#00c900" stroke-width="2" d="M429.8,-575.65C429.8,-575.65 429.8,-257.31 429.8,-257.31"/>
<polygon fill="#00c900" stroke="#00c900" stroke-width="2" points="431.55,-257.31 429.8,-252.31 428.05,-257.31 431.55,-257.31"/>
</g>
<!-- structutils -->
<g id="node20" class="node">
<title>structutils</title>
<polygon fill="black" stroke="red" stroke-width="3" points="236.5,-36 177.5,-36 177.5,0 236.5,0 236.5,-36"/>
<text text-anchor="middle" x="207" y="-15.5" font-family="Arial" font-size="10.00" fill="white">structutils</text>
</g>
<!-- ContainerSSH&#45;&gt;structutils -->
<g id="edge14" class="edge">
<title>ContainerSSH&#45;&gt;structutils</title>
<path fill="none" stroke="#00c900" stroke-width="2" d="M358.83,-580C330.86,-580 298.17,-580 298.17,-580 298.17,-580 298.17,-32 298.17,-32 298.17,-32 241.6,-32 241.6,-32"/>
<polygon fill="#00c900" stroke="#00c900" stroke-width="2" points="241.6,-30.25 236.6,-32 241.6,-33.75 241.6,-30.25"/>
</g>
<!-- auditlog&#45;&gt;log -->
<g id="edge16" class="edge">
<title>auditlog&#45;&gt;log</title>
<path fill="none" stroke="#fce700" stroke-width="2" d="M227,-287.96C227,-287.96 227,-113.15 227,-113.15"/>
<polygon fill="#fce700" stroke="#fce700" stroke-width="2" points="228.75,-113.15 227,-108.15 225.25,-113.15 228.75,-113.15"/>
</g>
<!-- auditlog&#45;&gt;geoip -->
<g id="edge15" class="edge">
<title>auditlog&#45;&gt;geoip</title>
<path fill="none" stroke="#fce700" stroke-width="2" d="M274.02,-295C318.97,-295 404.2,-295 404.2,-295 404.2,-295 404.2,-257.3 404.2,-257.3"/>
<polygon fill="#fce700" stroke="#fce700" stroke-width="2" points="405.95,-257.3 404.2,-252.3 402.45,-257.3 405.95,-257.3"/>
</g>
<!-- auditlogintegration&#45;&gt;auditlog -->
<g id="edge17" class="edge">
<title>auditlogintegration&#45;&gt;auditlog</title>
<path fill="none" stroke="#c400fc" stroke-width="2" d="M247,-359.83C247,-359.83 247,-329.41 247,-329.41"/>
<polygon fill="#c400fc" stroke="#c400fc" stroke-width="2" points="248.75,-329.41 247,-324.41 245.25,-329.41 248.75,-329.41"/>
</g>
<!-- auditlogintegration&#45;&gt;log -->
<g id="edge19" class="edge">
<title>auditlogintegration&#45;&gt;log</title>
<path fill="none" stroke="#c400fc" stroke-width="2" d="M211.67,-359.98C211.67,-359.98 211.67,-113.01 211.67,-113.01"/>
<polygon fill="#c400fc" stroke="#c400fc" stroke-width="2" points="213.42,-113.01 211.67,-108.01 209.92,-113.01 213.42,-113.01"/>
</g>
<!-- auditlogintegration&#45;&gt;sshserver -->
<g id="edge20" class="edge">
<title>auditlogintegration&#45;&gt;sshserver</title>
<path fill="none" stroke="#c400fc" stroke-width="2" d="M277.83,-359.81C277.83,-356.46 277.83,-354 277.83,-354 277.83,-354 712.67,-354 712.67,-354 712.67,-354 712.67,-329.15 712.67,-329.15"/>
<polygon fill="#c400fc" stroke="#c400fc" stroke-width="2" points="714.42,-329.15 712.67,-324.15 710.92,-329.15 714.42,-329.15"/>
</g>
<!-- auditlogintegration&#45;&gt;geoip -->
<g id="edge18" class="edge">
<title>auditlogintegration&#45;&gt;geoip</title>
<path fill="none" stroke="#c400fc" stroke-width="2" d="M281.67,-359.92C281.67,-324.2 281.67,-248 281.67,-248 281.67,-248 393.85,-248 393.85,-248"/>
<polygon fill="#c400fc" stroke="#c400fc" stroke-width="2" points="393.85,-249.75 398.85,-248 393.85,-246.25 393.85,-249.75"/>
</g>
<!-- auth&#45;&gt;http -->
<g id="edge22" class="edge">
<title>auth&#45;&gt;http</title>
<path fill="none" stroke="#c400fc" stroke-width="2" d="M66,-359.96C66,-322.55 66,-240 66,-240 66,-240 59.09,-240 59.09,-240"/>
<polygon fill="#c400fc" stroke="#c400fc" stroke-width="2" points="59.09,-238.25 54.09,-240 59.09,-241.75 59.09,-238.25"/>
</g>
<!-- auth&#45;&gt;log -->
<g id="edge23" class="edge">
<title>auth&#45;&gt;log</title>
<path fill="none" stroke="#c400fc" stroke-width="2" d="M71,-359.98C71,-296.93 71,-90 71,-90 71,-90 174.81,-90 174.81,-90"/>
<polygon fill="#c400fc" stroke="#c400fc" stroke-width="2" points="174.81,-91.75 179.81,-90 174.81,-88.25 174.81,-91.75"/>
</g>
<!-- auth&#45;&gt;metrics -->
<g id="edge24" class="edge">
<title>auth&#45;&gt;metrics</title>
<path fill="none" stroke="#c400fc" stroke-width="2" d="M61,-359.81C61,-351.72 61,-344 61,-344 61,-344 485.8,-344 485.8,-344 485.8,-344 485.8,-329.11 485.8,-329.11"/>
<polygon fill="#c400fc" stroke="#c400fc" stroke-width="2" points="487.55,-329.11 485.8,-324.11 484.05,-329.11 487.55,-329.11"/>
</g>
<!-- auth&#45;&gt;service -->
<g id="edge25" class="edge">
<title>auth&#45;&gt;service</title>
<path fill="none" stroke="#c400fc" stroke-width="2" d="M76,-359.96C76,-308.04 76,-162 76,-162 76,-162 135.89,-162 135.89,-162"/>
<polygon fill="#c400fc" stroke="#c400fc" stroke-width="2" points="135.89,-163.75 140.89,-162 135.89,-160.25 135.89,-163.75"/>
</g>
<!-- auth&#45;&gt;geoip -->
<g id="edge21" class="edge">
<title>auth&#45;&gt;geoip</title>
<path fill="none" stroke="#c400fc" stroke-width="2" d="M81,-359.93C81,-323.35 81,-244 81,-244 81,-244 393.93,-244 393.93,-244"/>
<polygon fill="#c400fc" stroke="#c400fc" stroke-width="2" points="393.93,-245.75 398.93,-244 393.93,-242.25 393.93,-245.75"/>
</g>
<!-- authintegration&#45;&gt;auth -->
<g id="edge26" class="edge">
<title>authintegration&#45;&gt;auth</title>
<path fill="none" stroke="#0600ff" stroke-width="2" d="M127.4,-431.83C127.4,-410.5 127.4,-378 127.4,-378 127.4,-378 91.03,-378 91.03,-378"/>
<polygon fill="#0600ff" stroke="#0600ff" stroke-width="2" points="91.03,-376.25 86.03,-378 91.03,-379.75 91.03,-376.25"/>
</g>
<!-- authintegration&#45;&gt;http -->
<g id="edge27" class="edge">
<title>authintegration&#45;&gt;http</title>
<path fill="none" stroke="#0600ff" stroke-width="2" d="M130.8,-431.75C130.8,-380 130.8,-236 130.8,-236 130.8,-236 59,-236 59,-236"/>
<polygon fill="#0600ff" stroke="#0600ff" stroke-width="2" points="59,-234.25 54,-236 59,-237.75 59,-234.25"/>
</g>
<!-- authintegration&#45;&gt;log -->
<g id="edge28" class="edge">
<title>authintegration&#45;&gt;log</title>
<path fill="none" stroke="#0600ff" stroke-width="2" d="M137.6,-431.62C137.6,-359.4 137.6,-99 137.6,-99 137.6,-99 174.97,-99 174.97,-99"/>
<polygon fill="#0600ff" stroke="#0600ff" stroke-width="2" points="174.97,-100.75 179.97,-99 174.97,-97.25 174.97,-100.75"/>
</g>
<!-- authintegration&#45;&gt;metrics -->
<g id="edge32" class="edge">
<title>authintegration&#45;&gt;metrics</title>
<path fill="none" stroke="#0600ff" stroke-width="2" d="M204.09,-450C244.63,-450 301.33,-450 301.33,-450 301.33,-450 301.33,-309 301.33,-309 301.33,-309 469.94,-309 469.94,-309"/>
<polygon fill="#0600ff" stroke="#0600ff" stroke-width="2" points="469.94,-310.75 474.94,-309 469.94,-307.25 469.94,-310.75"/>
</g>
<!-- authintegration&#45;&gt;service -->
<g id="edge29" class="edge">
<title>authintegration&#45;&gt;service</title>
<path fill="none" stroke="#0600ff" stroke-width="2" d="M178.12,-431.98C178.12,-431.98 178.12,-185.01 178.12,-185.01"/>
<polygon fill="#0600ff" stroke="#0600ff" stroke-width="2" points="179.88,-185.01 178.12,-180.01 176.38,-185.01 179.88,-185.01"/>
</g>
<!-- authintegration&#45;&gt;sshserver -->
<g id="edge30" class="edge">
<title>authintegration&#45;&gt;sshserver</title>
<path fill="none" stroke="#0600ff" stroke-width="2" d="M197.25,-431.86C197.25,-425.54 197.25,-420 197.25,-420 197.25,-420 744.33,-420 744.33,-420 744.33,-420 744.33,-329.06 744.33,-329.06"/>
<polygon fill="#0600ff" stroke="#0600ff" stroke-width="2" points="746.08,-329.06 744.33,-324.06 742.58,-329.06 746.08,-329.06"/>
</g>
<!-- authintegration&#45;&gt;structutils -->
<g id="edge31" class="edge">
<title>authintegration&#45;&gt;structutils</title>
<path fill="none" stroke="#0600ff" stroke-width="2" d="M134.2,-431.97C134.2,-350.88 134.2,-24 134.2,-24 134.2,-24 172.39,-24 172.39,-24"/>
<polygon fill="#0600ff" stroke="#0600ff" stroke-width="2" points="172.39,-25.75 177.39,-24 172.39,-22.25 172.39,-25.75"/>
</g>
<!-- backend&#45;&gt;configuration -->
<g id="edge33" class="edge">
<title>backend&#45;&gt;configuration</title>
<path fill="none" stroke="#fc8300" stroke-width="2" d="M370.8,-522C368.48,-522 367,-522 367,-522 367,-522 367,-473.17 367,-473.17"/>
<polygon fill="#fc8300" stroke="#fc8300" stroke-width="2" points="368.75,-473.17 367,-468.17 365.25,-473.17 368.75,-473.17"/>
</g>
<!-- docker -->
<g id="node8" class="node">
<title>docker</title>
<polygon fill="black" stroke="red" stroke-width="3" points="920,-396 866,-396 866,-360 920,-360 920,-396"/>
<text text-anchor="middle" x="893" y="-375.5" font-family="Arial" font-size="10.00" fill="white">docker</text>
</g>
<!-- backend&#45;&gt;docker -->
<g id="edge34" class="edge">
<title>backend&#45;&gt;docker</title>
<path fill="none" stroke="#fc8300" stroke-width="2" d="M425.1,-534C529.78,-534 902,-534 902,-534 902,-534 902,-401.2 902,-401.2"/>
<polygon fill="#fc8300" stroke="#fc8300" stroke-width="2" points="903.75,-401.2 902,-396.2 900.25,-401.2 903.75,-401.2"/>
</g>
<!-- sshproxy -->
<g id="node9" class="node">
<title>sshproxy</title>
<polygon fill="black" stroke="red" stroke-width="3" points="644,-396 588,-396 588,-360 644,-360 644,-396"/>
<text text-anchor="middle" x="616" y="-375.5" font-family="Arial" font-size="10.00" fill="white">sshproxy</text>
</g>
<!-- backend&#45;&gt;sshproxy -->
<g id="edge35" class="edge">
<title>backend&#45;&gt;sshproxy</title>
<path fill="none" stroke="#fc8300" stroke-width="2" d="M425.42,-510C485.89,-510 625.33,-510 625.33,-510 625.33,-510 625.33,-401.08 625.33,-401.08"/>
<polygon fill="#fc8300" stroke="#fc8300" stroke-width="2" points="627.08,-401.08 625.33,-396.08 623.58,-401.08 627.08,-401.08"/>
</g>
<!-- kubernetes -->
<g id="node12" class="node">
<title>kubernetes</title>
<polygon fill="black" stroke="red" stroke-width="3" points="821.5,-396 756.5,-396 756.5,-360 821.5,-360 821.5,-396"/>
<text text-anchor="middle" x="789" y="-375.5" font-family="Arial" font-size="10.00" fill="white">kubernetes</text>
</g>
<!-- backend&#45;&gt;kubernetes -->
<g id="edge37" class="edge">
<title>backend&#45;&gt;kubernetes</title>
<path fill="none" stroke="#fc8300" stroke-width="2" d="M425.3,-528C515.75,-528 799.83,-528 799.83,-528 799.83,-528 799.83,-401.09 799.83,-401.09"/>
<polygon fill="#fc8300" stroke="#fc8300" stroke-width="2" points="801.58,-401.09 799.83,-396.09 798.08,-401.09 801.58,-401.09"/>
</g>
<!-- backend&#45;&gt;log -->
<g id="edge38" class="edge">
<title>backend&#45;&gt;log</title>
<path fill="none" stroke="#fc8300" stroke-width="2" d="M389.6,-503.74C389.6,-422.39 389.6,-97 389.6,-97 389.6,-97 239.34,-97 239.34,-97"/>
<polygon fill="#fc8300" stroke="#fc8300" stroke-width="2" points="239.34,-95.25 234.34,-97 239.34,-98.75 239.34,-95.25"/>
</g>
<!-- backend&#45;&gt;metrics -->
<g id="edge39" class="edge">
<title>backend&#45;&gt;metrics</title>
<path fill="none" stroke="#fc8300" stroke-width="2" d="M419.8,-503.72C419.8,-453.3 419.8,-316 419.8,-316 419.8,-316 469.63,-316 469.63,-316"/>
<polygon fill="#fc8300" stroke="#fc8300" stroke-width="2" points="469.63,-317.75 474.63,-316 469.63,-314.25 469.63,-317.75"/>
</g>
<!-- security -->
<g id="node16" class="node">
<title>security</title>
<polygon fill="black" stroke="red" stroke-width="3" points="742,-396 688,-396 688,-360 742,-360 742,-396"/>
<text text-anchor="middle" x="715" y="-375.5" font-family="Arial" font-size="10.00" fill="white">security</text>
</g>
<!-- backend&#45;&gt;security -->
<g id="edge40" class="edge">
<title>backend&#45;&gt;security</title>
<path fill="none" stroke="#fc8300" stroke-width="2" d="M425.23,-516C503.58,-516 724,-516 724,-516 724,-516 724,-401.04 724,-401.04"/>
<polygon fill="#fc8300" stroke="#fc8300" stroke-width="2" points="725.75,-401.04 724,-396.04 722.25,-401.04 725.75,-401.04"/>
</g>
<!-- backend&#45;&gt;service -->
<g id="edge41" class="edge">
<title>backend&#45;&gt;service</title>
<path fill="none" stroke="#fc8300" stroke-width="2" d="M384.9,-503.65C384.9,-430.29 384.9,-162 384.9,-162 384.9,-162 200.03,-162 200.03,-162"/>
<polygon fill="#fc8300" stroke="#fc8300" stroke-width="2" points="200.03,-160.25 195.03,-162 200.03,-163.75 200.03,-160.25"/>
</g>
<!-- backend&#45;&gt;sshserver -->
<g id="edge42" class="edge">
<title>backend&#45;&gt;sshserver</title>
<path fill="none" stroke="#fc8300" stroke-width="2" d="M425.25,-522C507.72,-522 749,-522 749,-522 749,-522 749,-329.04 749,-329.04"/>
<polygon fill="#fc8300" stroke="#fc8300" stroke-width="2" points="750.75,-329.04 749,-324.04 747.25,-329.04 750.75,-329.04"/>
</g>
<!-- backend&#45;&gt;geoip -->
<g id="edge36" class="edge">
<title>backend&#45;&gt;geoip</title>
<path fill="none" stroke="#fc8300" stroke-width="2" d="M414.6,-503.98C414.6,-503.98 414.6,-257.01 414.6,-257.01"/>
<polygon fill="#fc8300" stroke="#fc8300" stroke-width="2" points="416.35,-257.01 414.6,-252.01 412.85,-257.01 416.35,-257.01"/>
</g>
<!-- backend&#45;&gt;structutils -->
<g id="edge43" class="edge">
<title>backend&#45;&gt;structutils</title>
<path fill="none" stroke="#fc8300" stroke-width="2" d="M394.3,-503.98C394.3,-414.7 394.3,-24 394.3,-24 394.3,-24 241.68,-24 241.68,-24"/>
<polygon fill="#fc8300" stroke="#fc8300" stroke-width="2" points="241.68,-22.25 236.68,-24 241.68,-25.75 241.68,-22.25"/>
</g>
<!-- configuration&#45;&gt;auditlog -->
<g id="edge44" class="edge">
<title>configuration&#45;&gt;auditlog</title>
<path fill="none" stroke="#0600ff" stroke-width="2" d="M328.17,-431.76C328.17,-393.01 328.17,-306 328.17,-306 328.17,-306 279.03,-306 279.03,-306"/>
<polygon fill="#0600ff" stroke="#0600ff" stroke-width="2" points="279.03,-304.25 274.03,-306 279.03,-307.75 279.03,-304.25"/>
</g>
<!-- configuration&#45;&gt;auth -->
<g id="edge45" class="edge">
<title>configuration&#45;&gt;auth</title>
<path fill="none" stroke="#0600ff" stroke-width="2" d="M312.39,-431.94C312.39,-420.56 312.39,-408 312.39,-408 312.39,-408 68,-408 68,-408 68,-408 68,-401.14 68,-401.14"/>
<polygon fill="#0600ff" stroke="#0600ff" stroke-width="2" points="69.75,-401.14 68,-396.14 66.25,-401.14 69.75,-401.14"/>
</g>
<!-- configuration&#45;&gt;docker -->
<g id="edge46" class="edge">
<title>configuration&#45;&gt;docker</title>
<path fill="none" stroke="#0600ff" stroke-width="2" d="M375.69,-462C496.72,-462 884,-462 884,-462 884,-462 884,-401.23 884,-401.23"/>
<polygon fill="#0600ff" stroke="#0600ff" stroke-width="2" points="885.75,-401.23 884,-396.23 882.25,-401.23 885.75,-401.23"/>
</g>
<!-- configuration&#45;&gt;sshproxy -->
<g id="edge47" class="edge">
<title>configuration&#45;&gt;sshproxy</title>
<path fill="none" stroke="#0600ff" stroke-width="2" d="M375.69,-442C448.35,-442 606.67,-442 606.67,-442 606.67,-442 606.67,-401.17 606.67,-401.17"/>
<polygon fill="#0600ff" stroke="#0600ff" stroke-width="2" points="608.42,-401.17 606.67,-396.17 604.92,-401.17 608.42,-401.17"/>
</g>
<!-- health -->
<g id="node10" class="node">
<title>health</title>
<polygon fill="black" stroke="red" stroke-width="3" points="56,-324 2,-324 2,-288 56,-288 56,-324"/>
<text text-anchor="middle" x="29" y="-303.5" font-family="Arial" font-size="10.00" fill="white">health</text>
</g>
<!-- configuration&#45;&gt;health -->
<g id="edge49" class="edge">
<title>configuration&#45;&gt;health</title>
<path fill="none" stroke="#0600ff" stroke-width="2" d="M320.28,-431.67C320.28,-400.14 320.28,-339 320.28,-339 320.28,-339 44,-339 44,-339 44,-339 44,-329.04 44,-329.04"/>
<polygon fill="#0600ff" stroke="#0600ff" stroke-width="2" points="45.75,-329.04 44,-324.04 42.25,-329.04 45.75,-329.04"/>
</g>
<!-- configuration&#45;&gt;http -->
<g id="edge50" class="edge">
<title>configuration&#45;&gt;http</title>
<path fill="none" stroke="#0600ff" stroke-width="2" d="M336.06,-431.83C336.06,-378.81 336.06,-228 336.06,-228 336.06,-228 59.16,-228 59.16,-228"/>
<polygon fill="#0600ff" stroke="#0600ff" stroke-width="2" points="59.16,-226.25 54.16,-228 59.16,-229.75 59.16,-226.25"/>
</g>
<!-- configuration&#45;&gt;kubernetes -->
<g id="edge51" class="edge">
<title>configuration&#45;&gt;kubernetes</title>
<path fill="none" stroke="#0600ff" stroke-width="2" d="M375.86,-457C480.5,-457 778.17,-457 778.17,-457 778.17,-457 778.17,-401.32 778.17,-401.32"/>
<polygon fill="#0600ff" stroke="#0600ff" stroke-width="2" points="779.92,-401.32 778.17,-396.32 776.42,-401.32 779.92,-401.32"/>
</g>
<!-- configuration&#45;&gt;log -->
<g id="edge52" class="edge">
<title>configuration&#45;&gt;log</title>
<path fill="none" stroke="#0600ff" stroke-width="2" d="M351.83,-431.68C351.83,-359.66 351.83,-100 351.83,-100 351.83,-100 239.24,-100 239.24,-100"/>
<polygon fill="#0600ff" stroke="#0600ff" stroke-width="2" points="239.24,-98.25 234.24,-100 239.24,-101.75 239.24,-98.25"/>
</g>
<!-- configuration&#45;&gt;metrics -->
<g id="edge53" class="edge">
<title>configuration&#45;&gt;metrics</title>
<path fill="none" stroke="#0600ff" stroke-width="2" d="M367.61,-431.81C367.61,-394.54 367.61,-313 367.61,-313 367.61,-313 469.8,-313 469.8,-313"/>
<polygon fill="#0600ff" stroke="#0600ff" stroke-width="2" points="469.8,-314.75 474.8,-313 469.8,-311.25 469.8,-314.75"/>
</g>
<!-- configuration&#45;&gt;security -->
<g id="edge54" class="edge">
<title>configuration&#45;&gt;security</title>
<path fill="none" stroke="#0600ff" stroke-width="2" d="M375.76,-447C467.86,-447 706,-447 706,-447 706,-447 706,-401.13 706,-401.13"/>
<polygon fill="#0600ff" stroke="#0600ff" stroke-width="2" points="707.75,-401.13 706,-396.13 704.25,-401.13 707.75,-401.13"/>
</g>
<!-- configuration&#45;&gt;service -->
<g id="edge55" class="edge">
<title>configuration&#45;&gt;service</title>
<path fill="none" stroke="#0600ff" stroke-width="2" d="M343.94,-431.93C343.94,-369.69 343.94,-168 343.94,-168 343.94,-168 200.11,-168 200.11,-168"/>
<polygon fill="#0600ff" stroke="#0600ff" stroke-width="2" points="200.11,-166.25 195.11,-168 200.11,-169.75 200.11,-166.25"/>
</g>
<!-- configuration&#45;&gt;sshserver -->
<g id="edge56" class="edge">
<title>configuration&#45;&gt;sshserver</title>
<path fill="none" stroke="#0600ff" stroke-width="2" d="M375.73,-452C474.97,-452 746.67,-452 746.67,-452 746.67,-452 746.67,-329.2 746.67,-329.2"/>
<polygon fill="#0600ff" stroke="#0600ff" stroke-width="2" points="748.42,-329.2 746.67,-324.2 744.92,-329.2 748.42,-329.2"/>
</g>
<!-- configuration&#45;&gt;geoip -->
<g id="edge48" class="edge">
<title>configuration&#45;&gt;geoip</title>
<path fill="none" stroke="#0600ff" stroke-width="2" d="M375.51,-437C392.59,-437 409.4,-437 409.4,-437 409.4,-437 409.4,-257.01 409.4,-257.01"/>
<polygon fill="#0600ff" stroke="#0600ff" stroke-width="2" points="411.15,-257.01 409.4,-252.01 407.65,-257.01 411.15,-257.01"/>
</g>
<!-- configuration&#45;&gt;structutils -->
<g id="edge57" class="edge">
<title>configuration&#45;&gt;structutils</title>
<path fill="none" stroke="#0600ff" stroke-width="2" d="M359.72,-431.87C359.72,-351.09 359.72,-28 359.72,-28 359.72,-28 241.81,-28 241.81,-28"/>
<polygon fill="#0600ff" stroke="#0600ff" stroke-width="2" points="241.81,-26.25 236.81,-28 241.81,-29.75 241.81,-26.25"/>
</g>
<!-- docker&#45;&gt;log -->
<g id="edge59" class="edge">
<title>docker&#45;&gt;log</title>
<path fill="none" stroke="#c400fc" stroke-width="2" d="M902,-359.95C902,-294.72 902,-75 902,-75 902,-75 239.24,-75 239.24,-75"/>
<polygon fill="#c400fc" stroke="#c400fc" stroke-width="2" points="239.24,-73.25 234.24,-75 239.24,-76.75 239.24,-73.25"/>
</g>
<!-- docker&#45;&gt;metrics -->
<g id="edge60" class="edge">
<title>docker&#45;&gt;metrics</title>
<path fill="none" stroke="#c400fc" stroke-width="2" d="M884,-359.75C884,-345.82 884,-329 884,-329 884,-329 518.2,-329 518.2,-329 518.2,-329 518.2,-328.51 518.2,-328.51"/>
<polygon fill="#c400fc" stroke="#c400fc" stroke-width="2" points="519.95,-329.12 518.2,-324.12 516.45,-329.12 519.95,-329.12"/>
</g>
<!-- docker&#45;&gt;sshserver -->
<g id="edge61" class="edge">
<title>docker&#45;&gt;sshserver</title>
<path fill="none" stroke="#c400fc" stroke-width="2" d="M893,-359.97C893,-340.42 893,-312 893,-312 893,-312 761.3,-312 761.3,-312"/>
<polygon fill="#c400fc" stroke="#c400fc" stroke-width="2" points="761.3,-310.25 756.3,-312 761.3,-313.75 761.3,-310.25"/>
</g>
<!-- docker&#45;&gt;geoip -->
<g id="edge58" class="edge">
<title>docker&#45;&gt;geoip</title>
<path fill="none" stroke="#c400fc" stroke-width="2" d="M875,-359.8C875,-353.97 875,-349 875,-349 875,-349 443.5,-349 443.5,-349 443.5,-349 443.5,-257.22 443.5,-257.22"/>
<polygon fill="#c400fc" stroke="#c400fc" stroke-width="2" points="445.25,-257.22 443.5,-252.22 441.75,-257.22 445.25,-257.22"/>
</g>
<!-- docker&#45;&gt;structutils -->
<g id="edge62" class="edge">
<title>docker&#45;&gt;structutils</title>
<path fill="none" stroke="#c400fc" stroke-width="2" d="M911,-359.96C911,-285.25 911,-4 911,-4 911,-4 241.8,-4 241.8,-4"/>
<polygon fill="#c400fc" stroke="#c400fc" stroke-width="2" points="241.8,-2.25 236.8,-4 241.8,-5.75 241.8,-2.25"/>
</g>
<!-- unixutils -->
<g id="node21" class="node">
<title>unixutils</title>
<polygon fill="black" stroke="red" stroke-width="3" points="841,-252 787,-252 787,-216 841,-216 841,-252"/>
<text text-anchor="middle" x="814" y="-231.5" font-family="Arial" font-size="10.00" fill="white">unixutils</text>
</g>
<!-- docker&#45;&gt;unixutils -->
<g id="edge63" class="edge">
<title>docker&#45;&gt;unixutils</title>
<path fill="none" stroke="#c400fc" stroke-width="2" d="M865.74,-378C849.19,-378 831.25,-378 831.25,-378 831.25,-378 831.25,-257.24 831.25,-257.24"/>
<polygon fill="#c400fc" stroke="#c400fc" stroke-width="2" points="833,-257.24 831.25,-252.24 829.5,-257.24 833,-257.24"/>
</g>
<!-- sshproxy&#45;&gt;log -->
<g id="edge65" class="edge">
<title>sshproxy&#45;&gt;log</title>
<path fill="none" stroke="#c400fc" stroke-width="2" d="M616,-359.98C616,-296.93 616,-90 616,-90 616,-90 239.15,-90 239.15,-90"/>
<polygon fill="#c400fc" stroke="#c400fc" stroke-width="2" points="239.15,-88.25 234.15,-90 239.15,-91.75 239.15,-88.25"/>
</g>
<!-- sshproxy&#45;&gt;metrics -->
<g id="edge66" class="edge">
<title>sshproxy&#45;&gt;metrics</title>
<path fill="none" stroke="#c400fc" stroke-width="2" d="M597.33,-359.78C597.33,-341.17 597.33,-315 597.33,-315 597.33,-315 534.06,-315 534.06,-315"/>
<polygon fill="#c400fc" stroke="#c400fc" stroke-width="2" points="534.06,-313.25 529.06,-315 534.06,-316.75 534.06,-313.25"/>
</g>
<!-- sshproxy&#45;&gt;sshserver -->
<g id="edge67" class="edge">
<title>sshproxy&#45;&gt;sshserver</title>
<path fill="none" stroke="#c400fc" stroke-width="2" d="M634.67,-359.83C634.67,-338.5 634.67,-306 634.67,-306 634.67,-306 692.79,-306 692.79,-306"/>
<polygon fill="#c400fc" stroke="#c400fc" stroke-width="2" points="692.79,-307.75 697.79,-306 692.79,-304.25 692.79,-307.75"/>
</g>
<!-- sshproxy&#45;&gt;geoip -->
<g id="edge64" class="edge">
<title>sshproxy&#45;&gt;geoip</title>
<path fill="none" stroke="#c400fc" stroke-width="2" d="M606.67,-359.96C606.67,-322.55 606.67,-240 606.67,-240 606.67,-240 458.05,-240 458.05,-240"/>
<polygon fill="#c400fc" stroke="#c400fc" stroke-width="2" points="458.05,-238.25 453.05,-240 458.05,-241.75 458.05,-238.25"/>
</g>
<!-- sshproxy&#45;&gt;structutils -->
<g id="edge68" class="edge">
<title>sshproxy&#45;&gt;structutils</title>
<path fill="none" stroke="#c400fc" stroke-width="2" d="M625.33,-359.55C625.33,-285.78 625.33,-16 625.33,-16 625.33,-16 241.75,-16 241.75,-16"/>
<polygon fill="#c400fc" stroke="#c400fc" stroke-width="2" points="241.75,-14.25 236.75,-16 241.75,-17.75 241.75,-14.25"/>
</g>
<!-- health&#45;&gt;http -->
<g id="edge84" class="edge">
<title>health&#45;&gt;http</title>
<path fill="none" stroke="#fce700" stroke-width="2" d="M28,-287.83C28,-287.83 28,-257.41 28,-257.41"/>
<polygon fill="#fce700" stroke="#fce700" stroke-width="2" points="29.75,-257.41 28,-252.41 26.25,-257.41 29.75,-257.41"/>
</g>
<!-- health&#45;&gt;log -->
<g id="edge85" class="edge">
<title>health&#45;&gt;log</title>
<path fill="none" stroke="#fce700" stroke-width="2" d="M56.24,-312C105.27,-312 203.33,-312 203.33,-312 203.33,-312 203.33,-113.17 203.33,-113.17"/>
<polygon fill="#fce700" stroke="#fce700" stroke-width="2" points="205.08,-113.17 203.33,-108.17 201.58,-113.17 205.08,-113.17"/>
</g>
<!-- health&#45;&gt;service -->
<g id="edge86" class="edge">
<title>health&#45;&gt;service</title>
<path fill="none" stroke="#fce700" stroke-width="2" d="M56.02,-300C95.87,-300 165.75,-300 165.75,-300 165.75,-300 165.75,-185.04 165.75,-185.04"/>
<polygon fill="#fce700" stroke="#fce700" stroke-width="2" points="167.5,-185.04 165.75,-180.04 164,-185.04 167.5,-185.04"/>
</g>
<!-- http&#45;&gt;log -->
<g id="edge69" class="edge">
<title>http&#45;&gt;log</title>
<path fill="none" stroke="#00dbfc" stroke-width="2" d="M36,-215.85C36,-175.32 36,-81 36,-81 36,-81 174.9,-81 174.9,-81"/>
<polygon fill="#00dbfc" stroke="#00dbfc" stroke-width="2" points="174.9,-82.75 179.9,-81 174.9,-79.25 174.9,-82.75"/>
</g>
<!-- http&#45;&gt;service -->
<g id="edge70" class="edge">
<title>http&#45;&gt;service</title>
<path fill="none" stroke="#00dbfc" stroke-width="2" d="M54.11,-220C91.24,-220 153.38,-220 153.38,-220 153.38,-220 153.38,-185.03 153.38,-185.03"/>
<polygon fill="#00dbfc" stroke="#00dbfc" stroke-width="2" points="155.13,-185.03 153.38,-180.03 151.63,-185.03 155.13,-185.03"/>
</g>
<!-- http&#45;&gt;structutils -->
<g id="edge71" class="edge">
<title>http&#45;&gt;structutils</title>
<path fill="none" stroke="#00dbfc" stroke-width="2" d="M18,-215.83C18,-162.81 18,-12 18,-12 18,-12 172.47,-12 172.47,-12"/>
<polygon fill="#00dbfc" stroke="#00dbfc" stroke-width="2" points="172.47,-13.75 177.47,-12 172.47,-10.25 172.47,-13.75"/>
</g>
<!-- kubernetes&#45;&gt;log -->
<g id="edge73" class="edge">
<title>kubernetes&#45;&gt;log</title>
<path fill="none" stroke="#c400fc" stroke-width="2" d="M774.8,-359.75C774.8,-294.83 774.8,-79 774.8,-79 774.8,-79 239,-79 239,-79"/>
<polygon fill="#c400fc" stroke="#c400fc" stroke-width="2" points="239,-77.25 234,-79 239,-80.75 239,-77.25"/>
</g>
<!-- kubernetes&#45;&gt;metrics -->
<g id="edge74" class="edge">
<title>kubernetes&#45;&gt;metrics</title>
<path fill="none" stroke="#c400fc" stroke-width="2" d="M762.6,-359.85C762.6,-347.73 762.6,-334 762.6,-334 762.6,-334 507.4,-334 507.4,-334 507.4,-334 507.4,-329.21 507.4,-329.21"/>
<polygon fill="#c400fc" stroke="#c400fc" stroke-width="2" points="509.15,-329.21 507.4,-324.21 505.65,-329.21 509.15,-329.21"/>
</g>
<!-- kubernetes&#45;&gt;sshserver -->
<g id="edge75" class="edge">
<title>kubernetes&#45;&gt;sshserver</title>
<path fill="none" stroke="#c400fc" stroke-width="2" d="M756.44,-378C754.71,-378 753.67,-378 753.67,-378 753.67,-378 753.67,-329.17 753.67,-329.17"/>
<polygon fill="#c400fc" stroke="#c400fc" stroke-width="2" points="755.42,-329.17 753.67,-324.17 751.92,-329.17 755.42,-329.17"/>
</g>
<!-- kubernetes&#45;&gt;geoip -->
<g id="edge72" class="edge">
<title>kubernetes&#45;&gt;geoip</title>
<path fill="none" stroke="#c400fc" stroke-width="2" d="M768.7,-359.91C768.7,-320.01 768.7,-228 768.7,-228 768.7,-228 458.18,-228 458.18,-228"/>
<polygon fill="#c400fc" stroke="#c400fc" stroke-width="2" points="458.18,-226.25 453.18,-228 458.18,-229.75 458.18,-226.25"/>
</g>
<!-- kubernetes&#45;&gt;structutils -->
<g id="edge76" class="edge">
<title>kubernetes&#45;&gt;structutils</title>
<path fill="none" stroke="#c400fc" stroke-width="2" d="M780.9,-359.9C780.9,-285.62 780.9,-8 780.9,-8 780.9,-8 241.65,-8 241.65,-8"/>
<polygon fill="#c400fc" stroke="#c400fc" stroke-width="2" points="241.65,-6.25 236.65,-8 241.65,-9.75 241.65,-6.25"/>
</g>
<!-- kubernetes&#45;&gt;unixutils -->
<g id="edge77" class="edge">
<title>kubernetes&#45;&gt;unixutils</title>
<path fill="none" stroke="#c400fc" stroke-width="2" d="M810,-359.76C810,-359.76 810,-257.09 810,-257.09"/>
<polygon fill="#c400fc" stroke="#c400fc" stroke-width="2" points="811.75,-257.09 810,-252.09 808.25,-257.09 811.75,-257.09"/>
</g>
<!-- log&#45;&gt;structutils -->
<g id="edge78" class="edge">
<title>log&#45;&gt;structutils</title>
<path fill="none" stroke="#00c900" stroke-width="2" d="M207,-71.83C207,-71.83 207,-41.41 207,-41.41"/>
<polygon fill="#00c900" stroke="#00c900" stroke-width="2" points="208.75,-41.41 207,-36.41 205.25,-41.41 208.75,-41.41"/>
</g>
<!-- metrics&#45;&gt;http -->
<g id="edge80" class="edge">
<title>metrics&#45;&gt;http</title>
<path fill="none" stroke="#fce700" stroke-width="2" d="M474.97,-298C439.09,-298 380.2,-298 380.2,-298 380.2,-298 380.2,-224 380.2,-224 380.2,-224 59.13,-224 59.13,-224"/>
<polygon fill="#fce700" stroke="#fce700" stroke-width="2" points="59.13,-222.25 54.13,-224 59.13,-225.75 59.13,-222.25"/>
</g>
<!-- metrics&#45;&gt;log -->
<g id="edge81" class="edge">
<title>metrics&#45;&gt;log</title>
<path fill="none" stroke="#fce700" stroke-width="2" d="M502,-287.84C502,-236.33 502,-93 502,-93 502,-93 239.22,-93 239.22,-93"/>
<polygon fill="#fce700" stroke="#fce700" stroke-width="2" points="239.22,-91.25 234.22,-93 239.22,-94.75 239.22,-91.25"/>
</g>
<!-- metrics&#45;&gt;service -->
<g id="edge82" class="edge">
<title>metrics&#45;&gt;service</title>
<path fill="none" stroke="#fce700" stroke-width="2" d="M488.5,-287.91C488.5,-248.01 488.5,-156 488.5,-156 488.5,-156 200.05,-156 200.05,-156"/>
<polygon fill="#fce700" stroke="#fce700" stroke-width="2" points="200.05,-154.25 195.05,-156 200.05,-157.75 200.05,-154.25"/>
</g>
<!-- metrics&#45;&gt;geoip -->
<g id="edge79" class="edge">
<title>metrics&#45;&gt;geoip</title>
<path fill="none" stroke="#fce700" stroke-width="2" d="M474.7,-291C460.78,-291 446.75,-291 446.75,-291 446.75,-291 446.75,-257.04 446.75,-257.04"/>
<polygon fill="#fce700" stroke="#fce700" stroke-width="2" points="448.5,-257.04 446.75,-252.04 445,-257.04 448.5,-257.04"/>
</g>
<!-- metrics&#45;&gt;structutils -->
<g id="edge83" class="edge">
<title>metrics&#45;&gt;structutils</title>
<path fill="none" stroke="#fce700" stroke-width="2" d="M515.5,-287.67C515.5,-224.55 515.5,-20 515.5,-20 515.5,-20 241.58,-20 241.58,-20"/>
<polygon fill="#fce700" stroke="#fce700" stroke-width="2" points="241.58,-18.25 236.58,-20 241.58,-21.75 241.58,-18.25"/>
</g>
<!-- metricsintegration&#45;&gt;metrics -->
<g id="edge88" class="edge">
<title>metricsintegration&#45;&gt;metrics</title>
<path fill="none" stroke="#c400fc" stroke-width="2" d="M496.6,-359.83C496.6,-359.83 496.6,-329.41 496.6,-329.41"/>
<polygon fill="#c400fc" stroke="#c400fc" stroke-width="2" points="498.35,-329.41 496.6,-324.41 494.85,-329.41 498.35,-329.41"/>
</g>
<!-- metricsintegration&#45;&gt;sshserver -->
<g id="edge89" class="edge">
<title>metricsintegration&#45;&gt;sshserver</title>
<path fill="none" stroke="#c400fc" stroke-width="2" d="M536.5,-359.62C536.5,-335.72 536.5,-297 536.5,-297 536.5,-297 692.65,-297 692.65,-297"/>
<polygon fill="#c400fc" stroke="#c400fc" stroke-width="2" points="692.65,-298.75 697.65,-297 692.65,-295.25 692.65,-298.75"/>
</g>
<!-- metricsintegration&#45;&gt;geoip -->
<g id="edge87" class="edge">
<title>metricsintegration&#45;&gt;geoip</title>
<path fill="none" stroke="#c400fc" stroke-width="2" d="M449.88,-372C444.14,-372 440.25,-372 440.25,-372 440.25,-372 440.25,-257.04 440.25,-257.04"/>
<polygon fill="#c400fc" stroke="#c400fc" stroke-width="2" points="442,-257.04 440.25,-252.04 438.5,-257.04 442,-257.04"/>
</g>
<!-- security&#45;&gt;log -->
<g id="edge90" class="edge">
<title>security&#45;&gt;log</title>
<path fill="none" stroke="#c400fc" stroke-width="2" d="M693,-359.73C693,-295.81 693,-86 693,-86 693,-86 239.17,-86 239.17,-86"/>
<polygon fill="#c400fc" stroke="#c400fc" stroke-width="2" points="239.17,-84.25 234.17,-86 239.17,-87.75 239.17,-84.25"/>
</g>
<!-- security&#45;&gt;sshserver -->
<g id="edge91" class="edge">
<title>security&#45;&gt;sshserver</title>
<path fill="none" stroke="#c400fc" stroke-width="2" d="M727.33,-359.83C727.33,-359.83 727.33,-329.41 727.33,-329.41"/>
<polygon fill="#c400fc" stroke="#c400fc" stroke-width="2" points="729.08,-329.41 727.33,-324.41 725.58,-329.41 729.08,-329.41"/>
</g>
<!-- service&#45;&gt;log -->
<g id="edge92" class="edge">
<title>service&#45;&gt;log</title>
<path fill="none" stroke="#ff0000" stroke-width="2" d="M187.5,-143.83C187.5,-143.83 187.5,-113.41 187.5,-113.41"/>
<polygon fill="#ff0000" stroke="#ff0000" stroke-width="2" points="189.25,-113.41 187.5,-108.41 185.75,-113.41 189.25,-113.41"/>
</g>
<!-- sshserver&#45;&gt;log -->
<g id="edge93" class="edge">
<title>sshserver&#45;&gt;log</title>
<path fill="none" stroke="#fce700" stroke-width="2" d="M727,-287.67C727,-234.17 727,-82 727,-82 727,-82 239.23,-82 239.23,-82"/>
<polygon fill="#fce700" stroke="#fce700" stroke-width="2" points="239.23,-80.25 234.23,-82 239.23,-83.75 239.23,-80.25"/>
</g>
<!-- sshserver&#45;&gt;service -->
<g id="edge94" class="edge">
<title>sshserver&#45;&gt;service</title>
<path fill="none" stroke="#fce700" stroke-width="2" d="M712.5,-287.8C712.5,-246.65 712.5,-150 712.5,-150 712.5,-150 200,-150 200,-150"/>
<polygon fill="#fce700" stroke="#fce700" stroke-width="2" points="200,-148.25 195,-150 200,-151.75 200,-148.25"/>
</g>
<!-- sshserver&#45;&gt;structutils -->
<g id="edge95" class="edge">
<title>sshserver&#45;&gt;structutils</title>
<path fill="none" stroke="#fce700" stroke-width="2" d="M741.5,-287.61C741.5,-223.25 741.5,-12 741.5,-12 741.5,-12 241.88,-12 241.88,-12"/>
<polygon fill="#fce700" stroke="#fce700" stroke-width="2" points="241.88,-10.25 236.88,-12 241.88,-13.75 241.88,-10.25"/>
</g>
<!-- sshserver&#45;&gt;unixutils -->
<g id="edge96" class="edge">
<title>sshserver&#45;&gt;unixutils</title>
<path fill="none" stroke="#fce700" stroke-width="2" d="M756.08,-300C775.88,-300 798.5,-300 798.5,-300 798.5,-300 798.5,-257.03 798.5,-257.03"/>
<polygon fill="#fce700" stroke="#fce700" stroke-width="2" points="800.25,-257.03 798.5,-252.03 796.75,-257.03 800.25,-257.03"/>
</g>
</g>
</svg>
