<svg id="Layer_1" data-name="Layer 1" xmlns="http://www.w3.org/2000/svg" viewBox="0 0 1920 1080"><line x1="1240.87" y1="147.45" x2="1350.23" y2="147.45" style="fill:red;stroke:#00c900;stroke-miterlimit:10;stroke-width:30px"/><line x1="1350.23" y1="147.45" x2="1295.55" y2="75.94" style="fill:red;stroke:#00c900;stroke-miterlimit:10;stroke-width:30px"/><line x1="1295.55" y1="216.15" x2="1350.23" y2="144.64" style="fill:red;stroke:#00c900;stroke-miterlimit:10;stroke-width:30px"/><line x1="1240.87" y1="549.73" x2="1350.23" y2="549.73" style="fill:red;stroke:#00c900;stroke-miterlimit:10;stroke-width:30px"/><line x1="1350.23" y1="549.73" x2="1295.55" y2="478.22" style="fill:red;stroke:#00c900;stroke-miterlimit:10;stroke-width:30px"/><line x1="1295.55" y1="618.43" x2="1350.23" y2="546.92" style="fill:red;stroke:#00c900;stroke-miterlimit:10;stroke-width:30px"/><line x1="1240.87" y1="952.01" x2="1350.23" y2="952.01" style="fill:red;stroke:#00c900;stroke-miterlimit:10;stroke-width:30px"/><line x1="1350.23" y1="952.01" x2="1295.55" y2="880.5" style="fill:red;stroke:#00c900;stroke-miterlimit:10;stroke-width:30px"/><line x1="1295.55" y1="1020.71" x2="1350.23" y2="949.2" style="fill:red;stroke:#00c900;stroke-miterlimit:10;stroke-width:30px"/><line x1="567.42" y1="538.85" x2="676.77" y2="538.85" style="fill:red;stroke:#00c900;stroke-miterlimit:10;stroke-width:30px"/><line x1="676.77" y1="538.85" x2="622.09" y2="467.34" style="fill:red;stroke:#00c900;stroke-miterlimit:10;stroke-width:30px"/><line x1="622.09" y1="607.55" x2="676.77" y2="536.04" style="fill:red;stroke:#00c900;stroke-miterlimit:10;stroke-width:30px"/><rect x="5" y="5" width="564.89" height="1070"/><path d="M6804.39,6669.5v1060H6249.5v-1060h554.89m10-10H6239.5v1080h574.89v-1080Z" transform="translate(-6239.5 -6659.5)" style="fill:red"/><path d="M6466.3,7134.56h6.82v29.77q0,7.79-1.76,12.34a15.07,15.07,0,0,1-6.34,7.44q-4.59,2.87-12.05,2.87-7.23,0-11.84-2.5a14.26,14.26,0,0,1-6.58-7.23q-2-4.72-2-12.92v-29.77h6.82v29.74q0,6.72,1.25,9.9a9.46,9.46,0,0,0,4.29,4.9,14.89,14.89,0,0,0,7.44,1.72q7.52,0,10.72-3.41t3.2-13.11Z" transform="translate(-6239.5 -6659.5)" style="fill:#fff"/><path d="M6482.15,7169.54l6.44-.56a14.19,14.19,0,0,0,2.12,6.34,11.71,11.71,0,0,0,5.19,4,19.62,19.62,0,0,0,7.91,1.53,19,19,0,0,0,6.89-1.16,9.66,9.66,0,0,0,4.45-3.18,7.41,7.41,0,0,0,1.46-4.42,6.7,6.7,0,0,0-1.41-4.23,10.38,10.38,0,0,0-4.64-3,90.28,90.28,0,0,0-9.18-2.52,46.82,46.82,0,0,1-9.94-3.21,14,14,0,0,1-5.51-4.8,11.83,11.83,0,0,1-1.81-6.42,13.06,13.06,0,0,1,2.22-7.29,13.66,13.66,0,0,1,6.47-5.15,24.33,24.33,0,0,1,9.45-1.76,25.87,25.87,0,0,1,10.11,1.84,14.58,14.58,0,0,1,6.73,5.44,15.51,15.51,0,0,1,2.53,8.12l-6.53.49a10.59,10.59,0,0,0-3.57-7.38c-2-1.67-5-2.5-9-2.5s-7.13.76-9,2.27a6.78,6.78,0,0,0-2.83,5.46,5.89,5.89,0,0,0,2,4.58q2,1.78,10.28,3.67a67.08,67.08,0,0,1,11.41,3.29,15.62,15.62,0,0,1,6.65,5.25,12.81,12.81,0,0,1,2.14,7.33,14,14,0,0,1-2.35,7.75,15.44,15.44,0,0,1-6.77,5.66,23.53,23.53,0,0,1-9.93,2,29.64,29.64,0,0,1-11.73-2,16.49,16.49,0,0,1-7.42-6.14A17.48,17.48,0,0,1,6482.15,7169.54Z" transform="translate(-6239.5 -6659.5)" style="fill:#fff"/><path d="M6532.64,7186.1v-51.54h37.26v6.08h-30.44v15.78H6568v6.05h-28.51V7180h31.64v6.09Z" transform="translate(-6239.5 -6659.5)" style="fill:#fff"/><path d="M6580.63,7186.1v-51.54h22.85q6.89,0,10.48,1.39a11.44,11.44,0,0,1,5.73,4.9,14.7,14.7,0,0,1,2.14,7.77,13,13,0,0,1-3.55,9.25q-3.55,3.75-11,4.78a17.28,17.28,0,0,1,4.11,2.56,35.27,35.27,0,0,1,5.66,6.86l9,14h-8.58l-6.82-10.73q-3-4.64-4.92-7.1a15.32,15.32,0,0,0-3.46-3.44,10,10,0,0,0-3.12-1.37,19.77,19.77,0,0,0-3.79-.25h-7.91v22.89Zm6.82-28.8h14.66a22.15,22.15,0,0,0,7.31-1,7.83,7.83,0,0,0,4-3.1,8.38,8.38,0,0,0,1.37-4.62,7.68,7.68,0,0,0-2.66-6q-2.66-2.35-8.38-2.36h-16.31Z" transform="translate(-6239.5 -6659.5)" style="fill:#fff"/><path d="M6351.59,7233.21l3.13-.49a4.41,4.41,0,0,0,1.47,2.88,5.11,5.11,0,0,0,3.37,1,4.94,4.94,0,0,0,3.23-.89,2.63,2.63,0,0,0,1.06-2.08,1.93,1.93,0,0,0-.93-1.69,13.89,13.89,0,0,0-3.24-1.07,29.39,29.39,0,0,1-4.82-1.52,4.63,4.63,0,0,1-2.74-4.28,4.82,4.82,0,0,1,.57-2.31,5.1,5.1,0,0,1,1.56-1.77,6.51,6.51,0,0,1,2-.92,9.65,9.65,0,0,1,2.74-.38,10.79,10.79,0,0,1,3.85.63,5.35,5.35,0,0,1,2.46,1.72,6.78,6.78,0,0,1,1.09,2.89l-3.1.42a3.4,3.4,0,0,0-1.22-2.25,4.47,4.47,0,0,0-2.86-.81,5.18,5.18,0,0,0-3.11.72,2.11,2.11,0,0,0-.93,1.69,1.75,1.75,0,0,0,.39,1.11,2.77,2.77,0,0,0,1.21.84c.32.12,1.25.39,2.8.81a39.48,39.48,0,0,1,4.68,1.47,4.72,4.72,0,0,1,2.08,1.66,4.61,4.61,0,0,1,.76,2.71,5.38,5.38,0,0,1-.92,3,6,6,0,0,1-2.67,2.16,9.67,9.67,0,0,1-3.93.76,8.76,8.76,0,0,1-5.55-1.51A7.08,7.08,0,0,1,6351.59,7233.21Z" transform="translate(-6239.5 -6659.5)" style="fill:#fff"/><path d="M6369.59,7233.21l3.13-.49a4.41,4.41,0,0,0,1.47,2.88,5.11,5.11,0,0,0,3.37,1,4.94,4.94,0,0,0,3.23-.89,2.63,2.63,0,0,0,1.06-2.08,1.93,1.93,0,0,0-.93-1.69,13.89,13.89,0,0,0-3.24-1.07,29.39,29.39,0,0,1-4.82-1.52,4.63,4.63,0,0,1-2.74-4.28,4.82,4.82,0,0,1,.57-2.31,5.1,5.1,0,0,1,1.56-1.77,6.51,6.51,0,0,1,2-.92,9.65,9.65,0,0,1,2.74-.38,10.79,10.79,0,0,1,3.85.63,5.35,5.35,0,0,1,2.46,1.72,6.78,6.78,0,0,1,1.09,2.89l-3.1.42a3.4,3.4,0,0,0-1.22-2.25,4.47,4.47,0,0,0-2.86-.81,5.18,5.18,0,0,0-3.11.72,2.11,2.11,0,0,0-.93,1.69,1.75,1.75,0,0,0,.39,1.11,2.77,2.77,0,0,0,1.21.84c.32.12,1.25.39,2.8.81a39.48,39.48,0,0,1,4.68,1.47,4.72,4.72,0,0,1,2.08,1.66,4.61,4.61,0,0,1,.76,2.71,5.38,5.38,0,0,1-.92,3,6,6,0,0,1-2.67,2.16,9.67,9.67,0,0,1-3.93.76,8.76,8.76,0,0,1-5.55-1.51A7.08,7.08,0,0,1,6369.59,7233.21Z" transform="translate(-6239.5 -6659.5)" style="fill:#fff"/><path d="M6388.86,7238.78V7213H6392v9.25a7.08,7.08,0,0,1,5.59-2.57,7.49,7.49,0,0,1,3.61.82,4.79,4.79,0,0,1,2.19,2.26,10.37,10.37,0,0,1,.66,4.18v11.83h-3.17V7227a4.86,4.86,0,0,0-1-3.45,3.81,3.81,0,0,0-2.91-1.08,5.16,5.16,0,0,0-2.64.72,4.13,4.13,0,0,0-1.77,2,9.11,9.11,0,0,0-.53,3.45v10.21Z" transform="translate(-6239.5 -6659.5)" style="fill:#fff"/><path d="M6431.12,7238.78V7236a6.83,6.83,0,0,1-5.93,3.16,7.54,7.54,0,0,1-3.08-.63A5.08,5.08,0,0,1,6420,7237a5.89,5.89,0,0,1-1-2.35,15.77,15.77,0,0,1-.2-2.95v-11.57H6422v10.36a18.51,18.51,0,0,0,.19,3.34,3.31,3.31,0,0,0,1.27,2,3.94,3.94,0,0,0,2.39.71,5.26,5.26,0,0,0,2.67-.73,4.11,4.11,0,0,0,1.77-2,10.12,10.12,0,0,0,.51-3.65v-10H6434v18.67Z" transform="translate(-6239.5 -6659.5)" style="fill:#fff"/><path d="M6437.64,7233.21l3.13-.49a4.33,4.33,0,0,0,1.47,2.88,5.08,5.08,0,0,0,3.36,1,5,5,0,0,0,3.24-.89,2.65,2.65,0,0,0,1.05-2.08,1.93,1.93,0,0,0-.93-1.69,13.56,13.56,0,0,0-3.23-1.07,29.94,29.94,0,0,1-4.83-1.52,4.64,4.64,0,0,1-2-1.78,4.7,4.7,0,0,1-.69-2.5,4.82,4.82,0,0,1,.57-2.31,5.18,5.18,0,0,1,1.55-1.77,6.69,6.69,0,0,1,2-.92,9.63,9.63,0,0,1,2.73-.38,10.89,10.89,0,0,1,3.86.63,5.31,5.31,0,0,1,2.45,1.72,6.65,6.65,0,0,1,1.09,2.89l-3.09.42a3.37,3.37,0,0,0-1.23-2.25,4.44,4.44,0,0,0-2.85-.81,5.18,5.18,0,0,0-3.11.72,2.11,2.11,0,0,0-.93,1.69,1.74,1.74,0,0,0,.38,1.11,2.75,2.75,0,0,0,1.22.84q.47.18,2.79.81a38.86,38.86,0,0,1,4.68,1.47,4.75,4.75,0,0,1,2.09,1.66,4.68,4.68,0,0,1,.75,2.71,5.3,5.3,0,0,1-.92,3,5.94,5.94,0,0,1-2.66,2.16,9.72,9.72,0,0,1-3.94.76,8.78,8.78,0,0,1-5.55-1.51A7,7,0,0,1,6437.64,7233.21Z" transform="translate(-6239.5 -6659.5)" style="fill:#fff"/><path d="M6469.68,7232.77l3.27.4a8,8,0,0,1-2.86,4.45,8.66,8.66,0,0,1-5.34,1.58,8.54,8.54,0,0,1-6.5-2.52,9.86,9.86,0,0,1-2.4-7.08c0-3.14.81-5.57,2.43-7.31a8.21,8.21,0,0,1,6.29-2.6,8,8,0,0,1,6.12,2.55q2.37,2.55,2.37,7.17c0,.19,0,.47,0,.84h-13.92a7.21,7.21,0,0,0,1.74,4.72,5.16,5.16,0,0,0,3.9,1.63,4.83,4.83,0,0,0,3-.91A6.1,6.1,0,0,0,6469.68,7232.77Zm-10.38-5.12h10.42a6.29,6.29,0,0,0-1.2-3.53,4.83,4.83,0,0,0-3.92-1.83,5,5,0,0,0-3.66,1.46A5.73,5.73,0,0,0,6459.3,7227.65Z" transform="translate(-6239.5 -6659.5)" style="fill:#fff"/><path d="M6476.89,7238.78v-18.67h2.85v2.83a8,8,0,0,1,2-2.62,3.53,3.53,0,0,1,2-.63,6.15,6.15,0,0,1,3.25,1l-1.09,2.94a4.48,4.48,0,0,0-2.32-.69,3,3,0,0,0-1.86.62,3.46,3.46,0,0,0-1.18,1.74,12.33,12.33,0,0,0-.52,3.69v9.77Z" transform="translate(-6239.5 -6659.5)" style="fill:#fff"/><path d="M6507,7235.92a9.64,9.64,0,0,1-2.56,2.11,5.65,5.65,0,0,1-2.84.8,5.71,5.71,0,0,1-3-.91,6.65,6.65,0,0,1-2.4-2.81,9.51,9.51,0,0,1-.92-4.17,12.29,12.29,0,0,1,1.43-5.6,10.79,10.79,0,0,1,3.56-4.21,7.49,7.49,0,0,1,4.13-1.4,5.69,5.69,0,0,1,2.92.8,6.79,6.79,0,0,1,2.39,2.43l.6-2.72h3.15l-2.54,11.79c-.35,1.64-.52,2.55-.52,2.72a1.09,1.09,0,0,0,.36.82,1.22,1.22,0,0,0,.87.35,4.68,4.68,0,0,0,2.44-1.08,9.62,9.62,0,0,0,3.17-3.77,10.85,10.85,0,0,0,1.17-4.88,10.53,10.53,0,0,0-6-9.56,14.21,14.21,0,0,0-6.59-1.53,14.92,14.92,0,0,0-7.51,1.93,13.07,13.07,0,0,0-5.27,5.52,16.38,16.38,0,0,0-1.88,7.7,14.08,14.08,0,0,0,1.88,7.42,11.09,11.09,0,0,0,5.41,4.6,20.11,20.11,0,0,0,7.85,1.48,17.3,17.3,0,0,0,7.72-1.54,12.1,12.1,0,0,0,4.65-3.76h3.19a12.6,12.6,0,0,1-3.08,3.76,16.21,16.21,0,0,1-5.19,3,20.9,20.9,0,0,1-7.24,1.12,24.62,24.62,0,0,1-7.2-1,15.06,15.06,0,0,1-5.61-3,13.28,13.28,0,0,1-3.5-4.63,17.56,17.56,0,0,1-1.48-7.17,19.66,19.66,0,0,1,1.76-8.18,16.37,16.37,0,0,1,6.09-7.29,17.33,17.33,0,0,1,9.57-2.53,16.85,16.85,0,0,1,7.83,1.78,13.06,13.06,0,0,1,5.48,5.32,13.26,13.26,0,0,1,1.7,6.61,13.09,13.09,0,0,1-3.58,9.05c-2.13,2.37-4.47,3.55-7,3.55a4.39,4.39,0,0,1-2-.37,2.39,2.39,0,0,1-1.1-1A4.67,4.67,0,0,1,6507,7235.92Zm-8.51-4.77a5.62,5.62,0,0,0,1.14,3.75,3.4,3.4,0,0,0,2.62,1.33,4.31,4.31,0,0,0,2.08-.59,7.35,7.35,0,0,0,2.08-1.75A9.16,9.16,0,0,0,6508,7231a10.68,10.68,0,0,0,.63-3.58,5.37,5.37,0,0,0-1.19-3.71,3.73,3.73,0,0,0-2.89-1.32,4.23,4.23,0,0,0-2.12.58,6.53,6.53,0,0,0-1.92,1.83,10.52,10.52,0,0,0-1.5,3.08A11.42,11.42,0,0,0,6498.44,7231.15Z" transform="translate(-6239.5 -6659.5)" style="fill:#fff"/><path d="M6524.19,7233.21l3.13-.49a4.41,4.41,0,0,0,1.47,2.88,5.11,5.11,0,0,0,3.37,1,4.94,4.94,0,0,0,3.23-.89,2.66,2.66,0,0,0,1.06-2.08,1.92,1.92,0,0,0-.94-1.69,13.56,13.56,0,0,0-3.23-1.07,29.39,29.39,0,0,1-4.82-1.52,4.63,4.63,0,0,1-2.74-4.28,4.82,4.82,0,0,1,.57-2.31,5.1,5.1,0,0,1,1.56-1.77,6.51,6.51,0,0,1,2-.92,9.63,9.63,0,0,1,2.73-.38,10.81,10.81,0,0,1,3.86.63,5.35,5.35,0,0,1,2.46,1.72,6.78,6.78,0,0,1,1.09,2.89l-3.1.42a3.4,3.4,0,0,0-1.22-2.25,4.47,4.47,0,0,0-2.86-.81,5.18,5.18,0,0,0-3.11.72,2.11,2.11,0,0,0-.93,1.69,1.75,1.75,0,0,0,.39,1.11,2.71,2.71,0,0,0,1.21.84q.48.18,2.79.81a39.81,39.81,0,0,1,4.69,1.47,4.72,4.72,0,0,1,2.08,1.66,4.61,4.61,0,0,1,.76,2.71,5.38,5.38,0,0,1-.92,3,6,6,0,0,1-2.67,2.16,9.68,9.68,0,0,1-3.94.76,8.75,8.75,0,0,1-5.54-1.51A7.08,7.08,0,0,1,6524.19,7233.21Z" transform="translate(-6239.5 -6659.5)" style="fill:#fff"/><path d="M6556.24,7232.77l3.27.4a8,8,0,0,1-2.87,4.45,9.72,9.72,0,0,1-11.84-.94,9.9,9.9,0,0,1-2.39-7.08c0-3.14.8-5.57,2.42-7.31a8.24,8.24,0,0,1,6.29-2.6,8,8,0,0,1,6.12,2.55q2.37,2.55,2.37,7.17c0,.19,0,.47,0,.84h-13.93a7.16,7.16,0,0,0,1.75,4.72,5.16,5.16,0,0,0,3.9,1.63,4.83,4.83,0,0,0,3-.91A6.1,6.1,0,0,0,6556.24,7232.77Zm-10.39-5.12h10.42a6.29,6.29,0,0,0-1.19-3.53,4.86,4.86,0,0,0-3.92-1.83,5.05,5.05,0,0,0-3.67,1.46A5.78,5.78,0,0,0,6545.85,7227.65Z" transform="translate(-6239.5 -6659.5)" style="fill:#fff"/><path d="M6563.45,7238.78v-18.67h2.84v2.83a7.84,7.84,0,0,1,2-2.62,3.51,3.51,0,0,1,2-.63,6.18,6.18,0,0,1,3.25,1l-1.09,2.94a4.5,4.5,0,0,0-2.32-.69,3,3,0,0,0-1.86.62,3.34,3.34,0,0,0-1.18,1.74,12.32,12.32,0,0,0-.53,3.69v9.77Z" transform="translate(-6239.5 -6659.5)" style="fill:#fff"/><path d="M6580.66,7238.78l-7.11-18.67h3.34l4,11.18c.43,1.21.83,2.46,1.2,3.76.28-1,.67-2.16,1.17-3.55l4.15-11.39h3.25l-7.06,18.67Z" transform="translate(-6239.5 -6659.5)" style="fill:#fff"/><path d="M6606.25,7232.77l3.27.4a8,8,0,0,1-2.87,4.45,9.72,9.72,0,0,1-11.84-.94c-1.6-1.68-2.39-4-2.39-7.08s.8-5.57,2.42-7.31a8.24,8.24,0,0,1,6.29-2.6,8,8,0,0,1,6.12,2.55q2.37,2.55,2.37,7.17c0,.19,0,.47,0,.84h-13.93a7.21,7.21,0,0,0,1.74,4.72,5.2,5.2,0,0,0,3.91,1.63,4.83,4.83,0,0,0,3-.91A6.1,6.1,0,0,0,6606.25,7232.77Zm-10.39-5.12h10.42a6.29,6.29,0,0,0-1.19-3.53,4.86,4.86,0,0,0-3.92-1.83,5.05,5.05,0,0,0-3.67,1.46A5.78,5.78,0,0,0,6595.86,7227.65Z" transform="translate(-6239.5 -6659.5)" style="fill:#fff"/><path d="M6613.46,7238.78v-18.67h2.84v2.83a7.84,7.84,0,0,1,2-2.62,3.51,3.51,0,0,1,2-.63,6.18,6.18,0,0,1,3.25,1l-1.09,2.94a4.5,4.5,0,0,0-2.32-.69,3,3,0,0,0-1.86.62,3.34,3.34,0,0,0-1.18,1.74,12.32,12.32,0,0,0-.53,3.69v9.77Z" transform="translate(-6239.5 -6659.5)" style="fill:#fff"/><path d="M6625.48,7238.78v-18.67h2.85v2.66a6.71,6.71,0,0,1,5.94-3.08,7.69,7.69,0,0,1,3.1.61,4.85,4.85,0,0,1,2.12,1.59,5.89,5.89,0,0,1,1,2.34,17.61,17.61,0,0,1,.18,3.07v11.48h-3.16v-11.36a8.71,8.71,0,0,0-.37-2.89,3.09,3.09,0,0,0-1.31-1.53,4.2,4.2,0,0,0-2.21-.57,5.11,5.11,0,0,0-3.49,1.29q-1.47,1.27-1.47,4.86v10.2Z" transform="translate(-6239.5 -6659.5)" style="fill:#fff"/><path d="M6657.68,7236.48a11.93,11.93,0,0,1-3.38,2.11,9.82,9.82,0,0,1-3.49.61,6.8,6.8,0,0,1-4.73-1.5,5,5,0,0,1-1.65-3.84,5.18,5.18,0,0,1,2.26-4.33,7.7,7.7,0,0,1,2.27-1,20.9,20.9,0,0,1,2.82-.48,28.79,28.79,0,0,0,5.64-1.09c0-.43,0-.71,0-.82a3.5,3.5,0,0,0-.9-2.73,5.32,5.32,0,0,0-3.6-1.07,5.61,5.61,0,0,0-3.3.78,4.79,4.79,0,0,0-1.57,2.77l-3.1-.42a7.66,7.66,0,0,1,1.39-3.21,6.16,6.16,0,0,1,2.8-1.88,12.44,12.44,0,0,1,4.23-.66,11.36,11.36,0,0,1,3.89.56,5.21,5.21,0,0,1,2.2,1.42,5.08,5.08,0,0,1,1,2.15,17.25,17.25,0,0,1,.16,2.92V7231a46,46,0,0,0,.2,5.58,7.08,7.08,0,0,0,.8,2.24h-3.3A6.81,6.81,0,0,1,6657.68,7236.48Zm-.26-7.07a23.21,23.21,0,0,1-5.17,1.2,11.35,11.35,0,0,0-2.76.63,2.77,2.77,0,0,0-1.25,1,2.79,2.79,0,0,0,.52,3.61,4.14,4.14,0,0,0,2.81.84,6.47,6.47,0,0,0,3.25-.8,4.94,4.94,0,0,0,2.09-2.18,7.67,7.67,0,0,0,.51-3.17Z" transform="translate(-6239.5 -6659.5)" style="fill:#fff"/><path d="M6665.52,7238.78v-18.67h2.83v2.62a6.68,6.68,0,0,1,2.34-2.2,6.53,6.53,0,0,1,3.32-.84,6.14,6.14,0,0,1,3.4.86,4.66,4.66,0,0,1,1.88,2.41,6.68,6.68,0,0,1,5.76-3.27,5.66,5.66,0,0,1,4.27,1.54,6.54,6.54,0,0,1,1.5,4.74v12.81h-3.15V7227a8.43,8.43,0,0,0-.31-2.73,2.61,2.61,0,0,0-1.11-1.35,3.48,3.48,0,0,0-1.9-.51,4.44,4.44,0,0,0-3.27,1.31,5.76,5.76,0,0,0-1.3,4.19v10.85h-3.17v-12.13a5.3,5.3,0,0,0-.77-3.16,2.91,2.91,0,0,0-2.53-1.06,4.61,4.61,0,0,0-2.47.71,3.92,3.92,0,0,0-1.64,2,11.58,11.58,0,0,0-.51,3.9v9.69Z" transform="translate(-6239.5 -6659.5)" style="fill:#fff"/><path d="M6708.29,7232.77l3.27.4a8,8,0,0,1-2.87,4.45,9.7,9.7,0,0,1-11.83-.94,9.86,9.86,0,0,1-2.4-7.08c0-3.14.8-5.57,2.42-7.31a8.24,8.24,0,0,1,6.29-2.6,8,8,0,0,1,6.12,2.55,10.14,10.14,0,0,1,2.38,7.17c0,.19,0,.47,0,.84h-13.92a7.11,7.11,0,0,0,1.74,4.72,5.16,5.16,0,0,0,3.9,1.63,4.83,4.83,0,0,0,3-.91A6.1,6.1,0,0,0,6708.29,7232.77Zm-10.39-5.12h10.43a6.37,6.37,0,0,0-1.2-3.53,4.84,4.84,0,0,0-3.92-1.83,5.07,5.07,0,0,0-3.67,1.46A5.78,5.78,0,0,0,6697.9,7227.65Z" transform="translate(-6239.5 -6659.5)" style="fill:#fff"/><rect x="677.56" y="5" width="564.89" height="1070"/><path d="M7476.94,6669.5v1060H6922.06v-1060h554.88m10-10H6912.06v1080h574.88v-1080Z" transform="translate(-6239.5 -6659.5)" style="fill:red"/><rect x="1350.11" y="5" width="564.89" height="282.09"/><path d="M8149.5,6669.5v272.09H7594.61V6669.5H8149.5m10-10H7584.61v292.09H8159.5V6659.5Z" transform="translate(-6239.5 -6659.5)" style="fill:red"/><rect x="1350.11" y="398.95" width="564.89" height="282.09"/><path d="M8149.5,7063.45v272.1H7594.61v-272.1H8149.5m10-10H7584.61v292.1H8159.5v-292.1Z" transform="translate(-6239.5 -6659.5)" style="fill:red"/><rect x="1350.11" y="792.91" width="564.89" height="282.09"/><path d="M8149.5,7457.41V7729.5H7594.61V7457.41H8149.5m10-10H7584.61V7739.5H8159.5V7447.41Z" transform="translate(-6239.5 -6659.5)" style="fill:red"/><path d="M7011.71,7205.85l6.82,1.73q-2.14,8.4-7.71,12.81a21.29,21.29,0,0,1-13.63,4.41q-8.32,0-13.55-3.39a21.14,21.14,0,0,1-7.94-9.83,34.94,34.94,0,0,1-2.73-13.81,30.4,30.4,0,0,1,3.08-14.05,21.09,21.09,0,0,1,8.75-9.1,25.53,25.53,0,0,1,12.5-3.11,21.18,21.18,0,0,1,13,3.93,20.48,20.48,0,0,1,7.34,11.08l-6.71,1.58q-1.8-5.62-5.2-8.19a13.9,13.9,0,0,0-8.58-2.57,16.65,16.65,0,0,0-9.93,2.85,15.07,15.07,0,0,0-5.61,7.65,30.69,30.69,0,0,0-1.62,9.89,31.37,31.37,0,0,0,1.92,11.48,14.27,14.27,0,0,0,6,7.33,16.66,16.66,0,0,0,8.75,2.43,14.61,14.61,0,0,0,9.7-3.31Q7010.3,7212.36,7011.71,7205.85Z" transform="translate(-6239.5 -6659.5)" style="fill:#fff"/><path d="M7023.77,7205.26q0-10.38,5.77-15.37a17.39,17.39,0,0,1,11.74-4.15,16.78,16.78,0,0,1,12.59,5.05q4.88,5,4.88,13.94,0,7.2-2.16,11.34a15.3,15.3,0,0,1-6.29,6.41,18.28,18.28,0,0,1-9,2.29q-7.84,0-12.67-5T7023.77,7205.26Zm6.51,0q0,7.17,3.12,10.74a10.42,10.42,0,0,0,15.72,0q3.14-3.58,3.13-10.93,0-6.93-3.15-10.5a10.43,10.43,0,0,0-15.7,0Q7030.28,7198.08,7030.28,7205.26Z" transform="translate(-6239.5 -6659.5)" style="fill:#fff"/><path d="M7066.17,7223.92v-37.33h5.7v5.31a13.42,13.42,0,0,1,11.88-6.16,15.52,15.52,0,0,1,6.2,1.22,9.8,9.8,0,0,1,4.24,3.18,12.24,12.24,0,0,1,2,4.67,36.93,36.93,0,0,1,.35,6.16v22.95h-6.33v-22.71a16.87,16.87,0,0,0-.74-5.78,6,6,0,0,0-2.62-3.06,8.32,8.32,0,0,0-4.41-1.14,10.23,10.23,0,0,0-7,2.57q-2.93,2.56-2.93,9.73v20.39Z" transform="translate(-6239.5 -6659.5)" style="fill:#fff"/><path d="M7120,7218.26l.91,5.59a23.13,23.13,0,0,1-4.78.57,10.86,10.86,0,0,1-5.34-1.09,6,6,0,0,1-2.67-2.87q-.78-1.77-.78-7.47v-21.48h-4.64v-4.92h4.64v-9.25l6.3-3.79v13H7120v4.92h-6.36v21.83a11.1,11.1,0,0,0,.33,3.48,2.6,2.6,0,0,0,1.09,1.23,4.13,4.13,0,0,0,2.16.46A19.72,19.72,0,0,0,7120,7218.26Z" transform="translate(-6239.5 -6659.5)" style="fill:#fff"/><path d="M7150.58,7219.32a23.54,23.54,0,0,1-6.77,4.22,19.56,19.56,0,0,1-7,1.23q-6.15,0-9.45-3a9.89,9.89,0,0,1-3.31-7.68,10.23,10.23,0,0,1,1.25-5,10.36,10.36,0,0,1,3.27-3.64,15.6,15.6,0,0,1,4.55-2.07,44,44,0,0,1,5.63-.95,58,58,0,0,0,11.28-2.18c0-.87,0-1.42,0-1.65q0-3.87-1.8-5.45c-1.61-1.43-4-2.15-7.2-2.15q-4.47,0-6.59,1.57c-1.42,1-2.47,2.89-3.15,5.53l-6.19-.84a15.3,15.3,0,0,1,2.78-6.42,12.24,12.24,0,0,1,5.59-3.76,24.9,24.9,0,0,1,8.47-1.32,22.4,22.4,0,0,1,7.77,1.13,10.26,10.26,0,0,1,4.4,2.83,10,10,0,0,1,2,4.31,34.37,34.37,0,0,1,.32,5.83v8.44a89,89,0,0,0,.41,11.16,13.68,13.68,0,0,0,1.6,4.48h-6.61A13.33,13.33,0,0,1,7150.58,7219.32Zm-.53-14.13a47,47,0,0,1-10.33,2.39,23.56,23.56,0,0,0-5.52,1.26,5.55,5.55,0,0,0-2.5,2.06,5.44,5.44,0,0,0-.88,3,5.37,5.37,0,0,0,1.92,4.21,8.21,8.21,0,0,0,5.61,1.69,13,13,0,0,0,6.5-1.6,9.76,9.76,0,0,0,4.18-4.38,15.2,15.2,0,0,0,1-6.32Z" transform="translate(-6239.5 -6659.5)" style="fill:#fff"/><path d="M7166.29,7179.66v-7.27h6.33v7.27Zm0,44.26v-37.33h6.33v37.33Z" transform="translate(-6239.5 -6659.5)" style="fill:#fff"/><path d="M7182.26,7223.92v-37.33H7188v5.31a13.42,13.42,0,0,1,11.88-6.16A15.6,15.6,0,0,1,7206,7187a9.8,9.8,0,0,1,4.24,3.18,12.23,12.23,0,0,1,2,4.67,35.57,35.57,0,0,1,.36,6.16v22.95h-6.33v-22.71a17.12,17.12,0,0,0-.74-5.78,6.08,6.08,0,0,0-2.62-3.06,8.32,8.32,0,0,0-4.41-1.14,10.21,10.21,0,0,0-7,2.57q-2.94,2.56-2.94,9.73v20.39Z" transform="translate(-6239.5 -6659.5)" style="fill:#fff"/><path d="M7247.86,7211.9l6.54.81a15.9,15.9,0,0,1-5.73,8.89,17.25,17.25,0,0,1-10.69,3.17q-8.19,0-13-5.05t-4.8-14.15q0-9.42,4.85-14.62a16.43,16.43,0,0,1,12.59-5.21,16,16,0,0,1,12.23,5.1q4.76,5.1,4.75,14.35c0,.37,0,.93,0,1.68h-27.84q.35,6.16,3.48,9.43a10.35,10.35,0,0,0,7.8,3.27,9.72,9.72,0,0,0,5.95-1.83A12.16,12.16,0,0,0,7247.86,7211.9Zm-20.78-10.23h20.85q-.42-4.71-2.39-7.07a9.72,9.72,0,0,0-7.84-3.65,10,10,0,0,0-7.33,2.92A11.52,11.52,0,0,0,7227.08,7201.67Z" transform="translate(-6239.5 -6659.5)" style="fill:#fff"/><path d="M7262.27,7223.92v-37.33h5.7v5.66q2.18-4,4-5.24a7.07,7.07,0,0,1,4.06-1.27,12.36,12.36,0,0,1,6.51,2l-2.18,5.87a9.12,9.12,0,0,0-4.64-1.37,6,6,0,0,0-3.73,1.25,6.8,6.8,0,0,0-2.36,3.46,24.81,24.81,0,0,0-1,7.39v19.54Z" transform="translate(-6239.5 -6659.5)" style="fill:#fff"/><path d="M7284.81,7207.37l6.43-.57a14.07,14.07,0,0,0,2.13,6.35,11.62,11.62,0,0,0,5.18,4,19.65,19.65,0,0,0,7.91,1.53,19,19,0,0,0,6.89-1.16,9.55,9.55,0,0,0,4.45-3.19,7.36,7.36,0,0,0,1.46-4.41,6.68,6.68,0,0,0-1.41-4.23,10.32,10.32,0,0,0-4.64-3,90.61,90.61,0,0,0-9.17-2.52,46.84,46.84,0,0,1-9.95-3.22,13.82,13.82,0,0,1-5.5-4.79,11.74,11.74,0,0,1-1.81-6.42,13.11,13.11,0,0,1,2.21-7.3,13.77,13.77,0,0,1,6.47-5.15,24.56,24.56,0,0,1,9.46-1.75,25.78,25.78,0,0,1,10.1,1.84,14.58,14.58,0,0,1,6.74,5.43,15.63,15.63,0,0,1,2.53,8.12l-6.54.5a10.56,10.56,0,0,0-3.57-7.39q-3-2.49-9-2.49c-4.13,0-7.13.75-9,2.27a6.78,6.78,0,0,0-2.83,5.46,5.87,5.87,0,0,0,2,4.57c1.32,1.2,4.74,2.42,10.29,3.68a68.4,68.4,0,0,1,11.4,3.28,15.71,15.71,0,0,1,6.65,5.26,12.79,12.79,0,0,1,2.14,7.33,14,14,0,0,1-2.35,7.75,15.51,15.51,0,0,1-6.77,5.66,23.53,23.53,0,0,1-9.93,2,29.71,29.71,0,0,1-11.73-2,16.33,16.33,0,0,1-7.41-6.13A17.3,17.3,0,0,1,7284.81,7207.37Z" transform="translate(-6239.5 -6659.5)" style="fill:#fff"/><path d="M7332.83,7207.37l6.43-.57a14.31,14.31,0,0,0,2.13,6.35,11.59,11.59,0,0,0,5.19,4,19.62,19.62,0,0,0,7.91,1.53,19.06,19.06,0,0,0,6.89-1.16,9.57,9.57,0,0,0,4.44-3.19,7.3,7.3,0,0,0,1.46-4.41,6.73,6.73,0,0,0-1.4-4.23,10.44,10.44,0,0,0-4.64-3,91.92,91.92,0,0,0-9.18-2.52,47,47,0,0,1-10-3.22,13.89,13.89,0,0,1-5.5-4.79,11.74,11.74,0,0,1-1.81-6.42,13.19,13.19,0,0,1,2.21-7.3,13.82,13.82,0,0,1,6.47-5.15,24.6,24.6,0,0,1,9.46-1.75,25.87,25.87,0,0,1,10.11,1.84,14.61,14.61,0,0,1,6.73,5.43,15.63,15.63,0,0,1,2.53,8.12l-6.54.5a10.56,10.56,0,0,0-3.57-7.39c-2-1.66-5-2.49-9-2.49-4.12,0-7.13.75-9,2.27a6.81,6.81,0,0,0-2.83,5.46,5.85,5.85,0,0,0,2,4.57q2,1.8,10.28,3.68a68.6,68.6,0,0,1,11.41,3.28,15.68,15.68,0,0,1,6.64,5.26,12.79,12.79,0,0,1,2.15,7.33,14,14,0,0,1-2.36,7.75,15.45,15.45,0,0,1-6.77,5.66,23.53,23.53,0,0,1-9.93,2,29.62,29.62,0,0,1-11.72-2,16.36,16.36,0,0,1-7.42-6.13A17.39,17.39,0,0,1,7332.83,7207.37Z" transform="translate(-6239.5 -6659.5)" style="fill:#fff"/><path d="M7383.38,7223.92v-51.53h6.83v21.16H7417v-21.16h6.82v51.53H7417v-24.29h-26.78v24.29Z" transform="translate(-6239.5 -6659.5)" style="fill:#fff"/><path d="M7703,6864.68l17.6-45.81h6.53l18.75,45.81H7739l-5.34-13.88h-19.16l-5,13.88Zm13.22-18.81h15.53l-4.78-12.69q-2.19-5.78-3.25-9.5a57.2,57.2,0,0,1-2.47,8.75Z" transform="translate(-6239.5 -6659.5)" style="fill:#fff"/><path d="M7771.74,6864.68v-4.88a12.14,12.14,0,0,1-10.53,5.63,13.4,13.4,0,0,1-5.48-1.13,9,9,0,0,1-3.78-2.82,10.64,10.64,0,0,1-1.74-4.18,28.51,28.51,0,0,1-.34-5.25v-20.56h5.62v18.41a32.54,32.54,0,0,0,.35,5.94,5.81,5.81,0,0,0,2.25,3.48,7,7,0,0,0,4.25,1.27,9.3,9.3,0,0,0,4.75-1.3,7.25,7.25,0,0,0,3.14-3.53,17.84,17.84,0,0,0,.92-6.49v-17.78h5.63v33.19Z" transform="translate(-6239.5 -6659.5)" style="fill:#fff"/><path d="M7797.87,6859.65l.81,5a21.08,21.08,0,0,1-4.25.5,9.7,9.7,0,0,1-4.75-1,5.43,5.43,0,0,1-2.37-2.55q-.69-1.58-.69-6.64v-19.09h-4.13v-4.38h4.13v-8.22l5.59-3.37v11.59h5.66v4.38h-5.66v19.4a9.74,9.74,0,0,0,.3,3.1,2.33,2.33,0,0,0,1,1.09,3.75,3.75,0,0,0,1.92.41A19.28,19.28,0,0,0,7797.87,6859.65Z" transform="translate(-6239.5 -6659.5)" style="fill:#fff"/><path d="M7803.37,6864.68v-45.81H7809v16.43a12.58,12.58,0,0,1,9.94-4.56,13.39,13.39,0,0,1,6.41,1.46,8.48,8.48,0,0,1,3.89,4,18.56,18.56,0,0,1,1.17,7.44v21h-5.62v-21q0-4.21-1.83-6.14a6.81,6.81,0,0,0-5.17-1.92,9.18,9.18,0,0,0-4.71,1.29,7.37,7.37,0,0,0-3.14,3.52,16.23,16.23,0,0,0-.94,6.12v18.16Z" transform="translate(-6239.5 -6659.5)" style="fill:#fff"/><path d="M7855.4,6850l5.72-.5a12.62,12.62,0,0,0,1.89,5.64,10.29,10.29,0,0,0,4.61,3.56,17.39,17.39,0,0,0,7,1.36,16.87,16.87,0,0,0,6.13-1,8.52,8.52,0,0,0,3.95-2.83,6.56,6.56,0,0,0,1.3-3.92,6,6,0,0,0-1.25-3.76,9.25,9.25,0,0,0-4.13-2.71,80.8,80.8,0,0,0-8.16-2.23,41.57,41.57,0,0,1-8.84-2.86,12.39,12.39,0,0,1-4.89-4.27,10.44,10.44,0,0,1-1.61-5.7,11.66,11.66,0,0,1,2-6.48,12.18,12.18,0,0,1,5.75-4.58,21.84,21.84,0,0,1,8.41-1.56,22.84,22.84,0,0,1,9,1.64,12.93,12.93,0,0,1,6,4.82,13.83,13.83,0,0,1,2.25,7.22l-5.81.44a9.38,9.38,0,0,0-3.17-6.56q-2.7-2.22-8-2.22-5.51,0-8,2a6,6,0,0,0-2.52,4.85,5.23,5.23,0,0,0,1.79,4.07q1.74,1.59,9.14,3.26a61.8,61.8,0,0,1,10.14,2.92,13.89,13.89,0,0,1,5.9,4.68,11.36,11.36,0,0,1,1.91,6.51,12.48,12.48,0,0,1-2.09,6.89,13.77,13.77,0,0,1-6,5,21,21,0,0,1-8.83,1.8,26.34,26.34,0,0,1-10.42-1.81,14.63,14.63,0,0,1-6.59-5.45A15.42,15.42,0,0,1,7855.4,6850Z" transform="translate(-6239.5 -6659.5)" style="fill:#fff"/><path d="M7922.15,6854l5.81.72a14.15,14.15,0,0,1-5.09,7.91,15.35,15.35,0,0,1-9.5,2.81c-4.86,0-8.7-1.49-11.55-4.48s-4.26-7.19-4.26-12.58q0-8.39,4.31-13a14.57,14.57,0,0,1,11.19-4.63,14.19,14.19,0,0,1,10.87,4.53q4.21,4.53,4.22,12.75,0,.51,0,1.5h-24.75q.31,5.47,3.09,8.38a9.21,9.21,0,0,0,6.94,2.9,8.63,8.63,0,0,0,5.28-1.62A10.72,10.72,0,0,0,7922.15,6854Zm-18.47-9.09h18.53a11.28,11.28,0,0,0-2.12-6.28,8.62,8.62,0,0,0-7-3.25,8.94,8.94,0,0,0-6.52,2.59A10.28,10.28,0,0,0,7903.68,6844.9Z" transform="translate(-6239.5 -6659.5)" style="fill:#fff"/><path d="M7935,6864.68v-33.19H7940v5a13.76,13.76,0,0,1,3.57-4.65,6.27,6.27,0,0,1,3.61-1.13,11,11,0,0,1,5.78,1.81l-1.93,5.22a8.09,8.09,0,0,0-4.13-1.22,5.35,5.35,0,0,0-3.31,1.11,6,6,0,0,0-2.09,3.08,21.76,21.76,0,0,0-.94,6.56v17.38Z" transform="translate(-6239.5 -6659.5)" style="fill:#fff"/><path d="M7965.56,6864.68l-12.63-33.19h5.94l7.12,19.88q1.16,3.21,2.13,6.68.75-2.62,2.09-6.31l7.38-20.25h5.78l-12.56,33.19Z" transform="translate(-6239.5 -6659.5)" style="fill:#fff"/><path d="M8011.06,6854l5.81.72a14.25,14.25,0,0,1-5.09,7.91,15.35,15.35,0,0,1-9.5,2.81q-7.29,0-11.55-4.48t-4.27-12.58q0-8.39,4.32-13a14.56,14.56,0,0,1,11.18-4.63,14.19,14.19,0,0,1,10.88,4.53q4.21,4.53,4.22,12.75,0,.51,0,1.5h-24.75q.3,5.47,3.09,8.38a9.19,9.19,0,0,0,6.94,2.9,8.63,8.63,0,0,0,5.28-1.62A10.78,10.78,0,0,0,8011.06,6854Zm-18.47-9.09h18.53a11.2,11.2,0,0,0-2.13-6.28,8.6,8.6,0,0,0-7-3.25,8.93,8.93,0,0,0-6.52,2.59A10.28,10.28,0,0,0,7992.59,6844.9Z" transform="translate(-6239.5 -6659.5)" style="fill:#fff"/><path d="M8023.87,6864.68v-33.19h5.06v5a13.76,13.76,0,0,1,3.58-4.65,6.25,6.25,0,0,1,3.61-1.13,11.06,11.06,0,0,1,5.78,1.81l-1.94,5.22a8.06,8.06,0,0,0-4.12-1.22,5.33,5.33,0,0,0-3.31,1.11,6.05,6.05,0,0,0-2.1,3.08,22.08,22.08,0,0,0-.94,6.56v17.38Z" transform="translate(-6239.5 -6659.5)" style="fill:#fff"/><path d="M7691.11,6917.94l-10-25.77h3.69l6.7,18.72c.54,1.5,1,2.9,1.36,4.22.39-1.41.86-2.82,1.38-4.22l7-18.72h3.49l-10.09,25.77Z" transform="translate(-6239.5 -6659.5)" style="fill:#fff"/><path d="M7718.14,6911.92l3.27.41a8,8,0,0,1-2.86,4.45,8.67,8.67,0,0,1-5.35,1.58,8.5,8.5,0,0,1-6.49-2.53,9.85,9.85,0,0,1-2.4-7.07q0-4.71,2.42-7.31a8.21,8.21,0,0,1,6.3-2.6,8,8,0,0,1,6.11,2.54q2.38,2.55,2.38,7.18c0,.18,0,.47,0,.84h-13.92a7.2,7.2,0,0,0,1.74,4.71,5.17,5.17,0,0,0,3.9,1.64,4.84,4.84,0,0,0,3-.92A6.06,6.06,0,0,0,7718.14,6911.92Zm-10.39-5.11h10.43a6.27,6.27,0,0,0-1.2-3.53,4.84,4.84,0,0,0-3.92-1.83,5,5,0,0,0-3.66,1.46A5.79,5.79,0,0,0,7707.75,6906.81Z" transform="translate(-6239.5 -6659.5)" style="fill:#fff"/><path d="M7725.35,6917.94v-18.67h2.85v2.83a7.63,7.63,0,0,1,2-2.62,3.53,3.53,0,0,1,2-.63,6.15,6.15,0,0,1,3.25,1l-1.09,2.93a4.46,4.46,0,0,0-2.32-.68,3,3,0,0,0-1.86.62,3.43,3.43,0,0,0-1.18,1.73,12.42,12.42,0,0,0-.53,3.69v9.78Z" transform="translate(-6239.5 -6659.5)" style="fill:#fff"/><path d="M7737.39,6895.8v-3.63h3.16v3.63Zm0,22.14v-18.67h3.16v18.67Z" transform="translate(-6239.5 -6659.5)" style="fill:#fff"/><path d="M7746.13,6917.94v-16.21h-2.8v-2.46h2.8v-2a8.78,8.78,0,0,1,.33-2.79,4.08,4.08,0,0,1,1.61-2,5.79,5.79,0,0,1,3.22-.76,15.53,15.53,0,0,1,3,.31l-.48,2.76a11.18,11.18,0,0,0-1.86-.17,2.78,2.78,0,0,0-2,.61,3.33,3.33,0,0,0-.6,2.3v1.73h3.64v2.46h-3.64v16.21Z" transform="translate(-6239.5 -6659.5)" style="fill:#fff"/><path d="M7755.39,6895.8v-3.63h3.16v3.63Zm0,22.14v-18.67h3.16v18.67Z" transform="translate(-6239.5 -6659.5)" style="fill:#fff"/><path d="M7776.15,6911.92l3.27.41a8,8,0,0,1-2.87,4.45,8.62,8.62,0,0,1-5.34,1.58,8.5,8.5,0,0,1-6.49-2.53,9.85,9.85,0,0,1-2.4-7.07c0-3.14.8-5.58,2.42-7.31a8.21,8.21,0,0,1,6.3-2.6,8,8,0,0,1,6.11,2.54c1.58,1.7,2.38,4.09,2.38,7.18,0,.18,0,.47,0,.84h-13.92a7.1,7.1,0,0,0,1.74,4.71,5.17,5.17,0,0,0,3.9,1.64,4.84,4.84,0,0,0,3-.92A6.06,6.06,0,0,0,7776.15,6911.92Zm-10.39-5.11h10.43a6.34,6.34,0,0,0-1.2-3.53,4.84,4.84,0,0,0-3.92-1.83,5,5,0,0,0-3.66,1.46A5.79,5.79,0,0,0,7765.76,6906.81Z" transform="translate(-6239.5 -6659.5)" style="fill:#fff"/><path d="M7782.13,6912.36l3.13-.49a4.34,4.34,0,0,0,1.46,2.88,5.13,5.13,0,0,0,3.37,1,4.94,4.94,0,0,0,3.23-.89,2.64,2.64,0,0,0,1.06-2.08,1.92,1.92,0,0,0-.93-1.69,13.71,13.71,0,0,0-3.24-1.07,29.49,29.49,0,0,1-4.82-1.53,4.56,4.56,0,0,1-2-1.77,4.75,4.75,0,0,1-.7-2.51,4.83,4.83,0,0,1,.58-2.31,5,5,0,0,1,1.55-1.76,6.62,6.62,0,0,1,2-.93,9.65,9.65,0,0,1,2.74-.37,10.89,10.89,0,0,1,3.86.63,5.28,5.28,0,0,1,2.45,1.71,6.7,6.7,0,0,1,1.09,2.89l-3.1.43a3.31,3.31,0,0,0-1.22-2.25,4.44,4.44,0,0,0-2.85-.81,5.21,5.21,0,0,0-3.12.72,2.1,2.1,0,0,0-.93,1.69,1.72,1.72,0,0,0,.39,1.1,2.87,2.87,0,0,0,1.21.85c.32.11,1.25.38,2.8.81a37.51,37.51,0,0,1,4.68,1.46,4.82,4.82,0,0,1,2.09,1.66,4.68,4.68,0,0,1,.75,2.71,5.33,5.33,0,0,1-.92,3,6,6,0,0,1-2.67,2.16,9.67,9.67,0,0,1-3.93.77,8.82,8.82,0,0,1-5.55-1.51A7.05,7.05,0,0,1,7782.13,6912.36Z" transform="translate(-6239.5 -6659.5)" style="fill:#fff"/><path d="M7823.63,6917.94v-2.75a6.83,6.83,0,0,1-5.92,3.17,7.44,7.44,0,0,1-3.09-.64,5.14,5.14,0,0,1-2.13-1.59,6,6,0,0,1-1-2.34,15.89,15.89,0,0,1-.2-3v-11.56h3.17v10.35a18.43,18.43,0,0,0,.19,3.34,3.28,3.28,0,0,0,1.27,2,3.87,3.87,0,0,0,2.39.71,5.16,5.16,0,0,0,2.67-.73,4.09,4.09,0,0,0,1.77-2,10.16,10.16,0,0,0,.51-3.65v-10h3.17v18.67Z" transform="translate(-6239.5 -6659.5)" style="fill:#fff"/><path d="M7830.15,6912.36l3.13-.49a4.39,4.39,0,0,0,1.47,2.88,5.09,5.09,0,0,0,3.36,1,5,5,0,0,0,3.24-.89,2.66,2.66,0,0,0,1-2.08,1.92,1.92,0,0,0-.93-1.69,13.56,13.56,0,0,0-3.23-1.07,29.69,29.69,0,0,1-4.83-1.53,4.67,4.67,0,0,1-2-1.77,4.74,4.74,0,0,1-.69-2.51,4.82,4.82,0,0,1,.57-2.31,5.14,5.14,0,0,1,1.55-1.76,6.68,6.68,0,0,1,2-.93,9.63,9.63,0,0,1,2.73-.37,10.85,10.85,0,0,1,3.86.63,5.23,5.23,0,0,1,2.45,1.71,6.7,6.7,0,0,1,1.09,2.89l-3.09.43a3.35,3.35,0,0,0-1.22-2.25,4.49,4.49,0,0,0-2.86-.81,5.18,5.18,0,0,0-3.11.72,2.1,2.1,0,0,0-.93,1.69,1.77,1.77,0,0,0,.38,1.1,2.9,2.9,0,0,0,1.22.85q.46.16,2.79.81a38.4,38.4,0,0,1,4.69,1.46,4.85,4.85,0,0,1,2.08,1.66,4.68,4.68,0,0,1,.75,2.71,5.26,5.26,0,0,1-.92,3,5.94,5.94,0,0,1-2.66,2.16,9.68,9.68,0,0,1-3.94.77,8.81,8.81,0,0,1-5.54-1.51A7,7,0,0,1,7830.15,6912.36Z" transform="translate(-6239.5 -6659.5)" style="fill:#fff"/><path d="M7862.2,6911.92l3.26.41a8,8,0,0,1-2.86,4.45,8.64,8.64,0,0,1-5.34,1.58,8.53,8.53,0,0,1-6.5-2.53,9.85,9.85,0,0,1-2.4-7.07q0-4.71,2.43-7.31a8.17,8.17,0,0,1,6.29-2.6,8,8,0,0,1,6.12,2.54q2.37,2.55,2.37,7.18c0,.18,0,.47,0,.84h-13.92a7.2,7.2,0,0,0,1.74,4.71,5.17,5.17,0,0,0,3.9,1.64,4.84,4.84,0,0,0,3-.92A6.14,6.14,0,0,0,7862.2,6911.92Zm-10.39-5.11h10.42a6.34,6.34,0,0,0-1.19-3.53,4.86,4.86,0,0,0-3.92-1.83,5,5,0,0,0-3.67,1.46A5.73,5.73,0,0,0,7851.81,6906.81Z" transform="translate(-6239.5 -6659.5)" style="fill:#fff"/><path d="M7869.4,6917.94v-18.67h2.85v2.83a7.76,7.76,0,0,1,2-2.62,3.53,3.53,0,0,1,2-.63,6.15,6.15,0,0,1,3.25,1l-1.08,2.93a4.52,4.52,0,0,0-2.33-.68,3,3,0,0,0-1.86.62,3.43,3.43,0,0,0-1.18,1.73,12.42,12.42,0,0,0-.52,3.69v9.78Z" transform="translate(-6239.5 -6659.5)" style="fill:#fff"/><path d="M7903.61,6911.1l3.11.4a8.06,8.06,0,0,1-2.61,5,7.62,7.62,0,0,1-5.16,1.82,8,8,0,0,1-6.16-2.51q-2.32-2.51-2.33-7.18a13,13,0,0,1,1-5.29,7,7,0,0,1,3.05-3.4,9,9,0,0,1,4.46-1.13,7.76,7.76,0,0,1,5,1.53,7.07,7.07,0,0,1,2.48,4.37l-3.07.48a5.09,5.09,0,0,0-1.56-2.83,4,4,0,0,0-2.7-.95,4.9,4.9,0,0,0-3.88,1.71q-1.5,1.71-1.5,5.42t1.44,5.47a4.71,4.71,0,0,0,3.77,1.71,4.4,4.4,0,0,0,3.11-1.15A5.65,5.65,0,0,0,7903.61,6911.1Z" transform="translate(-6239.5 -6659.5)" style="fill:#fff"/><path d="M7909.39,6917.94v-18.67h2.85v2.83a7.76,7.76,0,0,1,2-2.62,3.53,3.53,0,0,1,2-.63,6.21,6.21,0,0,1,3.26,1l-1.09,2.93a4.52,4.52,0,0,0-2.33-.68,3,3,0,0,0-1.86.62,3.43,3.43,0,0,0-1.18,1.73,12.42,12.42,0,0,0-.52,3.69v9.78Z" transform="translate(-6239.5 -6659.5)" style="fill:#fff"/><path d="M7934.2,6911.92l3.26.41a8,8,0,0,1-2.86,4.45,8.64,8.64,0,0,1-5.34,1.58,8.53,8.53,0,0,1-6.5-2.53,9.85,9.85,0,0,1-2.4-7.07q0-4.71,2.43-7.31a8.17,8.17,0,0,1,6.29-2.6,8,8,0,0,1,6.12,2.54q2.37,2.55,2.37,7.18c0,.18,0,.47,0,.84h-13.92a7.2,7.2,0,0,0,1.74,4.71,5.17,5.17,0,0,0,3.9,1.64,4.84,4.84,0,0,0,3-.92A6.14,6.14,0,0,0,7934.2,6911.92Zm-10.39-5.11h10.42a6.34,6.34,0,0,0-1.19-3.53,4.86,4.86,0,0,0-3.92-1.83,5,5,0,0,0-3.67,1.46A5.73,5.73,0,0,0,7923.81,6906.81Z" transform="translate(-6239.5 -6659.5)" style="fill:#fff"/><path d="M7953.55,6917.94v-2.36a5.81,5.81,0,0,1-5.22,2.78,7.34,7.34,0,0,1-4.11-1.23,8.19,8.19,0,0,1-2.9-3.44,12,12,0,0,1-1-5.07,13.31,13.31,0,0,1,.94-5.07,7.34,7.34,0,0,1,2.79-3.49,7.46,7.46,0,0,1,4.17-1.21,6.16,6.16,0,0,1,3,.71,6.24,6.24,0,0,1,2.15,1.85v-9.24h3.14v25.77Zm-10-9.32a8.09,8.09,0,0,0,1.51,5.36,4.58,4.58,0,0,0,3.57,1.78,4.47,4.47,0,0,0,3.52-1.7,7.81,7.81,0,0,0,1.45-5.18c0-2.55-.49-4.43-1.48-5.62a4.52,4.52,0,0,0-3.63-1.8,4.4,4.4,0,0,0-3.53,1.73Q7943.55,6904.92,7943.55,6908.62Z" transform="translate(-6239.5 -6659.5)" style="fill:#fff"/><path d="M7974.24,6911.92l3.27.41a8,8,0,0,1-2.87,4.45,8.62,8.62,0,0,1-5.34,1.58,8.53,8.53,0,0,1-6.5-2.53,9.89,9.89,0,0,1-2.4-7.07q0-4.71,2.43-7.31a8.19,8.19,0,0,1,6.29-2.6,8,8,0,0,1,6.12,2.54q2.37,2.55,2.37,7.18c0,.18,0,.47,0,.84h-13.93a7.2,7.2,0,0,0,1.74,4.71,5.21,5.21,0,0,0,3.91,1.64,4.84,4.84,0,0,0,3-.92A6.06,6.06,0,0,0,7974.24,6911.92Zm-10.39-5.11h10.42a6.34,6.34,0,0,0-1.19-3.53,4.86,4.86,0,0,0-3.92-1.83,5,5,0,0,0-3.67,1.46A5.78,5.78,0,0,0,7963.85,6906.81Z" transform="translate(-6239.5 -6659.5)" style="fill:#fff"/><path d="M7981.48,6917.94v-18.67h2.85v2.65a6.7,6.7,0,0,1,5.94-3.07,7.86,7.86,0,0,1,3.1.6,5,5,0,0,1,2.12,1.59,6,6,0,0,1,1,2.34,17.74,17.74,0,0,1,.18,3.08v11.48h-3.16v-11.36a8.67,8.67,0,0,0-.37-2.89,3,3,0,0,0-1.31-1.53,4.18,4.18,0,0,0-2.21-.57,5.15,5.15,0,0,0-3.49,1.28q-1.47,1.29-1.47,4.87v10.2Z" transform="translate(-6239.5 -6659.5)" style="fill:#fff"/><path d="M8008.41,6915.11l.46,2.79a11.57,11.57,0,0,1-2.39.28,5.5,5.5,0,0,1-2.68-.54,3.07,3.07,0,0,1-1.33-1.44,11.19,11.19,0,0,1-.39-3.73v-10.74h-2.32v-2.46h2.32v-4.63l3.15-1.89v6.52h3.18v2.46h-3.18v10.91a5.45,5.45,0,0,0,.17,1.74,1.3,1.3,0,0,0,.54.62,2.12,2.12,0,0,0,1.08.23A10.53,10.53,0,0,0,8008.41,6915.11Z" transform="translate(-6239.5 -6659.5)" style="fill:#fff"/><path d="M8011.52,6895.8v-3.63h3.17v3.63Zm0,22.14v-18.67h3.17v18.67Z" transform="translate(-6239.5 -6659.5)" style="fill:#fff"/><path d="M8031.68,6915.63a11.71,11.71,0,0,1-3.38,2.11,9.78,9.78,0,0,1-3.49.62,6.75,6.75,0,0,1-4.73-1.51,5,5,0,0,1-1.65-3.84,5.15,5.15,0,0,1,.62-2.5,5.25,5.25,0,0,1,1.64-1.82,7.72,7.72,0,0,1,2.27-1,23.4,23.4,0,0,1,2.82-.47,29.57,29.57,0,0,0,5.64-1.09c0-.44,0-.71,0-.83a3.46,3.46,0,0,0-.9-2.72,5.27,5.27,0,0,0-3.6-1.08,5.61,5.61,0,0,0-3.3.79,4.75,4.75,0,0,0-1.57,2.77l-3.1-.43a7.8,7.8,0,0,1,1.39-3.2,6.1,6.1,0,0,1,2.8-1.89,12.7,12.7,0,0,1,4.23-.65,11.12,11.12,0,0,1,3.89.56,4.4,4.4,0,0,1,3.18,3.57,17.19,17.19,0,0,1,.16,2.91v4.22a45.87,45.87,0,0,0,.2,5.58,7.22,7.22,0,0,0,.8,2.25h-3.3A6.87,6.87,0,0,1,8031.68,6915.63Zm-.26-7.06a23.3,23.3,0,0,1-5.17,1.19,12.4,12.4,0,0,0-2.76.63,2.84,2.84,0,0,0-1.25,1,2.75,2.75,0,0,0-.44,1.51,2.71,2.71,0,0,0,1,2.11,4.16,4.16,0,0,0,2.81.84,6.55,6.55,0,0,0,3.25-.8,4.91,4.91,0,0,0,2.09-2.19,7.62,7.62,0,0,0,.51-3.16Z" transform="translate(-6239.5 -6659.5)" style="fill:#fff"/><path d="M8039.45,6917.94v-25.77h3.17v25.77Z" transform="translate(-6239.5 -6659.5)" style="fill:#fff"/><path d="M8046.26,6912.36l3.12-.49a4.39,4.39,0,0,0,1.47,2.88,5.13,5.13,0,0,0,3.37,1,4.94,4.94,0,0,0,3.23-.89,2.64,2.64,0,0,0,1.06-2.08,1.92,1.92,0,0,0-.93-1.69,13.89,13.89,0,0,0-3.24-1.07,29.15,29.15,0,0,1-4.82-1.53,4.56,4.56,0,0,1-2-1.77,4.87,4.87,0,0,1-.12-4.82,5,5,0,0,1,1.55-1.76,6.5,6.5,0,0,1,2-.93,9.65,9.65,0,0,1,2.74-.37,10.89,10.89,0,0,1,3.86.63,5.28,5.28,0,0,1,2.45,1.71,6.83,6.83,0,0,1,1.09,2.89l-3.1.43a3.31,3.31,0,0,0-1.22-2.25,4.45,4.45,0,0,0-2.86-.81,5.18,5.18,0,0,0-3.11.72,2.1,2.1,0,0,0-.93,1.69,1.72,1.72,0,0,0,.39,1.1,2.87,2.87,0,0,0,1.21.85c.32.11,1.25.38,2.8.81a38.09,38.09,0,0,1,4.68,1.46,4.73,4.73,0,0,1,2.08,1.66,4.61,4.61,0,0,1,.76,2.71,5.33,5.33,0,0,1-.92,3,6,6,0,0,1-2.67,2.16,9.67,9.67,0,0,1-3.93.77,8.82,8.82,0,0,1-5.55-1.51A7.05,7.05,0,0,1,8046.26,6912.36Z" transform="translate(-6239.5 -6659.5)" style="fill:#fff"/><path d="M7714,7248.17l6.06,1.53q-1.91,7.47-6.86,11.39a18.91,18.91,0,0,1-12.11,3.92q-7.4,0-12-3a18.84,18.84,0,0,1-7.06-8.74,31.08,31.08,0,0,1-2.43-12.28,26.89,26.89,0,0,1,2.74-12.48,18.69,18.69,0,0,1,7.78-8.1,22.77,22.77,0,0,1,11.11-2.76,18.73,18.73,0,0,1,11.56,3.5,18.13,18.13,0,0,1,6.53,9.84l-6,1.41a14.14,14.14,0,0,0-4.62-7.29,12.33,12.33,0,0,0-7.63-2.28,14.83,14.83,0,0,0-8.82,2.53,13.39,13.39,0,0,0-5,6.8,27.37,27.37,0,0,0-1.44,8.8,27.84,27.84,0,0,0,1.71,10.2,12.68,12.68,0,0,0,5.29,6.52,14.93,14.93,0,0,0,7.78,2.15,13.08,13.08,0,0,0,8.63-2.93A15.06,15.06,0,0,0,7714,7248.17Z" transform="translate(-6239.5 -6659.5)" style="fill:#fff"/><path d="M7724.76,7247.64q0-9.23,5.12-13.66a15.46,15.46,0,0,1,10.44-3.69,14.91,14.91,0,0,1,11.19,4.49q4.35,4.49,4.34,12.39,0,6.4-1.92,10.08a13.65,13.65,0,0,1-5.59,5.7,16.34,16.34,0,0,1-8,2,14.9,14.9,0,0,1-11.26-4.47Q7724.75,7256,7724.76,7247.64Zm5.78,0q0,6.38,2.78,9.54a9.27,9.27,0,0,0,14,0q2.78-3.19,2.78-9.72,0-6.16-2.79-9.33a9.29,9.29,0,0,0-14,0Q7730.55,7241.27,7730.54,7247.64Z" transform="translate(-6239.5 -6659.5)" style="fill:#fff"/><path d="M7762.45,7264.23V7231h5.06v4.72a12,12,0,0,1,10.56-5.47,13.87,13.87,0,0,1,5.52,1.08,8.67,8.67,0,0,1,3.76,2.83,10.72,10.72,0,0,1,1.75,4.15,31.93,31.93,0,0,1,.32,5.47v20.41h-5.63V7244a15.09,15.09,0,0,0-.66-5.14,5.41,5.41,0,0,0-2.32-2.72,7.51,7.51,0,0,0-3.93-1,9.12,9.12,0,0,0-6.2,2.28q-2.61,2.28-2.61,8.65v18.13Z" transform="translate(-6239.5 -6659.5)" style="fill:#fff"/><path d="M7799.38,7264.23v-28.81h-5V7231h5v-3.53a15.3,15.3,0,0,1,.6-5,7.11,7.11,0,0,1,2.86-3.54,10.24,10.24,0,0,1,5.73-1.36,27,27,0,0,1,5.25.56l-.84,4.9a19.71,19.71,0,0,0-3.31-.31,4.94,4.94,0,0,0-3.63,1.1c-.71.73-1.06,2.09-1.06,4.09V7231h6.47v4.38H7805v28.81Z" transform="translate(-6239.5 -6659.5)" style="fill:#fff"/><path d="M7815.85,7224.89v-6.47h5.63v6.47Zm0,39.34V7231h5.63v33.19Z" transform="translate(-6239.5 -6659.5)" style="fill:#fff"/><path d="M7829,7267l5.47.81a5.21,5.21,0,0,0,1.9,3.69,9.4,9.4,0,0,0,5.72,1.56,10,10,0,0,0,6-1.56,7.67,7.67,0,0,0,2.88-4.38,35.92,35.92,0,0,0,.41-7.21,11.6,11.6,0,0,1-9.19,4.34q-6.84,0-10.6-4.94a19,19,0,0,1-3.75-11.84,22.17,22.17,0,0,1,1.72-8.77,13.81,13.81,0,0,1,5-6.2,13.42,13.42,0,0,1,7.67-2.19A11.91,11.91,0,0,1,7852,7235v-4h5.18v28.69q0,7.76-1.57,11a11.57,11.57,0,0,1-5,5.11,17.34,17.34,0,0,1-8.43,1.88,15.9,15.9,0,0,1-9.59-2.67C7830.1,7273.25,7828.93,7270.56,7829,7267Zm4.66-19.94q0,6.54,2.59,9.53a8.56,8.56,0,0,0,13,0q2.63-3,2.62-9.36c0-4.06-.9-7.13-2.7-9.19a8.35,8.35,0,0,0-6.51-3.09,8.11,8.11,0,0,0-6.38,3.05Q7833.67,7241,7833.67,7247Z" transform="translate(-6239.5 -6659.5)" style="fill:#fff"/><path d="M7882.07,7249.51l5.72-.5a12.62,12.62,0,0,0,1.89,5.64,10.29,10.29,0,0,0,4.61,3.56,17.39,17.39,0,0,0,7,1.36,16.83,16.83,0,0,0,6.13-1,8.47,8.47,0,0,0,3.95-2.83,6.56,6.56,0,0,0,1.3-3.92,6,6,0,0,0-1.25-3.76,9.25,9.25,0,0,0-4.13-2.71,81.14,81.14,0,0,0-8.15-2.23,42.09,42.09,0,0,1-8.85-2.86,12.39,12.39,0,0,1-4.89-4.27,10.44,10.44,0,0,1-1.61-5.7,11.66,11.66,0,0,1,2-6.48,12.18,12.18,0,0,1,5.75-4.58,21.84,21.84,0,0,1,8.41-1.56,22.84,22.84,0,0,1,9,1.64,13,13,0,0,1,6,4.82,14,14,0,0,1,2.25,7.22l-5.82.44a9.38,9.38,0,0,0-3.17-6.56q-2.7-2.22-8-2.22-5.51,0-8,2a6,6,0,0,0-2.51,4.85,5.22,5.22,0,0,0,1.78,4.07q1.74,1.59,9.14,3.26a61.8,61.8,0,0,1,10.14,2.92,13.89,13.89,0,0,1,5.9,4.68,11.28,11.28,0,0,1,1.91,6.51,12.48,12.48,0,0,1-2.09,6.89,13.71,13.71,0,0,1-6,5,20.92,20.92,0,0,1-8.83,1.8,26.34,26.34,0,0,1-10.42-1.81,14.63,14.63,0,0,1-6.59-5.45A15.5,15.5,0,0,1,7882.07,7249.51Z" transform="translate(-6239.5 -6659.5)" style="fill:#fff"/><path d="M7948.82,7253.54l5.81.72a14.15,14.15,0,0,1-5.09,7.91,15.35,15.35,0,0,1-9.5,2.81q-7.28,0-11.55-4.48t-4.26-12.58q0-8.39,4.31-13a14.58,14.58,0,0,1,11.19-4.63,14.17,14.17,0,0,1,10.87,4.53q4.23,4.53,4.22,12.75,0,.51,0,1.5H7930q.31,5.48,3.09,8.38a9.21,9.21,0,0,0,6.94,2.9,8.63,8.63,0,0,0,5.28-1.62A10.72,10.72,0,0,0,7948.82,7253.54Zm-18.47-9.09h18.53a11.2,11.2,0,0,0-2.12-6.28,8.62,8.62,0,0,0-7-3.25,8.92,8.92,0,0,0-6.51,2.59A10.24,10.24,0,0,0,7930.35,7244.45Z" transform="translate(-6239.5 -6659.5)" style="fill:#fff"/><path d="M7961.63,7264.23V7231h5.07v5a13.64,13.64,0,0,1,3.58-4.65,6.22,6.22,0,0,1,3.6-1.13,11.06,11.06,0,0,1,5.79,1.81l-1.94,5.22a8.09,8.09,0,0,0-4.13-1.22,5.35,5.35,0,0,0-3.31,1.11,6,6,0,0,0-2.09,3.08,21.76,21.76,0,0,0-.94,6.56v17.38Z" transform="translate(-6239.5 -6659.5)" style="fill:#fff"/><path d="M7992.23,7264.23,7979.6,7231h5.94l7.13,19.88c.77,2.14,1.47,4.37,2.12,6.68q.75-2.62,2.09-6.31l7.38-20.25H8010l-12.56,33.19Z" transform="translate(-6239.5 -6659.5)" style="fill:#fff"/><path d="M8037.73,7253.54l5.81.72a14.2,14.2,0,0,1-5.09,7.91,15.35,15.35,0,0,1-9.5,2.81q-7.29,0-11.55-4.48t-4.27-12.58q0-8.39,4.32-13a14.56,14.56,0,0,1,11.18-4.63,14.19,14.19,0,0,1,10.88,4.53q4.21,4.53,4.22,12.75,0,.51,0,1.5H8019q.31,5.48,3.09,8.38a9.19,9.19,0,0,0,6.94,2.9,8.63,8.63,0,0,0,5.28-1.62A10.78,10.78,0,0,0,8037.73,7253.54Zm-18.47-9.09h18.53a11.28,11.28,0,0,0-2.12-6.28,8.63,8.63,0,0,0-7-3.25,8.93,8.93,0,0,0-6.52,2.59A10.28,10.28,0,0,0,8019.26,7244.45Z" transform="translate(-6239.5 -6659.5)" style="fill:#fff"/><path d="M8050.54,7264.23V7231h5.06v5a13.76,13.76,0,0,1,3.58-4.65,6.27,6.27,0,0,1,3.61-1.13,11,11,0,0,1,5.78,1.81l-1.94,5.22a8.06,8.06,0,0,0-4.12-1.22,5.35,5.35,0,0,0-3.31,1.11,6.05,6.05,0,0,0-2.1,3.08,22.08,22.08,0,0,0-.93,6.56v17.38Z" transform="translate(-6239.5 -6659.5)" style="fill:#fff"/><path d="M7711.75,7314.77V7289h9.72a22.75,22.75,0,0,1,3.92.25,7.81,7.81,0,0,1,3.19,1.2,6.31,6.31,0,0,1,2.06,2.49,8.4,8.4,0,0,1-1.31,9.08q-2.09,2.26-7.56,2.27h-6.61v10.48Zm3.41-13.52h6.67c2.2,0,3.76-.41,4.69-1.23a4.4,4.4,0,0,0,1.39-3.46,4.7,4.7,0,0,0-.82-2.77,3.79,3.79,0,0,0-2.15-1.52,14.81,14.81,0,0,0-3.19-.23h-6.59Z" transform="translate(-6239.5 -6659.5)" style="fill:#fff"/><path d="M7735.33,7314.77V7296.1h2.84v2.83a7.74,7.74,0,0,1,2-2.62,3.51,3.51,0,0,1,2-.63,6.18,6.18,0,0,1,3.25,1l-1.09,2.93a4.61,4.61,0,0,0-2.32-.68,3.09,3.09,0,0,0-1.87.62,3.39,3.39,0,0,0-1.17,1.73,12.44,12.44,0,0,0-.53,3.7v9.77Z" transform="translate(-6239.5 -6659.5)" style="fill:#fff"/><path d="M7746.17,7305.43q0-5.18,2.88-7.68a8.72,8.72,0,0,1,5.87-2.07,8.39,8.39,0,0,1,6.3,2.52,9.6,9.6,0,0,1,2.44,7,12.38,12.38,0,0,1-1.08,5.67,7.62,7.62,0,0,1-3.15,3.21,9.16,9.16,0,0,1-4.51,1.14,8.4,8.4,0,0,1-6.33-2.51C7747,7311,7746.17,7308.59,7746.17,7305.43Zm3.25,0q0,3.6,1.57,5.37a5.2,5.2,0,0,0,7.85,0q1.58-1.8,1.57-5.47a7.77,7.77,0,0,0-1.57-5.25,5.23,5.23,0,0,0-7.85,0A7.89,7.89,0,0,0,7749.42,7305.43Z" transform="translate(-6239.5 -6659.5)" style="fill:#fff"/><path d="M7772.56,7314.77l-7.11-18.67h3.34l4,11.18c.44,1.21.83,2.46,1.2,3.76.28-1,.67-2.17,1.17-3.55l4.15-11.39h3.26l-7.07,18.67Z" transform="translate(-6239.5 -6659.5)" style="fill:#fff"/><path d="M7785.39,7292.64V7289h3.16v3.64Zm0,22.13V7296.1h3.16v18.67Z" transform="translate(-6239.5 -6659.5)" style="fill:#fff"/><path d="M7805.48,7314.77v-2.36a5.8,5.8,0,0,1-5.22,2.78,7.34,7.34,0,0,1-4.11-1.23,8.19,8.19,0,0,1-2.9-3.44,12,12,0,0,1-1-5.07,13.31,13.31,0,0,1,.93-5.07,7.34,7.34,0,0,1,2.79-3.49,7.46,7.46,0,0,1,4.17-1.21,6.22,6.22,0,0,1,5.15,2.57V7289h3.15v25.77Zm-10-9.32a8.09,8.09,0,0,0,1.51,5.36,4.55,4.55,0,0,0,3.57,1.78,4.47,4.47,0,0,0,3.52-1.7,7.78,7.78,0,0,0,1.45-5.17c0-2.56-.49-4.43-1.47-5.63a4.57,4.57,0,0,0-3.64-1.79,4.39,4.39,0,0,0-3.53,1.72Q7795.48,7301.75,7795.48,7305.45Z" transform="translate(-6239.5 -6659.5)" style="fill:#fff"/><path d="M7826.17,7308.76l3.27.4a8,8,0,0,1-2.87,4.45,9.72,9.72,0,0,1-11.84-.94,9.86,9.86,0,0,1-2.4-7.08q0-4.71,2.43-7.31a8.24,8.24,0,0,1,6.29-2.6,8,8,0,0,1,6.12,2.55q2.37,2.55,2.37,7.17c0,.19,0,.47,0,.84H7815.6a7.2,7.2,0,0,0,1.74,4.71,5.21,5.21,0,0,0,3.91,1.64,4.84,4.84,0,0,0,3-.92A6,6,0,0,0,7826.17,7308.76Zm-10.39-5.12h10.42a6.27,6.27,0,0,0-1.19-3.53,4.86,4.86,0,0,0-3.92-1.83,5.05,5.05,0,0,0-3.67,1.46A5.78,5.78,0,0,0,7815.78,7303.64Z" transform="translate(-6239.5 -6659.5)" style="fill:#fff"/><path d="M7832.15,7309.2l3.12-.5a4.41,4.41,0,0,0,1.47,2.89,5.17,5.17,0,0,0,3.37,1,4.94,4.94,0,0,0,3.23-.89,2.63,2.63,0,0,0,1.06-2.08,1.92,1.92,0,0,0-.93-1.69,13.89,13.89,0,0,0-3.24-1.07,29.39,29.39,0,0,1-4.82-1.52,4.63,4.63,0,0,1-2.74-4.28,4.82,4.82,0,0,1,.57-2.31,5.1,5.1,0,0,1,1.56-1.77,6.51,6.51,0,0,1,2-.92,9.31,9.31,0,0,1,2.74-.38,10.79,10.79,0,0,1,3.85.63,5.2,5.2,0,0,1,2.46,1.72,6.78,6.78,0,0,1,1.09,2.89l-3.1.42a3.4,3.4,0,0,0-1.22-2.25,4.47,4.47,0,0,0-2.86-.81,5.18,5.18,0,0,0-3.11.72,2.1,2.1,0,0,0-.93,1.69,1.75,1.75,0,0,0,.39,1.11,2.77,2.77,0,0,0,1.21.84c.32.12,1.25.39,2.8.81a39.48,39.48,0,0,1,4.68,1.47,4.66,4.66,0,0,1,2.08,1.66,4.57,4.57,0,0,1,.76,2.7,5.33,5.33,0,0,1-.92,3,6,6,0,0,1-2.67,2.17,9.67,9.67,0,0,1-3.93.76,8.76,8.76,0,0,1-5.55-1.51A7,7,0,0,1,7832.15,7309.2Z" transform="translate(-6239.5 -6659.5)" style="fill:#fff"/><path d="M7873.65,7314.77V7312a6.84,6.84,0,0,1-5.93,3.16,7.54,7.54,0,0,1-3.08-.63,5,5,0,0,1-2.13-1.59,5.89,5.89,0,0,1-1-2.35,15.84,15.84,0,0,1-.2-2.95V7296.1h3.17v10.35a18.36,18.36,0,0,0,.19,3.34,3.25,3.25,0,0,0,1.27,2,3.88,3.88,0,0,0,2.39.72,5.26,5.26,0,0,0,2.67-.73,4,4,0,0,0,1.76-2,9.87,9.87,0,0,0,.52-3.65v-10h3.17v18.67Z" transform="translate(-6239.5 -6659.5)" style="fill:#fff"/><path d="M7880.17,7309.2l3.13-.5a4.33,4.33,0,0,0,1.47,2.89,5.14,5.14,0,0,0,3.36,1,5,5,0,0,0,3.24-.89,2.65,2.65,0,0,0,1.05-2.08,1.92,1.92,0,0,0-.93-1.69,13.53,13.53,0,0,0-3.24-1.07,29.73,29.73,0,0,1-4.82-1.52,4.64,4.64,0,0,1-2-1.78,4.7,4.7,0,0,1-.69-2.5,4.82,4.82,0,0,1,.57-2.31,5.18,5.18,0,0,1,1.55-1.77,6.69,6.69,0,0,1,2-.92,9.29,9.29,0,0,1,2.73-.38,10.89,10.89,0,0,1,3.86.63,5.17,5.17,0,0,1,2.45,1.72,6.65,6.65,0,0,1,1.09,2.89l-3.09.42a3.37,3.37,0,0,0-1.23-2.25,4.44,4.44,0,0,0-2.85-.81,5.16,5.16,0,0,0-3.11.72,2.11,2.11,0,0,0-.94,1.69,1.75,1.75,0,0,0,.39,1.11,2.77,2.77,0,0,0,1.21.84c.32.12,1.25.39,2.8.81a38.86,38.86,0,0,1,4.68,1.47,4.75,4.75,0,0,1,2.09,1.66,4.64,4.64,0,0,1,.75,2.7,5.26,5.26,0,0,1-.92,3,5.94,5.94,0,0,1-2.66,2.17,9.72,9.72,0,0,1-3.94.76,8.78,8.78,0,0,1-5.55-1.51A7,7,0,0,1,7880.17,7309.2Z" transform="translate(-6239.5 -6659.5)" style="fill:#fff"/><path d="M7912.21,7308.76l3.27.4a8,8,0,0,1-2.86,4.45,8.67,8.67,0,0,1-5.35,1.58,8.53,8.53,0,0,1-6.49-2.52,9.86,9.86,0,0,1-2.4-7.08q0-4.71,2.43-7.31a8.21,8.21,0,0,1,6.29-2.6,8,8,0,0,1,6.12,2.55q2.37,2.55,2.37,7.17c0,.19,0,.47,0,.84h-13.92a7.2,7.2,0,0,0,1.74,4.71,5.17,5.17,0,0,0,3.9,1.64,4.84,4.84,0,0,0,3-.92A6,6,0,0,0,7912.21,7308.76Zm-10.38-5.12h10.42a6.27,6.27,0,0,0-1.2-3.53,4.83,4.83,0,0,0-3.92-1.83,5,5,0,0,0-3.66,1.46A5.73,5.73,0,0,0,7901.83,7303.64Z" transform="translate(-6239.5 -6659.5)" style="fill:#fff"/><path d="M7919.42,7314.77V7296.1h2.85v2.83a7.86,7.86,0,0,1,2-2.62,3.53,3.53,0,0,1,2-.63,6.15,6.15,0,0,1,3.25,1l-1.09,2.93a4.56,4.56,0,0,0-2.32-.68,3,3,0,0,0-1.86.62,3.47,3.47,0,0,0-1.18,1.73,12.44,12.44,0,0,0-.53,3.7v9.77Z" transform="translate(-6239.5 -6659.5)" style="fill:#fff"/><path d="M7953.63,7307.93l3.11.4a8.06,8.06,0,0,1-2.61,5,7.62,7.62,0,0,1-5.16,1.82,8,8,0,0,1-6.16-2.5q-2.32-2.5-2.33-7.19a13,13,0,0,1,1-5.29,7,7,0,0,1,3.05-3.4,9.12,9.12,0,0,1,4.46-1.13,7.72,7.72,0,0,1,5,1.54,7,7,0,0,1,2.48,4.36l-3.08.48a5.11,5.11,0,0,0-1.55-2.83,4,4,0,0,0-2.7-.95,4.9,4.9,0,0,0-3.88,1.71c-1,1.15-1.5,2.95-1.5,5.43s.48,4.33,1.44,5.46a4.69,4.69,0,0,0,3.76,1.71,4.46,4.46,0,0,0,3.12-1.14A5.71,5.71,0,0,0,7953.63,7307.93Z" transform="translate(-6239.5 -6659.5)" style="fill:#fff"/><path d="M7958.27,7305.43q0-5.18,2.88-7.68a8.7,8.7,0,0,1,5.87-2.07,8.39,8.39,0,0,1,6.3,2.52,9.64,9.64,0,0,1,2.44,7,12.38,12.38,0,0,1-1.08,5.67,7.62,7.62,0,0,1-3.15,3.21,9.19,9.19,0,0,1-4.51,1.14,8.4,8.4,0,0,1-6.33-2.51C7959.07,7311,7958.27,7308.59,7958.27,7305.43Zm3.25,0q0,3.6,1.56,5.37a5.21,5.21,0,0,0,7.86,0q1.57-1.8,1.57-5.47a7.71,7.71,0,0,0-1.58-5.25,5,5,0,0,0-3.91-1.78,5.05,5.05,0,0,0-3.94,1.77A7.94,7.94,0,0,0,7961.52,7305.43Z" transform="translate(-6239.5 -6659.5)" style="fill:#fff"/><path d="M7979.47,7314.77V7296.1h2.85v2.65a6.7,6.7,0,0,1,5.94-3.07,7.69,7.69,0,0,1,3.1.61,4.85,4.85,0,0,1,2.12,1.59,6.06,6.06,0,0,1,1,2.33,17.82,17.82,0,0,1,.18,3.08v11.48h-3.17v-11.36a8.41,8.41,0,0,0-.37-2.89,3,3,0,0,0-1.31-1.53,4.14,4.14,0,0,0-2.2-.57,5.15,5.15,0,0,0-3.49,1.28q-1.47,1.29-1.47,4.87v10.2Z" transform="translate(-6239.5 -6659.5)" style="fill:#fff"/><path d="M8000.25,7314.77v-16.21h-2.8v-2.46h2.8v-2a8.78,8.78,0,0,1,.33-2.79,4,4,0,0,1,1.61-2,5.79,5.79,0,0,1,3.22-.76,15.68,15.68,0,0,1,3,.32l-.48,2.76a10.34,10.34,0,0,0-1.86-.18,2.78,2.78,0,0,0-2,.62,3.31,3.31,0,0,0-.6,2.3v1.72H8007v2.46h-3.64v16.21Z" transform="translate(-6239.5 -6659.5)" style="fill:#fff"/><path d="M8009.51,7292.64V7289h3.16v3.64Zm0,22.13V7296.1h3.16v18.67Z" transform="translate(-6239.5 -6659.5)" style="fill:#fff"/><path d="M8016.91,7316.32l3.08.45a2.91,2.91,0,0,0,1.07,2.08,5.29,5.29,0,0,0,3.21.88,5.71,5.71,0,0,0,3.4-.88,4.37,4.37,0,0,0,1.61-2.46,19.89,19.89,0,0,0,.23-4.06,6.52,6.52,0,0,1-5.17,2.44,7,7,0,0,1-5.95-2.78,10.66,10.66,0,0,1-2.11-6.66,12.46,12.46,0,0,1,1-4.93,7.73,7.73,0,0,1,2.81-3.49,7.55,7.55,0,0,1,4.31-1.23,6.69,6.69,0,0,1,5.45,2.67v-2.25h2.92v16.14a15.38,15.38,0,0,1-.89,6.18,6.48,6.48,0,0,1-2.81,2.87,9.77,9.77,0,0,1-4.74,1.05,8.94,8.94,0,0,1-5.39-1.5A5,5,0,0,1,8016.91,7316.32Zm2.62-11.22c0,2.45.48,4.24,1.46,5.36a4.61,4.61,0,0,0,3.65,1.69,4.67,4.67,0,0,0,3.66-1.68c1-1.12,1.48-2.87,1.48-5.26a7.67,7.67,0,0,0-1.52-5.17,4.72,4.72,0,0,0-3.67-1.74A4.58,4.58,0,0,0,8021,7300,7.63,7.63,0,0,0,8019.53,7305.1Z" transform="translate(-6239.5 -6659.5)" style="fill:#fff"/><path d="M7752.21,7653.3v-45.81h17.19a21.2,21.2,0,0,1,8.42,1.39,10.81,10.81,0,0,1,5,4.28,11.27,11.27,0,0,1,1.8,6.05,10.32,10.32,0,0,1-1.6,5.53,11.38,11.38,0,0,1-4.81,4.19,11.94,11.94,0,0,1,6.39,4.15,11.14,11.14,0,0,1,2.24,6.94,13.42,13.42,0,0,1-1.36,6,11.63,11.63,0,0,1-3.36,4.27,14.1,14.1,0,0,1-5,2.27,30.53,30.53,0,0,1-7.39.76Zm6.07-26.56h9.9a22.24,22.24,0,0,0,5.78-.53,6.46,6.46,0,0,0,3.49-2.28,6.6,6.6,0,0,0,1.17-4,7.47,7.47,0,0,0-1.09-4,5.51,5.51,0,0,0-3.13-2.37,26,26,0,0,0-7-.64h-9.15Zm0,21.16h11.4a27.1,27.1,0,0,0,4.13-.22,10,10,0,0,0,3.5-1.25,6.83,6.83,0,0,0,2.31-2.55,8,8,0,0,0,.91-3.86,7.57,7.57,0,0,0-1.32-4.45,6.92,6.92,0,0,0-3.64-2.66,22.57,22.57,0,0,0-6.7-.76h-10.59Z" transform="translate(-6239.5 -6659.5)" style="fill:#fff"/><path d="M7816.09,7649.21a21,21,0,0,1-6,3.75,17.35,17.35,0,0,1-6.2,1.09q-5.47,0-8.41-2.67a8.81,8.81,0,0,1-2.93-6.83,9.06,9.06,0,0,1,1.1-4.45,9.21,9.21,0,0,1,2.91-3.24,13.85,13.85,0,0,1,4.05-1.84,40.33,40.33,0,0,1,5-.84,52.09,52.09,0,0,0,10-1.94q0-1.15,0-1.47c0-2.29-.53-3.91-1.59-4.84q-2.16-1.91-6.41-1.91-4,0-5.86,1.39a8.55,8.55,0,0,0-2.8,4.92l-5.5-.75a13.73,13.73,0,0,1,2.47-5.7,10.8,10.8,0,0,1,5-3.34,22,22,0,0,1,7.53-1.18,20.09,20.09,0,0,1,6.91,1,9.2,9.2,0,0,1,3.91,2.52,9,9,0,0,1,1.75,3.83,32.67,32.67,0,0,1,.28,5.19v7.5a79.59,79.59,0,0,0,.36,9.92,12.5,12.5,0,0,0,1.42,4h-5.88A11.87,11.87,0,0,1,7816.09,7649.21Zm-.47-12.56a41.37,41.37,0,0,1-9.19,2.12,20.7,20.7,0,0,0-4.9,1.13,4.78,4.78,0,0,0-3,4.5,4.77,4.77,0,0,0,1.7,3.75,7.32,7.32,0,0,0,5,1.5,11.55,11.55,0,0,0,5.78-1.43,8.67,8.67,0,0,0,3.72-3.89,13.45,13.45,0,0,0,.91-5.62Z" transform="translate(-6239.5 -6659.5)" style="fill:#fff"/><path d="M7851.68,7641.15l5.53.71a14.33,14.33,0,0,1-4.64,9,13.53,13.53,0,0,1-9.17,3.23,14.24,14.24,0,0,1-10.95-4.45q-4.14-4.45-4.14-12.77a23,23,0,0,1,1.78-9.4,12.39,12.39,0,0,1,5.42-6.05,16.14,16.14,0,0,1,7.92-2,13.81,13.81,0,0,1,8.85,2.74,12.5,12.5,0,0,1,4.4,7.76l-5.47.85a9.06,9.06,0,0,0-2.76-5,7.15,7.15,0,0,0-4.8-1.69,8.72,8.72,0,0,0-6.91,3.05q-2.65,3-2.65,9.64c0,4.45.85,7.7,2.56,9.72a8.35,8.35,0,0,0,6.69,3,7.89,7.89,0,0,0,5.53-2A10.07,10.07,0,0,0,7851.68,7641.15Z" transform="translate(-6239.5 -6659.5)" style="fill:#fff"/><path d="M7862.06,7653.3v-45.81h5.62v26.12l13.31-13.5h7.29l-12.69,12.32,14,20.87h-6.94l-11-17-4,3.82v13.15Z" transform="translate(-6239.5 -6659.5)" style="fill:#fff"/><path d="M7916.74,7642.61l5.82.72a14.22,14.22,0,0,1-5.1,7.91,15.33,15.33,0,0,1-9.5,2.81q-7.28,0-11.54-4.48t-4.27-12.58q0-8.37,4.31-13a14.63,14.63,0,0,1,11.19-4.63,14.22,14.22,0,0,1,10.88,4.54q4.22,4.53,4.21,12.75,0,.49,0,1.5H7898q.31,5.46,3.1,8.37a9.18,9.18,0,0,0,6.93,2.91,8.65,8.65,0,0,0,5.29-1.63A10.77,10.77,0,0,0,7916.74,7642.61Zm-18.46-9.09h18.53a11.2,11.2,0,0,0-2.13-6.28,8.6,8.6,0,0,0-7-3.25,8.92,8.92,0,0,0-6.51,2.59A10.23,10.23,0,0,0,7898.28,7633.52Z" transform="translate(-6239.5 -6659.5)" style="fill:#fff"/><path d="M7929.62,7653.3v-33.19h5.06v4.72a12,12,0,0,1,10.56-5.47,13.87,13.87,0,0,1,5.52,1.08,8.7,8.7,0,0,1,3.77,2.83,11,11,0,0,1,1.75,4.16,33.17,33.17,0,0,1,.31,5.47v20.4H7951v-20.19a15.4,15.4,0,0,0-.65-5.14,5.48,5.48,0,0,0-2.33-2.72,7.47,7.47,0,0,0-3.92-1,9.13,9.13,0,0,0-6.21,2.28q-2.61,2.28-2.61,8.66v18.12Z" transform="translate(-6239.5 -6659.5)" style="fill:#fff"/><path d="M7986.74,7653.3v-4.19a10.29,10.29,0,0,1-9.28,4.94,13,13,0,0,1-7.29-2.19,14.31,14.31,0,0,1-5.16-6.11,21.07,21.07,0,0,1-1.83-9,23.53,23.53,0,0,1,1.66-9,13.07,13.07,0,0,1,5-6.2,13.23,13.23,0,0,1,7.4-2.16,11.07,11.07,0,0,1,9.16,4.57v-16.44H7992v45.81ZM7969,7636.74q0,6.38,2.69,9.53a8.09,8.09,0,0,0,6.34,3.16,8,8,0,0,0,6.27-3q2.58-3,2.58-9.2,0-6.81-2.63-10a8.05,8.05,0,0,0-6.47-3.19,7.79,7.79,0,0,0-6.26,3.06Q7969,7630.14,7969,7636.74Z" transform="translate(-6239.5 -6659.5)" style="fill:#fff"/><circle cx="6529.31" cy="7050.55" r="55.29" transform="translate(-8072.26 5125.8) rotate(-76.72)"/><path d="M6529.31,7000.26a50.29,50.29,0,1,1-50.29,50.29,50.35,50.35,0,0,1,50.29-50.29m0-10a60.29,60.29,0,1,0,60.29,60.29,60.29,60.29,0,0,0-60.29-60.29Z" transform="translate(-6239.5 -6659.5)" style="fill:red"/><path d="M6538.67,7085.45h-13.33v-50.22a45.72,45.72,0,0,1-17.21,10.1v-12.09a38.29,38.29,0,0,0,11.34-6.47,24.61,24.61,0,0,0,8.39-11.12h10.81Z" transform="translate(-6239.5 -6659.5)" style="fill:#00c900"/><circle cx="1635.27" cy="81.76" r="55.29"/><path d="M7874.78,6691a50.29,50.29,0,1,1-50.29,50.29,50.34,50.34,0,0,1,50.29-50.29m0-10a60.29,60.29,0,1,0,60.28,60.29,60.29,60.29,0,0,0-60.28-60.29Z" transform="translate(-6239.5 -6659.5)" style="fill:red"/><path d="M7895,6763.78v12.37h-46.71a32.18,32.18,0,0,1,4.56-13.29q3.78-6.28,15-16.67,9-8.38,11.05-11.38a14.69,14.69,0,0,0,2.75-8.15q0-4.45-2.4-6.86a10.18,10.18,0,0,0-13.25.12q-2.46,2.52-2.85,8.35l-13.27-1.33q1.18-11,7.44-15.79t15.65-4.79q10.29,0,16.17,5.55a18.2,18.2,0,0,1,5.88,13.8,24.08,24.08,0,0,1-1.69,8.94,36.36,36.36,0,0,1-5.33,8.88,84.5,84.5,0,0,1-8.73,8.87q-6.3,5.79-8,7.68a23.15,23.15,0,0,0-2.73,3.7Z" transform="translate(-6239.5 -6659.5)" style="fill:#00c900"/><circle cx="7874.78" cy="7135.06" r="55.29" transform="translate(-7118.16 6500.38) rotate(-76.72)"/><path d="M7874.78,7084.77a50.29,50.29,0,1,1-50.29,50.29,50.34,50.34,0,0,1,50.29-50.29m0-10a60.29,60.29,0,1,0,60.28,60.29,60.29,60.29,0,0,0-60.28-60.29Z" transform="translate(-6239.5 -6659.5)" style="fill:red"/><path d="M7849.57,7151.51l12.89-1.56a12.22,12.22,0,0,0,3.32,7.54,9.08,9.08,0,0,0,6.55,2.6,9,9,0,0,0,6.94-3.12,12.14,12.14,0,0,0,2.82-8.44,11.33,11.33,0,0,0-2.7-8,8.61,8.61,0,0,0-6.59-2.94,23,23,0,0,0-6.12,1l1.47-10.86q5.42.14,8.25-2.35a8.34,8.34,0,0,0,2.85-6.61,7.58,7.58,0,0,0-2.09-5.6,7.5,7.5,0,0,0-5.55-2.08,8,8,0,0,0-5.83,2.37,11.16,11.16,0,0,0-2.94,6.92l-12.28-2.09a27.41,27.41,0,0,1,3.87-10.07,17.46,17.46,0,0,1,7.2-5.93,24.22,24.22,0,0,1,10.36-2.16q9.83,0,15.74,6.26a16.34,16.34,0,0,1,4.89,11.57q0,9.15-10,14.61a16.17,16.17,0,0,1,9.56,5.73,16.68,16.68,0,0,1,3.58,10.76,20.84,20.84,0,0,1-6.69,15.6,23,23,0,0,1-16.64,6.45q-9.43,0-15.65-5.43A21.31,21.31,0,0,1,7849.57,7151.51Z" transform="translate(-6239.5 -6659.5)" style="fill:#00c900"/><circle cx="7874.78" cy="7529.86" r="55.29" transform="translate(-7502.4 6804.48) rotate(-76.72)"/><path d="M7874.78,7479.58a50.29,50.29,0,1,1-50.29,50.28,50.34,50.34,0,0,1,50.29-50.28m0-10a60.29,60.29,0,1,0,60.28,60.28,60.28,60.28,0,0,0-60.28-60.28Z" transform="translate(-6239.5 -6659.5)" style="fill:red"/><path d="M7876.17,7564.76v-14h-28.45v-11.66l30.15-44.14h11.19v44.09h8.63v11.71h-8.63v14Zm0-25.7v-23.75l-16,23.75Z" transform="translate(-6239.5 -6659.5)" style="fill:#00c900"/><path d="M7628.56,7699.8V7674H7632v12.78l12.8-12.78h4.62l-10.81,10.44,11.29,15.33h-4.5l-9.18-13.05-4.22,4.12v8.93Z" transform="translate(-6239.5 -6659.5)" style="fill:#fff"/><path d="M7664.55,7699.8v-2.75a6.85,6.85,0,0,1-5.93,3.17,7.54,7.54,0,0,1-3.08-.63,5.18,5.18,0,0,1-2.13-1.59,6,6,0,0,1-1-2.35,15.84,15.84,0,0,1-.2-2.95v-11.57h3.17v10.35a18.43,18.43,0,0,0,.19,3.34,3.28,3.28,0,0,0,1.27,2,3.87,3.87,0,0,0,2.39.71,5.16,5.16,0,0,0,2.67-.73,4,4,0,0,0,1.76-2,9.91,9.91,0,0,0,.52-3.65v-10h3.17v18.67Z" transform="translate(-6239.5 -6659.5)" style="fill:#fff"/><path d="M7675.25,7699.8h-2.93V7674h3.16v9.19a6.25,6.25,0,0,1,5.12-2.51,7.92,7.92,0,0,1,3.26.69,6.63,6.63,0,0,1,2.53,2,9.41,9.41,0,0,1,1.55,3,12.39,12.39,0,0,1,.57,3.8c0,3.2-.8,5.67-2.38,7.42a7.4,7.4,0,0,1-5.69,2.62,6,6,0,0,1-5.19-2.76Zm0-9.48a9.66,9.66,0,0,0,.91,4.85,4.52,4.52,0,0,0,7.63.65,8.21,8.21,0,0,0,1.51-5.37q0-3.66-1.45-5.4a4.41,4.41,0,0,0-3.51-1.74,4.55,4.55,0,0,0-3.58,1.8A7.9,7.9,0,0,0,7675.22,7690.32Z" transform="translate(-6239.5 -6659.5)" style="fill:#fff"/><path d="M7705.13,7693.79l3.27.4a8,8,0,0,1-2.86,4.45,8.66,8.66,0,0,1-5.34,1.58,8.54,8.54,0,0,1-6.5-2.52,9.87,9.87,0,0,1-2.4-7.08q0-4.71,2.43-7.31a8.17,8.17,0,0,1,6.29-2.6,8,8,0,0,1,6.12,2.55q2.37,2.55,2.37,7.17c0,.19,0,.47,0,.84h-13.92a7.2,7.2,0,0,0,1.74,4.71,5.17,5.17,0,0,0,3.9,1.64,4.84,4.84,0,0,0,3-.92A6.07,6.07,0,0,0,7705.13,7693.79Zm-10.38-5.12h10.42a6.27,6.27,0,0,0-1.2-3.53,4.83,4.83,0,0,0-3.92-1.83,5,5,0,0,0-3.66,1.46A5.73,5.73,0,0,0,7694.75,7688.67Z" transform="translate(-6239.5 -6659.5)" style="fill:#fff"/><path d="M7712.34,7699.8v-18.67h2.85V7684a7.76,7.76,0,0,1,2-2.62,3.53,3.53,0,0,1,2-.63,6.15,6.15,0,0,1,3.25,1l-1.09,2.93a4.56,4.56,0,0,0-2.32-.68,3,3,0,0,0-1.86.62,3.43,3.43,0,0,0-1.18,1.73,12.42,12.42,0,0,0-.52,3.69v9.78Z" transform="translate(-6239.5 -6659.5)" style="fill:#fff"/><path d="M7724.37,7699.8v-18.67h2.84v2.65a6.7,6.7,0,0,1,5.94-3.07,7.91,7.91,0,0,1,3.11.6,5,5,0,0,1,2.12,1.59,6.33,6.33,0,0,1,1,2.34,17.74,17.74,0,0,1,.18,3.08v11.48h-3.17v-11.36a8.41,8.41,0,0,0-.37-2.89,3,3,0,0,0-1.31-1.53,4.14,4.14,0,0,0-2.2-.57,5.15,5.15,0,0,0-3.49,1.28q-1.47,1.29-1.47,4.87v10.2Z" transform="translate(-6239.5 -6659.5)" style="fill:#fff"/><path d="M7757.17,7693.79l3.27.4a8.06,8.06,0,0,1-2.87,4.45,9.72,9.72,0,0,1-11.84-.94,9.87,9.87,0,0,1-2.4-7.08q0-4.71,2.43-7.31a8.19,8.19,0,0,1,6.29-2.6,8,8,0,0,1,6.12,2.55q2.37,2.55,2.37,7.17c0,.19,0,.47,0,.84H7746.6a7.2,7.2,0,0,0,1.74,4.71,5.19,5.19,0,0,0,3.9,1.64,4.84,4.84,0,0,0,3-.92A6,6,0,0,0,7757.17,7693.79Zm-10.39-5.12h10.42a6.34,6.34,0,0,0-1.19-3.53,4.86,4.86,0,0,0-3.92-1.83,5,5,0,0,0-3.67,1.46A5.73,5.73,0,0,0,7746.78,7688.67Z" transform="translate(-6239.5 -6659.5)" style="fill:#fff"/><path d="M7771.32,7697l.45,2.79a11.49,11.49,0,0,1-2.39.28,5.43,5.43,0,0,1-2.67-.54,3,3,0,0,1-1.33-1.43,11.3,11.3,0,0,1-.39-3.74v-10.74h-2.32v-2.46H7765v-4.62l3.14-1.9v6.52h3.19v2.46h-3.19v10.92a5.54,5.54,0,0,0,.17,1.74,1.29,1.29,0,0,0,.55.61,2.12,2.12,0,0,0,1.08.23A10.67,10.67,0,0,0,7771.32,7697Z" transform="translate(-6239.5 -6659.5)" style="fill:#fff"/><path d="M7787.19,7693.79l3.27.4a8,8,0,0,1-2.87,4.45,9.72,9.72,0,0,1-11.84-.94,9.91,9.91,0,0,1-2.39-7.08c0-3.14.8-5.58,2.42-7.31a8.2,8.2,0,0,1,6.29-2.6,8,8,0,0,1,6.12,2.55q2.37,2.55,2.37,7.17c0,.19,0,.47,0,.84h-13.93a7.16,7.16,0,0,0,1.75,4.71,5.17,5.17,0,0,0,3.9,1.64,4.84,4.84,0,0,0,3-.92A6.07,6.07,0,0,0,7787.19,7693.79Zm-10.39-5.12h10.42a6.27,6.27,0,0,0-1.19-3.53,4.86,4.86,0,0,0-3.92-1.83,5,5,0,0,0-3.67,1.46A5.78,5.78,0,0,0,7776.8,7688.67Z" transform="translate(-6239.5 -6659.5)" style="fill:#fff"/><path d="M7793.17,7694.22l3.12-.49a4.41,4.41,0,0,0,1.47,2.89,5.19,5.19,0,0,0,3.37,1,4.94,4.94,0,0,0,3.23-.89,2.64,2.64,0,0,0,1.06-2.08,1.92,1.92,0,0,0-.93-1.69,13.89,13.89,0,0,0-3.24-1.07,30.43,30.43,0,0,1-4.82-1.52,4.63,4.63,0,0,1-2.74-4.28,4.83,4.83,0,0,1,.57-2.32,5.27,5.27,0,0,1,1.56-1.76,6.5,6.5,0,0,1,2-.93,9.65,9.65,0,0,1,2.74-.37,10.79,10.79,0,0,1,3.85.63,5.26,5.26,0,0,1,2.46,1.71,6.82,6.82,0,0,1,1.09,2.9l-3.1.42a3.36,3.36,0,0,0-1.22-2.25,4.45,4.45,0,0,0-2.86-.81,5.18,5.18,0,0,0-3.11.72,2.1,2.1,0,0,0-.93,1.69,1.7,1.7,0,0,0,.39,1.1,2.78,2.78,0,0,0,1.21.85c.32.12,1.25.38,2.8.81a38.09,38.09,0,0,1,4.68,1.46,4.75,4.75,0,0,1,2.08,1.67,4.55,4.55,0,0,1,.76,2.7,5.33,5.33,0,0,1-.92,3,6,6,0,0,1-2.67,2.16,9.67,9.67,0,0,1-3.93.77,8.82,8.82,0,0,1-5.55-1.51A7,7,0,0,1,7793.17,7694.22Z" transform="translate(-6239.5 -6659.5)" style="fill:#fff"/><path d="M7820.06,7700.24l7.47-26.65h2.53l-7.45,26.65Z" transform="translate(-6239.5 -6659.5)" style="fill:#fff"/><path d="M7842.84,7699.8V7674h8.88a21.35,21.35,0,0,1,4.59.37,8.81,8.81,0,0,1,3.78,1.84,10.55,10.55,0,0,1,3.05,4.41,17.3,17.3,0,0,1,1,6.12,17.85,17.85,0,0,1-.69,5.2,12.52,12.52,0,0,1-1.76,3.76,9.27,9.27,0,0,1-2.34,2.34,10,10,0,0,1-3.08,1.29,17.7,17.7,0,0,1-4.14.44Zm3.41-3h5.5a13.18,13.18,0,0,0,4-.48,5.75,5.75,0,0,0,2.31-1.33,8.12,8.12,0,0,0,1.89-3.27,15.64,15.64,0,0,0,.68-5,12,12,0,0,0-1.33-6.22,6.68,6.68,0,0,0-3.22-2.9,13.13,13.13,0,0,0-4.41-.53h-5.42Z" transform="translate(-6239.5 -6659.5)" style="fill:#fff"/><path d="M7867.26,7690.46q0-5.18,2.88-7.68a8.7,8.7,0,0,1,5.87-2.07,8.35,8.35,0,0,1,6.29,2.52,9.58,9.58,0,0,1,2.45,7,12.38,12.38,0,0,1-1.08,5.67,7.67,7.67,0,0,1-3.15,3.21,9.19,9.19,0,0,1-4.51,1.14,8.44,8.44,0,0,1-6.34-2.51C7868.06,7696,7867.26,7693.62,7867.26,7690.46Zm3.25,0a8,8,0,0,0,1.56,5.37,5,5,0,0,0,3.94,1.79,5,5,0,0,0,3.92-1.8c1-1.19,1.57-3,1.57-5.46a7.71,7.71,0,0,0-1.58-5.25,5,5,0,0,0-3.91-1.78,5.05,5.05,0,0,0-3.94,1.77A7.94,7.94,0,0,0,7870.51,7690.46Z" transform="translate(-6239.5 -6659.5)" style="fill:#fff"/><path d="M7900.64,7693l3.11.4a8.06,8.06,0,0,1-2.61,5,7.62,7.62,0,0,1-5.16,1.82,8,8,0,0,1-6.16-2.51q-2.32-2.51-2.33-7.18a13,13,0,0,1,1-5.29,7,7,0,0,1,3.05-3.4,9,9,0,0,1,4.46-1.13,7.7,7.7,0,0,1,5,1.54,7,7,0,0,1,2.48,4.36l-3.07.48a5.15,5.15,0,0,0-1.56-2.83,4,4,0,0,0-2.7-.95,4.9,4.9,0,0,0-3.88,1.71c-1,1.15-1.5,2.95-1.5,5.43s.48,4.33,1.44,5.46a4.7,4.7,0,0,0,3.77,1.71,4.42,4.42,0,0,0,3.11-1.15A5.65,5.65,0,0,0,7900.64,7693Z" transform="translate(-6239.5 -6659.5)" style="fill:#fff"/><path d="M7906.47,7699.8V7674h3.17v14.69l7.49-7.59h4.09l-7.13,6.92,7.85,11.75H7918l-6.17-9.55-2.23,2.15v7.4Z" transform="translate(-6239.5 -6659.5)" style="fill:#fff"/><path d="M7937.24,7693.79l3.27.4a8,8,0,0,1-2.87,4.45,9.72,9.72,0,0,1-11.84-.94,9.87,9.87,0,0,1-2.4-7.08q0-4.71,2.43-7.31a8.19,8.19,0,0,1,6.29-2.6,8,8,0,0,1,6.12,2.55q2.37,2.55,2.37,7.17c0,.19,0,.47,0,.84h-13.92a7.2,7.2,0,0,0,1.74,4.71,5.2,5.2,0,0,0,3.9,1.64,4.89,4.89,0,0,0,3-.92A6.07,6.07,0,0,0,7937.24,7693.79Zm-10.39-5.12h10.42a6.34,6.34,0,0,0-1.19-3.53,4.86,4.86,0,0,0-3.92-1.83,5,5,0,0,0-3.67,1.46A5.73,5.73,0,0,0,7926.85,7688.67Z" transform="translate(-6239.5 -6659.5)" style="fill:#fff"/><path d="M7944.44,7699.8v-18.67h2.85V7684a7.76,7.76,0,0,1,2-2.62,3.55,3.55,0,0,1,2-.63,6.21,6.21,0,0,1,3.26,1l-1.09,2.93a4.61,4.61,0,0,0-2.32-.68,3,3,0,0,0-1.87.62,3.43,3.43,0,0,0-1.18,1.73,12.42,12.42,0,0,0-.52,3.69v9.78Z" transform="translate(-6239.5 -6659.5)" style="fill:#fff"/><path d="M7964.1,7700.24l7.47-26.65h2.53l-7.46,26.65Z" transform="translate(-6239.5 -6659.5)" style="fill:#fff"/><path d="M7986.88,7699.8V7674h9.72a24,24,0,0,1,3.92.24,7.83,7.83,0,0,1,3.18,1.21,6.35,6.35,0,0,1,2.06,2.48,7.81,7.81,0,0,1,.79,3.52,7.92,7.92,0,0,1-2.09,5.56q-2.1,2.28-7.56,2.28h-6.61v10.48Zm3.41-13.52H7997c2.2,0,3.77-.41,4.69-1.23a4.38,4.38,0,0,0,1.39-3.46,4.61,4.61,0,0,0-.82-2.77,3.76,3.76,0,0,0-2.15-1.52,14,14,0,0,0-3.18-.23h-6.59Z" transform="translate(-6239.5 -6659.5)" style="fill:#fff"/><path d="M8009.31,7690.46q0-5.18,2.88-7.68a8.68,8.68,0,0,1,5.87-2.07,8.37,8.37,0,0,1,6.29,2.52,9.58,9.58,0,0,1,2.45,7,12.38,12.38,0,0,1-1.08,5.67,7.67,7.67,0,0,1-3.15,3.21,9.19,9.19,0,0,1-4.51,1.14,8.42,8.42,0,0,1-6.34-2.51C8010.11,7696,8009.31,7693.62,8009.31,7690.46Zm3.25,0a8,8,0,0,0,1.56,5.37,5,5,0,0,0,3.94,1.79,5,5,0,0,0,3.92-1.8q1.56-1.78,1.56-5.46a7.71,7.71,0,0,0-1.57-5.25,5,5,0,0,0-3.91-1.78,5.05,5.05,0,0,0-3.94,1.77A7.94,7.94,0,0,0,8012.56,7690.46Z" transform="translate(-6239.5 -6659.5)" style="fill:#fff"/><path d="M8042.62,7699.8v-2.36a5.83,5.83,0,0,1-5.22,2.78,7.34,7.34,0,0,1-4.11-1.23,8.12,8.12,0,0,1-2.9-3.44,12,12,0,0,1-1-5.07,13.31,13.31,0,0,1,.93-5.07,7.31,7.31,0,0,1,7-4.7,6.16,6.16,0,0,1,3,.71,6.24,6.24,0,0,1,2.15,1.85V7674h3.14v25.77Zm-10-9.32a8.09,8.09,0,0,0,1.51,5.36,4.48,4.48,0,0,0,7.09.08,7.81,7.81,0,0,0,1.45-5.18c0-2.55-.49-4.43-1.48-5.62a4.51,4.51,0,0,0-3.64-1.79,4.37,4.37,0,0,0-3.52,1.72Q8032.62,7686.78,8032.62,7690.48Z" transform="translate(-6239.5 -6659.5)" style="fill:#fff"/><path d="M8050.53,7699.8v-18.67h2.83v2.62a6.54,6.54,0,0,1,2.34-2.21,6.62,6.62,0,0,1,3.32-.83,6.11,6.11,0,0,1,3.4.86,4.61,4.61,0,0,1,1.87,2.41,6.71,6.71,0,0,1,5.77-3.27,5.67,5.67,0,0,1,4.27,1.54,6.58,6.58,0,0,1,1.49,4.73v12.82h-3.14V7688a8.84,8.84,0,0,0-.31-2.74,2.69,2.69,0,0,0-1.12-1.34,3.48,3.48,0,0,0-1.9-.51,4.44,4.44,0,0,0-3.27,1.31,5.79,5.79,0,0,0-1.3,4.19v10.85h-3.16v-12.13a5.41,5.41,0,0,0-.77-3.17,3,3,0,0,0-2.54-1.05,4.6,4.6,0,0,0-2.47.7,4,4,0,0,0-1.64,2.06,11.54,11.54,0,0,0-.51,3.9v9.69Z" transform="translate(-6239.5 -6659.5)" style="fill:#fff"/><path d="M8092.7,7697.49a11.62,11.62,0,0,1-3.39,2.11,9.74,9.74,0,0,1-3.49.62,6.77,6.77,0,0,1-4.72-1.5,5,5,0,0,1-1.66-3.84,5.24,5.24,0,0,1,2.26-4.33,7.78,7.78,0,0,1,2.28-1,23.17,23.17,0,0,1,2.81-.47,29.24,29.24,0,0,0,5.64-1.09c0-.43,0-.71,0-.83a3.48,3.48,0,0,0-.9-2.72,5.25,5.25,0,0,0-3.6-1.07,5.56,5.56,0,0,0-3.29.78,4.76,4.76,0,0,0-1.58,2.77l-3.09-.42a7.53,7.53,0,0,1,1.39-3.21,6,6,0,0,1,2.79-1.88,12.46,12.46,0,0,1,4.24-.66,11.06,11.06,0,0,1,3.88.56,5.14,5.14,0,0,1,2.2,1.41,4.89,4.89,0,0,1,1,2.16,17.25,17.25,0,0,1,.16,2.92V7692a46.08,46.08,0,0,0,.2,5.59,7.52,7.52,0,0,0,.8,2.24h-3.3A6.64,6.64,0,0,1,8092.7,7697.49Zm-.27-7.06a23.19,23.19,0,0,1-5.16,1.19,11.48,11.48,0,0,0-2.76.64,2.76,2.76,0,0,0-.73,4.64,4.13,4.13,0,0,0,2.8.84,6.55,6.55,0,0,0,3.25-.8,4.86,4.86,0,0,0,2.09-2.19,7.62,7.62,0,0,0,.51-3.16Z" transform="translate(-6239.5 -6659.5)" style="fill:#fff"/><path d="M8100.54,7699.8v-18.67h2.84v2.65a6.73,6.73,0,0,1,5.95-3.07,7.86,7.86,0,0,1,3.1.6,5,5,0,0,1,2.12,1.59,6.17,6.17,0,0,1,1,2.34,17.74,17.74,0,0,1,.18,3.08v11.48h-3.17v-11.36a8.41,8.41,0,0,0-.37-2.89,3,3,0,0,0-1.31-1.53,4.14,4.14,0,0,0-2.2-.57,5.15,5.15,0,0,0-3.49,1.28q-1.47,1.29-1.47,4.87v10.2Z" transform="translate(-6239.5 -6659.5)" style="fill:#fff"/></svg>