<?xml version="1.0" encoding="UTF-8" standalone="no"?>
<!DOCTYPE svg PUBLIC "-//W3C//DTD SVG 1.1//EN"
 "http://www.w3.org/Graphics/SVG/1.1/DTD/svg11.dtd">
<!-- Generated by graphviz version 2.46.1 (20210213.1702)
 -->
<!-- Title: architecture Pages: 1 -->
<svg width="384pt" height="152pt"
 viewBox="0.00 0.00 384.00 152.00" xmlns="http://www.w3.org/2000/svg" xmlns:xlink="http://www.w3.org/1999/xlink">
<g id="graph0" class="graph" transform="scale(1 1) rotate(0) translate(4 148)">
<title>architecture</title>
<polygon fill="white" stroke="transparent" points="-4,4 -4,-148 380,-148 380,4 -4,4"/>
<!-- User -->
<g id="node1" class="node">
<title>User</title>
<polygon fill="black" stroke="red" stroke-width="3" points="72,-144 0,-144 0,0 72,0 72,-144"/>
<text text-anchor="middle" x="36" y="-69.5" font-family="Arial" font-size="10.00" fill="white">User</text>
</g>
<!-- ContainerSSH -->
<g id="node2" class="node">
<title>ContainerSSH</title>
<polygon fill="black" stroke="red" stroke-width="3" points="191,-144 113,-144 113,0 191,0 191,-144"/>
<text text-anchor="middle" x="152" y="-69.5" font-family="Arial" font-size="10.00" fill="white">ContainerSSH</text>
</g>
<!-- User&#45;&gt;ContainerSSH -->
<g id="edge1" class="edge">
<title>User&#45;&gt;ContainerSSH</title>
<path fill="none" stroke="#00c900" stroke-width="2" d="M72.13,-72C83.25,-72 95.68,-72 107.32,-72"/>
<polygon fill="#00c900" stroke="#00c900" stroke-width="2" points="107.61,-73.75 112.61,-72 107.61,-70.25 107.61,-73.75"/>
<text text-anchor="middle" x="92.5" y="-75" font-family="Times New Roman,serif" font-size="10.00">1</text>
</g>
<!-- Auth Server -->
<g id="node3" class="node">
<title>Auth Server</title>
<polygon fill="black" stroke="red" stroke-width="3" points="376,-140 232,-140 232,-104 376,-104 376,-140"/>
<text text-anchor="middle" x="304" y="-119.5" font-family="Arial" font-size="10.00" fill="white">Auth Server</text>
</g>
<!-- ContainerSSH&#45;&gt;Auth Server -->
<g id="edge2" class="edge">
<title>ContainerSSH&#45;&gt;Auth Server</title>
<path fill="none" stroke="#00c900" stroke-width="2" d="M191.24,-84.75C207.27,-90.09 226.27,-96.42 244.02,-102.34"/>
<polygon fill="#00c900" stroke="#00c900" stroke-width="2" points="243.69,-104.07 248.98,-103.99 244.79,-100.75 243.69,-104.07"/>
<text text-anchor="middle" x="211.5" y="-94" font-family="Times New Roman,serif" font-size="10.00">2</text>
</g>
<!-- Config Server -->
<g id="node4" class="node">
<title>Config Server</title>
<polygon fill="black" stroke="red" stroke-width="3" points="376,-90 232,-90 232,-54 376,-54 376,-90"/>
<text text-anchor="middle" x="304" y="-69.5" font-family="Arial" font-size="10.00" fill="white">Config Server</text>
</g>
<!-- ContainerSSH&#45;&gt;Config Server -->
<g id="edge3" class="edge">
<title>ContainerSSH&#45;&gt;Config Server</title>
<path fill="none" stroke="#00c900" stroke-width="2" d="M191.24,-72C202.1,-72 214.33,-72 226.6,-72"/>
<polygon fill="#00c900" stroke="#00c900" stroke-width="2" points="226.87,-73.75 231.87,-72 226.87,-70.25 226.87,-73.75"/>
<text text-anchor="middle" x="211.5" y="-75" font-family="Times New Roman,serif" font-size="10.00">3</text>
</g>
<!-- Docker/Podman/Kubernetes -->
<g id="node5" class="node">
<title>Docker/Podman/Kubernetes</title>
<polygon fill="black" stroke="red" stroke-width="3" points="376,-40 232,-40 232,-4 376,-4 376,-40"/>
<text text-anchor="middle" x="304" y="-19.5" font-family="Arial" font-size="10.00" fill="white">Docker/Podman/Kubernetes</text>
</g>
<!-- ContainerSSH&#45;&gt;Docker/Podman/Kubernetes -->
<g id="edge4" class="edge">
<title>ContainerSSH&#45;&gt;Docker/Podman/Kubernetes</title>
<path fill="none" stroke="#00c900" stroke-width="2" d="M191.24,-59.25C207.27,-53.91 226.27,-47.58 244.02,-41.66"/>
<polygon fill="#00c900" stroke="#00c900" stroke-width="2" points="244.79,-43.25 248.98,-40.01 243.69,-39.93 244.79,-43.25"/>
<text text-anchor="middle" x="211.5" y="-55" font-family="Times New Roman,serif" font-size="10.00">4</text>
</g>
</g>
</svg>
