<svg id="Layer_1" data-name="Layer 1" xmlns="http://www.w3.org/2000/svg" viewBox="0 0 1111.7 302.7"><defs><style>.cls-1{fill:#010101;}.cls-2{fill:#ed2224;}.cls-3{isolation:isolate;}.cls-4{fill:#fff;}.cls-5{fill:#58595b;}</style></defs><rect class="cls-1" x="8.8" y="8.8" width="285" height="285"/><path class="cls-2" d="M284.9,17.7V284.9H17.7V17.7H284.9M302.7,0H0V302.7H302.7V0Z"/><g class="cls-3"><path class="cls-4" d="M115.5,128.7,66.4,101.6a15.6,15.6,0,0,1-4.9-3.7,6.86,6.86,0,0,1-1.2-4.1,7.25,7.25,0,0,1,2.3-5.4A7.41,7.41,0,0,1,68,86.1c1.3,0,3.3.7,5.9,2.1L147,128.9,73.9,169.6c-2.7,1.5-4.6,2.2-5.9,2.2a7.58,7.58,0,0,1-5.4-2.3,7.7,7.7,0,0,1-2.3-5.6,6.45,6.45,0,0,1,1.2-4.1,15.6,15.6,0,0,1,4.9-3.7Z"/><path class="cls-4" d="M232.3,217.3H149.1q-5.55,0-7.8-2.1a7.1,7.1,0,0,1-2.3-5.4,7.31,7.31,0,0,1,2.3-5.5q2.25-2.1,7.8-2.1h83.2c3.6,0,6.1.7,7.7,2.1a7,7,0,0,1,2.3,5.5,7.1,7.1,0,0,1-2.3,5.4C238.5,216.6,235.9,217.3,232.3,217.3Z"/></g><g class="cls-3"><path d="M422,162c-2,.87-3.78,1.68-5.39,2.44a52.25,52.25,0,0,1-6.32,2.39,65.65,65.65,0,0,1-7.18,1.76,45.9,45.9,0,0,1-8.53.73,48.79,48.79,0,0,1-16-2.47,32.59,32.59,0,0,1-12.49-7.72A35.21,35.21,0,0,1,358,146a53.23,53.23,0,0,1-2.93-18.45,52.63,52.63,0,0,1,2.82-17.84A36.22,36.22,0,0,1,366,96.46a34.26,34.26,0,0,1,12.44-8,45.37,45.37,0,0,1,16.18-2.76,54.73,54.73,0,0,1,13,1.57A69.36,69.36,0,0,1,422,92.78v12.74h-.81A48,48,0,0,0,408,97.39a38.37,38.37,0,0,0-14-2.55,29.22,29.22,0,0,0-11,2,24.2,24.2,0,0,0-8.76,6.15,28.2,28.2,0,0,0-5.82,10.27,45,45,0,0,0-2.09,14.34,41.72,41.72,0,0,0,2.3,14.63,29.47,29.47,0,0,0,5.94,10,23.6,23.6,0,0,0,8.86,5.94A30,30,0,0,0,394,160a39.28,39.28,0,0,0,14.53-2.66,41.46,41.46,0,0,0,12.68-8H422Z"/><path d="M488,137.6q0,14.81-7.59,23.36t-20.32,8.57q-12.84,0-20.41-8.57t-7.56-23.36q0-14.79,7.56-23.38t20.41-8.6q12.74,0,20.32,8.6T488,137.6Zm-10.51,0q0-11.76-4.61-17.48t-12.79-5.71q-8.3,0-12.87,5.71t-4.58,17.48q0,11.39,4.6,17.27t12.85,5.88q8.13,0,12.76-5.83T477.46,137.6Z"/><path d="M554.37,167.85H544.18V133.38a60.29,60.29,0,0,0-.49-7.84,14.28,14.28,0,0,0-1.79-5.71,8.25,8.25,0,0,0-3.9-3.39,16.76,16.76,0,0,0-6.62-1.11,21,21,0,0,0-8.72,2.06,44.19,44.19,0,0,0-8.73,5.25v45.21H503.74V107.3h10.19V114a41.27,41.27,0,0,1,9.87-6.18,25.92,25.92,0,0,1,10.46-2.23q9.81,0,15,5.91t5.15,17Z"/><path d="M605.42,167.3a55.4,55.4,0,0,1-6.26,1.25,42.19,42.19,0,0,1-6,.49q-9.27,0-14.09-5t-4.83-16V115.87h-6.88V107.3h6.88V89.91h10.19V107.3h21v8.57h-21v27.59q0,4.77.22,7.45a12,12,0,0,0,1.52,5,7.23,7.23,0,0,0,3.28,3.17,15.32,15.32,0,0,0,6.36,1,19.9,19.9,0,0,0,5.21-.74,34.65,34.65,0,0,0,3.9-1.22h.54Z"/><path d="M664.77,167.85H654.63V161.4q-1.35.91-3.65,2.57a26.28,26.28,0,0,1-4.48,2.63,30.9,30.9,0,0,1-5.85,2.09,31.7,31.7,0,0,1-7.75.84A19.36,19.36,0,0,1,619,164.11a18.25,18.25,0,0,1-5.7-13.82q0-6.89,3-11.14a19.74,19.74,0,0,1,8.43-6.7,45.67,45.67,0,0,1,13.28-3.3q7.74-.87,16.63-1.3v-1.57a12,12,0,0,0-1.22-5.75,8.84,8.84,0,0,0-3.49-3.58,14.54,14.54,0,0,0-5.2-1.68,44.83,44.83,0,0,0-6.35-.43,42.72,42.72,0,0,0-8.94,1.06A68.7,68.7,0,0,0,619.24,119h-.54V108.61c2-.55,4.86-1.14,8.62-1.79a65.12,65.12,0,0,1,11.11-1,51.44,51.44,0,0,1,11.14,1.06,21.59,21.59,0,0,1,8.21,3.6A16.12,16.12,0,0,1,663,117a23.85,23.85,0,0,1,1.79,9.81Zm-10.14-14.91V136.08q-4.65.28-11,.82a56.4,56.4,0,0,0-10,1.57,16.43,16.43,0,0,0-7.1,3.87,9.62,9.62,0,0,0-2.71,7.24q0,5.21,3.14,7.83t9.6,2.63A22.71,22.71,0,0,0,646.4,158,44.21,44.21,0,0,0,654.63,152.94Z"/><path d="M695.34,97.17H683.85V86.6h11.49Zm-.65,70.68H684.5V107.3h10.19Z"/><path d="M765.47,167.85H755.28V133.38a58.58,58.58,0,0,0-.49-7.84,14.29,14.29,0,0,0-1.78-5.71,8.27,8.27,0,0,0-3.91-3.39,16.71,16.71,0,0,0-6.61-1.11,21.09,21.09,0,0,0-8.73,2.06,44.41,44.41,0,0,0-8.72,5.25v45.21H714.85V107.3H725V114a41.42,41.42,0,0,1,9.86-6.18,26,26,0,0,1,10.46-2.23q9.81,0,15,5.91t5.15,17Z"/><path d="M835.77,138.63H791.16a25.8,25.8,0,0,0,1.68,9.73,18,18,0,0,0,11.3,10.71,26.94,26.94,0,0,0,8.54,1.3,33.86,33.86,0,0,0,12.44-2.47q6.25-2.46,8.91-4.85h.55v11.11a82.76,82.76,0,0,1-10.52,3.63,42.46,42.46,0,0,1-11.27,1.46q-15.07,0-23.53-8.15t-8.45-23.17q0-14.85,8.1-23.58t21.33-8.73q12.25,0,18.89,7.16t6.64,20.32Zm-9.92-7.8q-.06-8-4-12.41T809.7,114q-8.19,0-13,4.82a18.8,18.8,0,0,0-5.5,12Z"/><path d="M889,118.42h-.54a37.14,37.14,0,0,0-4.42-.79,46.21,46.21,0,0,0-5.07-.24,21,21,0,0,0-9.1,2.08,41.61,41.61,0,0,0-8.46,5.4v43H851.21V107.3H861.4v9a49.94,49.94,0,0,1,10.71-6.91,23.26,23.26,0,0,1,9.46-2,37.78,37.78,0,0,1,3.84.14c.8.09,2,.26,3.58.52Z"/><path d="M958,144.81a21.48,21.48,0,0,1-2.19,9.32,22.17,22.17,0,0,1-6.16,7.81,32.94,32.94,0,0,1-10.1,5.42,43.74,43.74,0,0,1-13.91,1.95A69,69,0,0,1,910,167.68a79.62,79.62,0,0,1-14.17-4.82V149.42h.76a44.85,44.85,0,0,0,14.15,7.86A46.33,46.33,0,0,0,925.79,160q10,0,15.53-3.74a11.5,11.5,0,0,0,5.56-10q0-5.37-2.63-7.91a17.92,17.92,0,0,0-8-4,80.3,80.3,0,0,0-8.8-1.79c-3.17-.47-6.52-1.06-10.06-1.79q-10.73-2.28-15.91-7.78t-5.17-14.33q0-10.14,8.56-16.61t21.74-6.48a69.51,69.51,0,0,1,15.6,1.63,71.11,71.11,0,0,1,12.58,4V104H954a37.42,37.42,0,0,0-12.11-6.48A47.26,47.26,0,0,0,926.55,95q-8.61,0-13.85,3.58t-5.23,9.21q0,5,2.61,7.91t9.15,4.39c2.32.51,5.6,1.12,9.87,1.84s7.88,1.47,10.84,2.23q9,2.39,13.55,7.21T958,144.81Z"/><path d="M1032.73,144.81a21.36,21.36,0,0,1-2.2,9.32,22,22,0,0,1-6.15,7.81,32.88,32.88,0,0,1-10.11,5.42,43.67,43.67,0,0,1-13.9,1.95,68.82,68.82,0,0,1-15.69-1.63,79.36,79.36,0,0,1-14.17-4.82V149.42h.76a44.8,44.8,0,0,0,14.14,7.86,46.43,46.43,0,0,0,15.07,2.76q10,0,15.53-3.74a11.49,11.49,0,0,0,5.55-10c0-3.58-.87-6.22-2.63-7.91s-4.41-3-8-4a80.49,80.49,0,0,0-8.81-1.79c-3.16-.47-6.51-1.06-10-1.79q-10.74-2.28-15.91-7.78T971,108.77q0-10.14,8.56-16.61t21.73-6.48a69.6,69.6,0,0,1,15.61,1.63,71.38,71.38,0,0,1,12.58,4V104h-.76a37.37,37.37,0,0,0-12.12-6.48A47.16,47.16,0,0,0,1001.24,95q-8.62,0-13.85,3.58t-5.23,9.21q0,5,2.6,7.91t9.16,4.39q3.47.76,9.87,1.84t10.83,2.23q9,2.39,13.55,7.21T1032.73,144.81Z"/><path d="M1111.7,167.85H1101V128.33h-40.27v39.52H1050V87.14h10.73v31.65H1101V87.14h10.74Z"/></g><g class="cls-3"><path class="cls-5" d="M380,233.25H356.81V196.89h4.88V229H380Z"/><path class="cls-5" d="M406,233.25h-4.61v-2.91c-.41.28-1,.66-1.66,1.16a11.45,11.45,0,0,1-2,1.18,13.33,13.33,0,0,1-2.66.94,14.24,14.24,0,0,1-3.53.38,8.84,8.84,0,0,1-6.31-2.44,8.17,8.17,0,0,1-2.59-6.23,8.53,8.53,0,0,1,1.34-5,9,9,0,0,1,3.84-3,20.86,20.86,0,0,1,6-1.49q3.53-.39,7.57-.58v-.71a5.43,5.43,0,0,0-.55-2.59,4,4,0,0,0-1.59-1.61,6.75,6.75,0,0,0-2.37-.76,20.73,20.73,0,0,0-2.89-.19,20.27,20.27,0,0,0-4.07.47,33,33,0,0,0-4.64,1.38H385v-4.66c.9-.24,2.21-.51,3.92-.81a30.15,30.15,0,0,1,5.06-.43,23.48,23.48,0,0,1,5.06.47,9.86,9.86,0,0,1,3.74,1.63,7.08,7.08,0,0,1,2.37,2.9,10.67,10.67,0,0,1,.81,4.42Zm-4.61-6.72v-7.59c-1.41.08-3.08.2-5,.36a26.48,26.48,0,0,0-4.55.71,7.59,7.59,0,0,0-3.24,1.75,5,5,0,0,0,.2,6.78,6.76,6.76,0,0,0,4.37,1.19,10.39,10.39,0,0,0,4.46-.94A20.19,20.19,0,0,0,401.35,226.53Z"/><path class="cls-5" d="M437.73,233.25H433.1v-3a22.87,22.87,0,0,1-4.49,2.81,11.32,11.32,0,0,1-4.74,1,8.73,8.73,0,0,1-6.76-2.62q-2.42-2.62-2.41-7.71V206h4.63V221.5a27.4,27.4,0,0,0,.2,3.55,6.35,6.35,0,0,0,.84,2.53,3.87,3.87,0,0,0,1.73,1.56,7.51,7.51,0,0,0,3.08.49,9.9,9.9,0,0,0,3.93-.93,18.31,18.31,0,0,0,4-2.36V206h4.63Z"/><path class="cls-5" d="M469.9,233.25h-4.64V217.72a26.12,26.12,0,0,0-.22-3.53,6.37,6.37,0,0,0-.82-2.58,3.72,3.72,0,0,0-1.77-1.52,7.59,7.59,0,0,0-3-.5,9.67,9.67,0,0,0-4,.93,19.7,19.7,0,0,0-4,2.36v20.37h-4.64V206h4.64v3a18.67,18.67,0,0,1,4.49-2.78,11.82,11.82,0,0,1,4.76-1q4.46,0,6.8,2.66c1.57,1.77,2.35,4.33,2.35,7.66Z"/><path class="cls-5" d="M499.2,231.54a30.9,30.9,0,0,1-4.4,1.71,16,16,0,0,1-4.43.61,16.53,16.53,0,0,1-5.48-.87,11.1,11.1,0,0,1-4.26-2.63,11.78,11.78,0,0,1-2.79-4.44,18.1,18.1,0,0,1-1-6.27q0-6.69,3.71-10.5a13.09,13.09,0,0,1,9.81-3.81A16.64,16.64,0,0,1,495,206a25.07,25.07,0,0,1,4.18,1.61v5.1H499a17.34,17.34,0,0,0-4.38-2.51,12,12,0,0,0-4.4-.88,7.82,7.82,0,0,0-6.23,2.62q-2.28,2.63-2.28,7.71c0,3.28.75,5.81,2.23,7.58a7.78,7.78,0,0,0,6.28,2.65,11.88,11.88,0,0,0,2.86-.37,12.6,12.6,0,0,0,2.62-.95c.67-.34,1.3-.71,1.9-1.09a15.44,15.44,0,0,0,1.4-1h.25Z"/><path class="cls-5" d="M528.18,233.25h-4.64V217.72a26.12,26.12,0,0,0-.22-3.53,6.54,6.54,0,0,0-.81-2.58,3.75,3.75,0,0,0-1.78-1.52,7.53,7.53,0,0,0-3-.5,9.7,9.7,0,0,0-4,.93,20,20,0,0,0-4,2.36v20.37h-4.64v-38h4.64V209a18.87,18.87,0,0,1,4.49-2.78,11.86,11.86,0,0,1,4.76-1q4.47,0,6.81,2.66c1.56,1.77,2.34,4.33,2.34,7.66Z"/><path class="cls-5" d="M575.24,231.54a30.45,30.45,0,0,1-4.4,1.71,16,16,0,0,1-4.43.61,16.47,16.47,0,0,1-5.47-.87,11.13,11.13,0,0,1-4.27-2.63,11.78,11.78,0,0,1-2.79-4.44,18.11,18.11,0,0,1-1-6.27q0-6.69,3.71-10.5a13.05,13.05,0,0,1,9.8-3.81,16.64,16.64,0,0,1,4.65.66,24.73,24.73,0,0,1,4.18,1.61v5.1H575a17.69,17.69,0,0,0-4.38-2.51,12,12,0,0,0-4.41-.88,7.8,7.8,0,0,0-6.22,2.62q-2.28,2.63-2.28,7.71,0,4.92,2.23,7.58a7.77,7.77,0,0,0,6.27,2.65,12,12,0,0,0,2.87-.37,12.31,12.31,0,0,0,2.61-.95,20.13,20.13,0,0,0,1.9-1.09q.88-.57,1.41-1h.24Z"/><path class="cls-5" d="M604.67,219.62q0,6.67-3.45,10.52a13.06,13.06,0,0,1-18.54,0q-3.43-3.85-3.44-10.52t3.44-10.53a13,13,0,0,1,18.54,0Q604.67,213,604.67,219.62Zm-4.79,0c0-3.53-.69-6.15-2.09-7.87a7.9,7.9,0,0,0-11.68,0q-2.08,2.58-2.09,7.87,0,5.13,2.1,7.78a7.76,7.76,0,0,0,11.66,0Q599.88,224.8,599.88,219.62Z"/><path class="cls-5" d="M634.88,233.25h-4.63V217.72a27.86,27.86,0,0,0-.22-3.53,6.37,6.37,0,0,0-.82-2.58,3.72,3.72,0,0,0-1.77-1.52,7.59,7.59,0,0,0-3-.5,9.67,9.67,0,0,0-4,.93,19.77,19.77,0,0,0-4,2.36v20.37h-4.63V206h4.63v3a19.07,19.07,0,0,1,4.49-2.78,11.89,11.89,0,0,1,4.76-1q4.47,0,6.81,2.66c1.56,1.77,2.34,4.33,2.34,7.66Z"/><path class="cls-5" d="M658.12,233a23.59,23.59,0,0,1-2.85.56,19.17,19.17,0,0,1-2.75.22q-4.21,0-6.41-2.24t-2.2-7.21v-14.5h-3.13V206h3.13v-7.83h4.64V206h9.57v3.86h-9.57v12.43c0,1.43,0,2.55.1,3.36a5.28,5.28,0,0,0,.69,2.25,3.27,3.27,0,0,0,1.49,1.43,7.09,7.09,0,0,0,2.9.45,9.25,9.25,0,0,0,2.37-.33,16.39,16.39,0,0,0,1.77-.54h.25Z"/><path class="cls-5" d="M685.13,233.25h-4.61v-2.91c-.42.28-1,.66-1.67,1.16a11.75,11.75,0,0,1-2,1.18,13.66,13.66,0,0,1-2.67.94,14.19,14.19,0,0,1-3.53.38,8.85,8.85,0,0,1-6.31-2.44,8.17,8.17,0,0,1-2.59-6.23,8.6,8.6,0,0,1,1.34-5,9,9,0,0,1,3.84-3,20.94,20.94,0,0,1,6-1.49q3.52-.39,7.58-.58v-.71a5.43,5.43,0,0,0-.56-2.59,4,4,0,0,0-1.59-1.61,6.75,6.75,0,0,0-2.37-.76,20.59,20.59,0,0,0-2.88-.19,20.19,20.19,0,0,0-4.07.47,32.21,32.21,0,0,0-4.64,1.38h-.25v-4.66c.91-.24,2.21-.51,3.92-.81a30.24,30.24,0,0,1,5.06-.43,23.65,23.65,0,0,1,5.07.47,9.93,9.93,0,0,1,3.74,1.63,7.14,7.14,0,0,1,2.36,2.9,10.51,10.51,0,0,1,.82,4.42Zm-4.61-6.72v-7.59c-1.42.08-3.08.2-5,.36A26.81,26.81,0,0,0,671,220a7.55,7.55,0,0,0-3.23,1.75,5,5,0,0,0,.2,6.78,6.71,6.71,0,0,0,4.36,1.19,10.44,10.44,0,0,0,4.47-.94A20.53,20.53,0,0,0,680.52,226.53Z"/><path class="cls-5" d="M699,201.41h-5.23v-4.76H699Zm-.3,31.84h-4.63V206h4.63Z"/><path class="cls-5" d="M731,233.25h-4.64V217.72a26.12,26.12,0,0,0-.22-3.53,6.37,6.37,0,0,0-.82-2.58,3.72,3.72,0,0,0-1.77-1.52,7.59,7.59,0,0,0-3-.5,9.67,9.67,0,0,0-4,.93,19.7,19.7,0,0,0-4,2.36v20.37h-4.64V206h4.64v3a18.82,18.82,0,0,1,4.48-2.78,11.9,11.9,0,0,1,4.77-1q4.46,0,6.8,2.66c1.56,1.77,2.35,4.33,2.35,7.66Z"/><path class="cls-5" d="M763,220.09h-20.3a11.54,11.54,0,0,0,.76,4.38,8.18,8.18,0,0,0,5.15,4.82,12.24,12.24,0,0,0,3.88.59,15.52,15.52,0,0,0,5.66-1.11,13.94,13.94,0,0,0,4.06-2.19h.25v5a37.59,37.59,0,0,1-4.79,1.64,19.6,19.6,0,0,1-5.13.66q-6.86,0-10.71-3.67t-3.84-10.44q0-6.69,3.68-10.62a12.7,12.7,0,0,1,9.71-3.93c3.72,0,6.58,1.07,8.6,3.22s3,5.2,3,9.16Zm-4.52-3.52A8.07,8.07,0,0,0,756.6,211q-1.82-2-5.52-2a8.12,8.12,0,0,0-5.93,2.17,8.43,8.43,0,0,0-2.5,5.4Z"/><path class="cls-5" d="M787.17,211h-.25a19.39,19.39,0,0,0-2-.36,22,22,0,0,0-2.3-.1,9.6,9.6,0,0,0-4.15.94,19.15,19.15,0,0,0-3.85,2.42v19.37H770V206h4.63v4a23.06,23.06,0,0,1,4.88-3.11,10.7,10.7,0,0,1,4.3-.92,17,17,0,0,1,1.75.07c.36,0,.91.11,1.63.23Z"/><path class="cls-5" d="M811.22,225.38a7.39,7.39,0,0,1-3.12,6.13c-2.08,1.6-4.92,2.39-8.52,2.39a20.73,20.73,0,0,1-5.62-.72,25.51,25.51,0,0,1-4.28-1.57v-5.15h.25a18.46,18.46,0,0,0,4.89,2.6,15.3,15.3,0,0,0,5.15,1,9.84,9.84,0,0,0,4.79-1,3.29,3.29,0,0,0,1.72-3.08,3.07,3.07,0,0,0-.94-2.44,8.34,8.34,0,0,0-3.6-1.42c-.65-.14-1.51-.32-2.57-.51s-2-.41-2.9-.64a9.59,9.59,0,0,1-5.14-2.79,6.85,6.85,0,0,1-1.52-4.53,7.3,7.3,0,0,1,.7-3.17,7.65,7.65,0,0,1,2.13-2.66,10.17,10.17,0,0,1,3.52-1.82,15.75,15.75,0,0,1,4.77-.67,22.15,22.15,0,0,1,5,.59,19.08,19.08,0,0,1,4.2,1.46v4.9h-.24a16.78,16.78,0,0,0-4.32-2.18,14.85,14.85,0,0,0-5-.89,8.85,8.85,0,0,0-4.3,1,3.37,3.37,0,0,0-.69,5.41A8.35,8.35,0,0,0,799,217c.85.2,1.81.39,2.87.59s1.95.37,2.65.53a9.87,9.87,0,0,1,5,2.52A6.6,6.6,0,0,1,811.22,225.38Z"/><path class="cls-5" d="M859.09,219.62q0,6.67-3.45,10.52a13.06,13.06,0,0,1-18.54,0q-3.44-3.85-3.44-10.52t3.44-10.53a13,13,0,0,1,18.54,0Q859.09,213,859.09,219.62Zm-4.78,0q0-5.3-2.1-7.87a7.9,7.9,0,0,0-11.68,0q-2.09,2.58-2.08,7.87,0,5.13,2.09,7.78a7.76,7.76,0,0,0,11.66,0Q854.32,224.8,854.31,219.62Z"/><path class="cls-5" d="M889.31,233.25h-4.64V217.72a26.12,26.12,0,0,0-.22-3.53,6.54,6.54,0,0,0-.81-2.58,3.79,3.79,0,0,0-1.78-1.52,7.56,7.56,0,0,0-3-.5,9.67,9.67,0,0,0-4,.93,19.7,19.7,0,0,0-4,2.36v20.37h-4.64V206h4.64v3a18.87,18.87,0,0,1,4.49-2.78,11.82,11.82,0,0,1,4.76-1,8.63,8.63,0,0,1,6.81,2.66c1.56,1.77,2.34,4.33,2.34,7.66Z"/><path class="cls-5" d="M938.34,233.25h-4.63v-2.86a16.57,16.57,0,0,1-4.17,2.66,11.69,11.69,0,0,1-4.71.95,9.35,9.35,0,0,1-7.83-3.76q-2.91-3.75-2.9-10.42a17.73,17.73,0,0,1,1-6.18,14,14,0,0,1,2.7-4.61,11.42,11.42,0,0,1,8.53-3.81,14.91,14.91,0,0,1,3.85.45,18.32,18.32,0,0,1,3.53,1.4V195.26h4.63Zm-4.63-6.72V210.88a18.38,18.38,0,0,0-3.36-1.15,15.47,15.47,0,0,0-3.23-.31,7.37,7.37,0,0,0-6.07,2.68c-1.44,1.79-2.17,4.33-2.17,7.62s.56,5.7,1.68,7.39a6,6,0,0,0,5.38,2.52,10.21,10.21,0,0,0,4-.86A17.2,17.2,0,0,0,933.71,226.53Z"/><path class="cls-5" d="M970.53,220.09h-20.3a11.54,11.54,0,0,0,.77,4.38,8.13,8.13,0,0,0,5.14,4.82,12.3,12.3,0,0,0,3.89.59,15.52,15.52,0,0,0,5.66-1.11,13.86,13.86,0,0,0,4-2.19H970v5a37.45,37.45,0,0,1-4.78,1.64,19.62,19.62,0,0,1-5.14.66q-6.86,0-10.7-3.67t-3.85-10.44q0-6.69,3.69-10.62a12.69,12.69,0,0,1,9.71-3.93c3.71,0,6.58,1.07,8.59,3.22s3,5.2,3,9.16ZM966,216.57a8.07,8.07,0,0,0-1.84-5.59q-1.81-2-5.51-2a8.12,8.12,0,0,0-5.93,2.17,8.39,8.39,0,0,0-2.51,5.4Z"/><path class="cls-5" d="M1017.77,233.25h-4.64V217.72c0-1.17,0-2.3-.16-3.4a7.06,7.06,0,0,0-.68-2.61,3.74,3.74,0,0,0-1.63-1.59,7,7,0,0,0-3.06-.53,8.75,8.75,0,0,0-3.89,1,24,24,0,0,0-3.9,2.46c.05.37.09.81.12,1.3s.05,1,.05,1.48v17.46h-4.63V217.72c0-1.21-.06-2.35-.16-3.43a7.26,7.26,0,0,0-.68-2.6,3.66,3.66,0,0,0-1.63-1.58,7.11,7.11,0,0,0-3.06-.52,8.62,8.62,0,0,0-3.81.93,22.15,22.15,0,0,0-3.81,2.36v20.37h-4.64V206h4.64v3a20.47,20.47,0,0,1,4.33-2.78,10.76,10.76,0,0,1,4.6-1,9.17,9.17,0,0,1,4.77,1.17,7.19,7.19,0,0,1,2.92,3.25,22.87,22.87,0,0,1,5.13-3.38,11.89,11.89,0,0,1,5-1c3,0,5.26.9,6.7,2.72s2.16,4.35,2.16,7.6Z"/><path class="cls-5" d="M1048.11,233.25h-4.62v-2.91c-.41.28-1,.66-1.66,1.16a11.45,11.45,0,0,1-2,1.18,13.33,13.33,0,0,1-2.66.94,14.19,14.19,0,0,1-3.53.38,8.84,8.84,0,0,1-6.31-2.44,8.17,8.17,0,0,1-2.59-6.23,8.6,8.6,0,0,1,1.34-5,9,9,0,0,1,3.84-3,20.86,20.86,0,0,1,6-1.49c2.35-.26,4.88-.45,7.57-.58v-.71a5.43,5.43,0,0,0-.55-2.59,4,4,0,0,0-1.59-1.61,6.75,6.75,0,0,0-2.37-.76,20.63,20.63,0,0,0-2.89-.19,20.35,20.35,0,0,0-4.07.47,32.47,32.47,0,0,0-4.63,1.38h-.25v-4.66c.9-.24,2.21-.51,3.92-.81a30.24,30.24,0,0,1,5.06-.43,23.65,23.65,0,0,1,5.07.47,9.81,9.81,0,0,1,3.73,1.63,7.08,7.08,0,0,1,2.37,2.9,10.67,10.67,0,0,1,.82,4.42Zm-4.62-6.72v-7.59c-1.41.08-3.08.2-5,.36a26.64,26.64,0,0,0-4.55.71,7.55,7.55,0,0,0-3.23,1.75,5,5,0,0,0,.19,6.78,6.76,6.76,0,0,0,4.37,1.19,10.36,10.36,0,0,0,4.46-.94A20.19,20.19,0,0,0,1043.49,226.53Z"/><path class="cls-5" d="M1080.07,233.25h-4.63V217.72a26.06,26.06,0,0,0-.23-3.53,6.38,6.38,0,0,0-.81-2.58,3.7,3.7,0,0,0-1.78-1.52,7.53,7.53,0,0,0-3-.5,9.7,9.7,0,0,0-4,.93,20,20,0,0,0-4,2.36v20.37H1057V206h4.63v3a19.07,19.07,0,0,1,4.49-2.78,11.86,11.86,0,0,1,4.76-1q4.47,0,6.81,2.66c1.56,1.77,2.34,4.33,2.34,7.66Z"/><path class="cls-5" d="M1111.35,233.25h-4.64v-2.86a16.57,16.57,0,0,1-4.17,2.66,11.62,11.62,0,0,1-4.71.95,9.35,9.35,0,0,1-7.83-3.76q-2.89-3.75-2.9-10.42a18,18,0,0,1,1-6.18,14.31,14.31,0,0,1,2.7-4.61,11.42,11.42,0,0,1,8.54-3.81,14.83,14.83,0,0,1,3.84.45,18.07,18.07,0,0,1,3.53,1.4V195.26h4.64Zm-4.64-6.72V210.88a18.56,18.56,0,0,0-3.35-1.15,15.6,15.6,0,0,0-3.23-.31,7.35,7.35,0,0,0-6.07,2.68q-2.18,2.68-2.17,7.62t1.67,7.39a6,6,0,0,0,5.38,2.52,10.22,10.22,0,0,0,4-.86A17.13,17.13,0,0,0,1106.71,226.53Z"/></g></svg>